<svg width="328" height="285" viewBox="0 0 328 285" fill="none" xmlns="http://www.w3.org/2000/svg">
<rect width="328" height="285" rx="12" fill="#2E3748"/>
<g clip-path="url(#clip0_26899_627327)">
<path d="M20 44C25.3693 37.4833 36.2667 24.397 36.9022 24.1851C37.5377 23.9733 42.1685 23.9645 44.4045 24.0528L37.6524 44H20Z" fill="#1779DA" stroke="url(#paint0_linear_26899_627327)"/>
<path d="M34.2857 39.4269C31.9228 39.4269 30 37.5041 30 35.1412C30 32.7783 31.9228 30.8555 34.2857 30.8555C36.6486 30.8555 38.5714 32.7783 38.5714 35.1412C38.5714 37.5041 36.6504 39.4269 34.2857 39.4269ZM34.2857 31.0125C32.0091 31.0125 30.1553 32.8646 30.1553 35.1429C30.1553 37.4195 32.0074 39.2733 34.2857 39.2733C36.5623 39.2733 38.4161 37.4213 38.4161 35.1429C38.4161 32.8646 36.5641 31.0125 34.2857 31.0125Z" fill="#FAFAFA"/>
<path d="M34.6114 34.9123L33.3945 33.1172H32.6523V37.7326H33.3945L34.2023 36.6055H33.3945V34.1856L33.8934 34.9123H34.6114Z" fill="#FAFAFA"/>
<path d="M33.957 35.9375L35.1739 37.7326H35.9161V33.1172H35.1739L34.3661 34.246H35.1739V36.6642L34.6751 35.9375H33.957Z" fill="#FAFAFA"/>
</g>
<path d="M47.6974 27.9091H50.5994L54.4858 37.3949H54.6392L58.5256 27.9091H61.4276V41H59.152V32.0064H59.0305L55.4126 40.9616H53.7124L50.0945 31.9872H49.973V41H47.6974V27.9091ZM66.7649 41L63.0703 27.9091H65.6207L67.9794 37.5291H68.1009L70.6193 27.9091H72.9396L75.4645 37.5355H75.5795L77.9382 27.9091H80.4886L76.794 41H74.4545L71.8338 31.8146H71.7315L69.1044 41H66.7649ZM86.47 41V39.2869L91.0147 34.8317C91.4494 34.3928 91.8116 34.0028 92.1014 33.6619C92.3912 33.321 92.6085 32.9908 92.7534 32.6712C92.8983 32.3516 92.9707 32.0107 92.9707 31.6484C92.9707 31.2351 92.877 30.8814 92.6895 30.5874C92.502 30.2891 92.2441 30.0589 91.916 29.897C91.5879 29.7351 91.215 29.6541 90.7974 29.6541C90.367 29.6541 89.9899 29.7436 89.666 29.9226C89.3422 30.0973 89.0907 30.3466 88.9118 30.6705C88.737 30.9943 88.6497 31.38 88.6497 31.8274H86.3933C86.3933 30.9964 86.5829 30.2741 86.9622 29.6605C87.3414 29.0469 87.8635 28.5717 88.5282 28.2351C89.1973 27.8984 89.9643 27.7301 90.8294 27.7301C91.7072 27.7301 92.4785 27.8942 93.1433 28.2223C93.8081 28.5504 94.3237 29 94.6902 29.571C95.0609 30.142 95.2463 30.794 95.2463 31.527C95.2463 32.017 95.1525 32.4986 94.965 32.9716C94.7775 33.4446 94.4473 33.9687 93.9743 34.544C93.5055 35.1193 92.8471 35.8161 91.9991 36.6342L89.7427 38.929V39.0185H95.4444V41H86.47ZM97.1319 38.571V36.6854L102.687 27.9091H104.259V30.5938H103.3L99.5609 36.5192V36.6214H107.314V38.571H97.1319ZM103.377 41V37.9957L103.403 37.152V27.9091H105.64V41H103.377ZM109.357 41V39.2869L113.901 34.8317C114.336 34.3928 114.698 34.0028 114.988 33.6619C115.278 33.321 115.495 32.9908 115.64 32.6712C115.785 32.3516 115.857 32.0107 115.857 31.6484C115.857 31.2351 115.764 30.8814 115.576 30.5874C115.389 30.2891 115.131 30.0589 114.803 29.897C114.475 29.7351 114.102 29.6541 113.684 29.6541C113.254 29.6541 112.877 29.7436 112.553 29.9226C112.229 30.0973 111.977 30.3466 111.798 30.6705C111.624 30.9943 111.536 31.38 111.536 31.8274H109.28C109.28 30.9964 109.47 30.2741 109.849 29.6605C110.228 29.0469 110.75 28.5717 111.415 28.2351C112.084 27.8984 112.851 27.7301 113.716 27.7301C114.594 27.7301 115.365 27.8942 116.03 28.2223C116.695 28.5504 117.21 29 117.577 29.571C117.948 30.142 118.133 30.794 118.133 31.527C118.133 32.017 118.039 32.4986 117.852 32.9716C117.664 33.4446 117.334 33.9687 116.861 34.544C116.392 35.1193 115.734 35.8161 114.886 36.6342L112.629 38.929V39.0185H118.331V41H109.357ZM130.978 33.5021V35.407H125.084V33.5021H130.978ZM137.979 27.9091H140.881L144.767 37.3949H144.92L148.807 27.9091H151.709V41H149.433V32.0064H149.312L145.694 40.9616H143.994L140.376 31.9872H140.254V41H137.979V27.9091ZM157.046 41L153.352 27.9091H155.902L158.261 37.5291H158.382L160.901 27.9091H163.221L165.746 37.5355H165.861L168.219 27.9091H170.77L167.075 41H164.736L162.115 31.8146H162.013L159.386 41H157.046ZM176.751 41V39.2869L181.296 34.8317C181.731 34.3928 182.093 34.0028 182.383 33.6619C182.672 33.321 182.89 32.9908 183.035 32.6712C183.18 32.3516 183.252 32.0107 183.252 31.6484C183.252 31.2351 183.158 30.8814 182.971 30.5874C182.783 30.2891 182.525 30.0589 182.197 29.897C181.869 29.7351 181.496 29.6541 181.079 29.6541C180.648 29.6541 180.271 29.7436 179.947 29.9226C179.623 30.0973 179.372 30.3466 179.193 30.6705C179.018 30.9943 178.931 31.38 178.931 31.8274H176.675C176.675 30.9964 176.864 30.2741 177.243 29.6605C177.623 29.0469 178.145 28.5717 178.809 28.2351C179.479 27.8984 180.246 27.7301 181.111 27.7301C181.988 27.7301 182.76 27.8942 183.425 28.2223C184.089 28.5504 184.605 29 184.971 29.571C185.342 30.142 185.528 30.794 185.528 31.527C185.528 32.017 185.434 32.4986 185.246 32.9716C185.059 33.4446 184.729 33.9687 184.256 34.544C183.787 35.1193 183.128 35.8161 182.28 36.6342L180.024 38.929V39.0185H185.726V41H176.751ZM187.413 38.571V36.6854L192.968 27.9091H194.54V30.5938H193.581L189.842 36.5192V36.6214H197.596V38.571H187.413ZM193.658 41V37.9957L193.684 37.152V27.9091H195.921V41H193.658ZM204.336 41.179C203.416 41.179 202.597 41.0213 201.882 40.706C201.17 40.3906 200.607 39.9517 200.194 39.3892C199.781 38.8267 199.561 38.1768 199.536 37.4396H201.939C201.96 37.7933 202.078 38.1023 202.291 38.3665C202.504 38.6264 202.787 38.8288 203.141 38.9737C203.494 39.1186 203.891 39.1911 204.33 39.1911C204.798 39.1911 205.214 39.1101 205.576 38.9482C205.938 38.782 206.222 38.5518 206.426 38.2578C206.631 37.9638 206.731 37.625 206.727 37.2415C206.731 36.8452 206.629 36.4957 206.42 36.1932C206.211 35.8906 205.909 35.6541 205.512 35.4837C205.12 35.3132 204.647 35.228 204.093 35.228H202.936V33.3999H204.093C204.549 33.3999 204.948 33.321 205.289 33.1634C205.634 33.0057 205.904 32.7841 206.1 32.4986C206.296 32.2088 206.392 31.8743 206.388 31.495C206.392 31.1243 206.309 30.8026 206.139 30.5298C205.972 30.2528 205.736 30.0376 205.429 29.8842C205.127 29.7308 204.771 29.6541 204.362 29.6541C203.961 29.6541 203.59 29.7266 203.249 29.8714C202.909 30.0163 202.634 30.223 202.425 30.4915C202.216 30.7557 202.105 31.071 202.093 31.4375H199.811C199.828 30.7045 200.039 30.0611 200.443 29.5071C200.852 28.9489 201.398 28.5142 202.08 28.2031C202.762 27.8878 203.526 27.7301 204.374 27.7301C205.248 27.7301 206.007 27.8942 206.65 28.2223C207.298 28.5462 207.798 28.983 208.152 29.5327C208.506 30.0824 208.683 30.6896 208.683 31.3544C208.687 32.0916 208.47 32.7095 208.031 33.2081C207.596 33.7067 207.025 34.0327 206.318 34.1861V34.2884C207.238 34.4162 207.943 34.7571 208.433 35.3111C208.928 35.8608 209.173 36.5447 209.169 37.3629C209.169 38.0959 208.96 38.7521 208.542 39.3317C208.129 39.907 207.558 40.3587 206.829 40.6868C206.105 41.0149 205.274 41.179 204.336 41.179Z" fill="#E4E9EE"/>
<path d="M29.3366 53.8182V64H27.9247L22.7493 56.5327H22.6548V64H21.1186V53.8182H22.5405L27.7209 61.2955H27.8153V53.8182H29.3366ZM31.5776 53.8182H33.4419L36.6834 61.733H36.8027L40.0442 53.8182H41.9086V64H40.4469V56.6321H40.3525L37.3496 63.9851H36.1365L33.1337 56.6271H33.0392V64H31.5776V53.8182ZM52.3601 53.8182V64H50.9482L45.7727 56.5327H45.6783V64H44.142V53.8182H45.5639L50.7443 61.2955H50.8388V53.8182H52.3601ZM56.5946 64L53.7708 53.8182H55.3865L57.3702 61.7031H57.4647L59.5279 53.8182H61.1287L63.1919 61.7081H63.2864L65.2651 53.8182H66.8858L64.057 64H62.5108L60.3681 56.3736H60.2885L58.1458 64H56.5946ZM68.2866 64V53.8182H71.9158C72.7047 53.8182 73.3593 53.9541 73.8796 54.2259C74.4033 54.4976 74.7944 54.8738 75.0529 55.3544C75.3114 55.8317 75.4407 56.3835 75.4407 57.0099C75.4407 57.633 75.3098 58.1816 75.0479 58.6555C74.7894 59.1262 74.3983 59.4924 73.8746 59.7543C73.3543 60.0161 72.6997 60.147 71.9109 60.147H69.1616V58.8246H71.7717C72.2688 58.8246 72.6732 58.7533 72.9847 58.6108C73.2996 58.4683 73.5299 58.2611 73.6758 57.9893C73.8216 57.7176 73.8945 57.3911 73.8945 57.0099C73.8945 56.6255 73.82 56.2924 73.6708 56.0107C73.525 55.7289 73.2946 55.5135 72.9798 55.3643C72.6682 55.2119 72.2589 55.1357 71.7518 55.1357H69.8228V64H68.2866ZM73.3129 59.4062L75.8285 64H74.0785L71.6126 59.4062H73.3129ZM80.7255 64.1392C80.2714 64.1326 79.824 64.0497 79.3832 63.8906C78.9457 63.7315 78.5479 63.4664 78.19 63.0952C77.832 62.724 77.5453 62.2251 77.3299 61.5987C77.1178 60.9723 77.0117 60.1901 77.0117 59.2521C77.0117 58.3639 77.0996 57.575 77.2752 56.8857C77.4542 56.1963 77.7111 55.6146 78.0458 55.1406C78.3806 54.6634 78.7849 54.3004 79.2589 54.0518C79.7328 53.8033 80.2648 53.679 80.8548 53.679C81.4613 53.679 81.9999 53.7983 82.4705 54.0369C82.9412 54.2756 83.3223 54.6054 83.614 55.0263C83.909 55.4472 84.0962 55.9261 84.1758 56.4631H82.6594C82.5567 56.0388 82.3529 55.6925 82.0479 55.424C81.743 55.1555 81.3453 55.0213 80.8548 55.0213C80.109 55.0213 79.5273 55.3461 79.1097 55.9957C78.6954 56.6454 78.4866 57.5485 78.4833 58.7053H78.5579C78.7335 58.4169 78.949 58.1716 79.2042 57.9695C79.4627 57.764 79.7511 57.6065 80.0692 57.4972C80.3907 57.3845 80.7288 57.3281 81.0835 57.3281C81.6734 57.3281 82.207 57.4723 82.6843 57.7607C83.1649 58.0457 83.5477 58.4401 83.8327 58.9439C84.1178 59.4477 84.2603 60.0244 84.2603 60.674C84.2603 61.3236 84.1128 61.9119 83.8178 62.4389C83.5262 62.9659 83.1152 63.3835 82.5849 63.6918C82.0546 63.9967 81.4348 64.1458 80.7255 64.1392ZM80.7205 62.8466C81.1116 62.8466 81.4613 62.7505 81.7695 62.5582C82.0778 62.366 82.3214 62.1075 82.5004 61.7827C82.6793 61.4579 82.7688 61.0949 82.7688 60.6939C82.7688 60.3028 82.681 59.9465 82.5053 59.625C82.333 59.3035 82.0943 59.0483 81.7894 58.8594C81.4878 58.6705 81.1431 58.576 80.7553 58.576C80.4603 58.576 80.1869 58.6323 79.935 58.745C79.6864 58.8577 79.4677 59.0135 79.2788 59.2124C79.0898 59.4112 78.9407 59.6399 78.8313 59.8984C78.7253 60.1536 78.6722 60.4238 78.6722 60.7088C78.6722 61.09 78.7601 61.4429 78.9357 61.7678C79.1147 62.0926 79.3583 62.3544 79.6665 62.5533C79.9781 62.7488 80.3294 62.8466 80.7205 62.8466ZM92.5057 61.0966C92.1046 61.0966 91.7384 60.9988 91.407 60.8033C91.0755 60.6044 90.8104 60.3393 90.6115 60.0078C90.416 59.6764 90.3182 59.3101 90.3182 58.9091C90.3182 58.5047 90.416 58.1385 90.6115 57.8104C90.8104 57.4789 91.0755 57.2154 91.407 57.0199C91.7384 56.821 92.1046 56.7216 92.5057 56.7216C92.91 56.7216 93.2763 56.821 93.6044 57.0199C93.9358 57.2154 94.1993 57.4789 94.3949 57.8104C94.5938 58.1385 94.6932 58.5047 94.6932 58.9091C94.6932 59.3101 94.5938 59.6764 94.3949 60.0078C94.1993 60.3393 93.9358 60.6044 93.6044 60.8033C93.2763 60.9988 92.91 61.0966 92.5057 61.0966ZM101.031 64V53.8182H104.759C105.482 53.8182 106.08 53.9375 106.554 54.1761C107.028 54.4115 107.383 54.7313 107.618 55.1357C107.853 55.5367 107.971 55.9891 107.971 56.4929C107.971 56.9171 107.893 57.2751 107.737 57.5668C107.582 57.8551 107.373 58.0871 107.111 58.2628C106.852 58.4351 106.567 58.5611 106.256 58.6406V58.7401C106.594 58.7566 106.924 58.866 107.245 59.0682C107.57 59.267 107.838 59.5504 108.051 59.9183C108.263 60.2862 108.369 60.7337 108.369 61.2607C108.369 61.781 108.246 62.2483 108.001 62.6626C107.759 63.0736 107.384 63.4001 106.877 63.642C106.37 63.8807 105.722 64 104.933 64H101.031ZM102.567 62.6825H104.784C105.52 62.6825 106.047 62.54 106.365 62.255C106.683 61.9699 106.843 61.6136 106.843 61.1861C106.843 60.8646 106.761 60.5696 106.599 60.3011C106.436 60.0327 106.204 59.8189 105.903 59.6598C105.605 59.5007 105.25 59.4212 104.839 59.4212H102.567V62.6825ZM102.567 58.223H104.625C104.97 58.223 105.28 58.1567 105.555 58.0241C105.833 57.8916 106.054 57.706 106.216 57.4673C106.382 57.2254 106.465 56.9403 106.465 56.6122C106.465 56.1913 106.317 55.8383 106.022 55.5533C105.727 55.2682 105.275 55.1257 104.665 55.1257H102.567V58.223ZM110.395 64L114.839 55.2102V55.1357H109.699V53.8182H116.43V55.1804L112.001 64H110.395ZM118.776 64L123.22 55.2102V55.1357H118.08V53.8182H124.811V55.1804L120.381 64H118.776ZM127.156 64L131.601 55.2102V55.1357H126.46V53.8182H133.192V55.1804L128.762 64H127.156Z" fill="#E4E9EE"/>
<rect x="264" y="23" width="44" height="44" rx="8" fill="#3B4555"/>
<path d="M287.351 37.0044C287.552 36.9881 287.755 37.0173 287.945 37.0899C288.135 37.1625 288.308 37.2769 288.452 37.4254C288.597 37.574 288.709 37.7532 288.783 37.9512C288.856 38.1492 288.888 38.3614 288.878 38.5735V38.5695C288.854 39.1099 288.633 39.6198 288.261 39.9935C287.889 40.3671 287.394 40.5757 286.879 40.576L286.838 40.5753H286.84C286.636 40.5987 286.429 40.5733 286.235 40.5009C286.042 40.4285 285.866 40.3111 285.722 40.1574C285.578 40.0037 285.468 39.8176 285.402 39.6132C285.336 39.4088 285.314 39.1912 285.339 38.9768L285.338 38.9835C285.357 38.4407 285.58 37.9279 285.957 37.5569C286.335 37.1859 286.837 36.9868 287.353 37.003H287.35L287.351 37.0044ZM284.213 52.9987C283.409 52.9987 282.819 52.4767 283.382 50.1816L284.305 46.1101C284.466 45.4581 284.492 45.1975 284.305 45.1975C283.618 45.3795 282.967 45.686 282.381 46.1034L282.401 46.0894L282 45.3848C283.957 43.637 286.21 42.6124 287.174 42.6124C287.978 42.6124 288.112 43.6297 287.709 45.1948L286.653 49.475C286.465 50.2316 286.546 50.4923 286.733 50.4923C287.405 50.3322 288.029 49.9986 288.548 49.5217L288.543 49.5264L289 50.179C287.095 52.2134 285.017 53 284.213 53L284.213 52.9987Z" fill="#E4E9EE"/>
<g clip-path="url(#clip1_26899_627327)">
<rect x="20" y="84" width="1.99999" height="288" rx="0.999994" transform="rotate(-90 20 84)" fill="#3B4555"/>
</g>
<g clip-path="url(#clip2_26899_627327)">
<rect x="20" y="100" width="117" height="26" rx="4" fill="#475161"/>
<path d="M32.9509 118.139C32.2681 118.139 31.6583 118.022 31.1214 117.786C30.5877 117.551 30.1652 117.224 29.8536 116.807C29.5454 116.386 29.3796 115.899 29.3564 115.345H30.9175C30.9374 115.647 31.0385 115.909 31.2208 116.131C31.4064 116.349 31.6483 116.518 31.9466 116.638C32.2449 116.757 32.5764 116.817 32.941 116.817C33.342 116.817 33.6966 116.747 34.0049 116.608C34.3164 116.469 34.56 116.275 34.7357 116.026C34.9114 115.774 34.9992 115.484 34.9992 115.156C34.9992 114.815 34.9114 114.515 34.7357 114.256C34.5634 113.995 34.3098 113.789 33.9751 113.64C33.6436 113.491 33.2426 113.416 32.7719 113.416H31.9118V112.163H32.7719C33.1498 112.163 33.4812 112.095 33.7662 111.96C34.0546 111.824 34.28 111.635 34.4424 111.393C34.6048 111.147 34.686 110.861 34.686 110.533C34.686 110.218 34.6147 109.944 34.4722 109.712C34.333 109.477 34.1341 109.293 33.8756 109.161C33.6204 109.028 33.3188 108.962 32.9708 108.962C32.6394 108.962 32.3295 109.023 32.0411 109.146C31.7561 109.265 31.5241 109.437 31.3451 109.663C31.1661 109.885 31.07 110.152 31.0567 110.463H29.5702C29.5868 109.913 29.7492 109.429 30.0574 109.011C30.369 108.594 30.78 108.267 31.2904 108.032C31.8008 107.797 32.3676 107.679 32.9907 107.679C33.6436 107.679 34.2071 107.807 34.681 108.062C35.1583 108.314 35.5262 108.65 35.7847 109.071C36.0465 109.492 36.1758 109.953 36.1725 110.453C36.1758 111.023 36.0167 111.507 35.6952 111.905C35.377 112.303 34.9528 112.569 34.4225 112.705V112.785C35.0986 112.888 35.6223 113.156 35.9935 113.59C36.368 114.024 36.5537 114.563 36.5503 115.206C36.5537 115.766 36.3979 116.268 36.083 116.712C35.7715 117.156 35.3456 117.506 34.8053 117.761C34.2651 118.013 33.6469 118.139 32.9509 118.139ZM41.9743 118.169C41.1888 118.166 40.5177 117.959 39.9608 117.548C39.404 117.137 38.9781 116.538 38.6831 115.753C38.3882 114.967 38.2407 114.021 38.2407 112.914C38.2407 111.81 38.3882 110.867 38.6831 110.085C38.9814 109.303 39.409 108.706 39.9658 108.295C40.526 107.884 41.1955 107.679 41.9743 107.679C42.7532 107.679 43.4211 107.886 43.9779 108.3C44.5347 108.711 44.9606 109.308 45.2556 110.09C45.5539 110.869 45.703 111.81 45.703 112.914C45.703 114.024 45.5555 114.972 45.2606 115.758C44.9656 116.54 44.5397 117.138 43.9829 117.553C43.426 117.964 42.7565 118.169 41.9743 118.169ZM41.9743 116.842C42.6637 116.842 43.2023 116.505 43.5901 115.832C43.9812 115.16 44.1768 114.187 44.1768 112.914C44.1768 112.069 44.0873 111.355 43.9083 110.771C43.7326 110.185 43.4791 109.741 43.1476 109.439C42.8195 109.134 42.4284 108.982 41.9743 108.982C41.2883 108.982 40.7497 109.32 40.3586 109.996C39.9675 110.672 39.7703 111.645 39.767 112.914C39.767 113.763 39.8548 114.48 40.0305 115.067C40.2094 115.65 40.463 116.093 40.7911 116.394C41.1192 116.692 41.5136 116.842 41.9743 116.842ZM47.4866 118V110.364H48.9134V111.607H49.0079C49.167 111.186 49.4272 110.857 49.7884 110.622C50.1497 110.384 50.5822 110.264 51.086 110.264C51.5964 110.264 52.024 110.384 52.3687 110.622C52.7167 110.861 52.9736 111.189 53.1393 111.607H53.2188C53.4011 111.199 53.6911 110.874 54.0889 110.632C54.4866 110.387 54.9606 110.264 55.5107 110.264C56.2035 110.264 56.7686 110.481 57.2061 110.915C57.6469 111.35 57.8673 112.004 57.8673 112.879V118H56.3808V113.018C56.3808 112.501 56.2399 112.127 55.9582 111.895C55.6765 111.663 55.3401 111.547 54.949 111.547C54.4651 111.547 54.0889 111.696 53.8204 111.994C53.5519 112.289 53.4177 112.669 53.4177 113.133V118H51.9362V112.924C51.9362 112.51 51.8069 112.177 51.5484 111.925C51.2899 111.673 50.9535 111.547 50.5392 111.547C50.2574 111.547 49.9972 111.621 49.7586 111.771C49.5233 111.916 49.3327 112.12 49.1869 112.382C49.0444 112.644 48.9731 112.947 48.9731 113.292V118H47.4866ZM63.5647 118V110.364H65.0015V111.577H65.0811C65.2203 111.166 65.4655 110.843 65.8169 110.607C66.1715 110.369 66.5725 110.249 67.02 110.249C67.1128 110.249 67.2222 110.253 67.3481 110.259C67.4774 110.266 67.5785 110.274 67.6514 110.284V111.706C67.5917 111.689 67.4856 111.671 67.3332 111.651C67.1807 111.628 67.0283 111.616 66.8758 111.616C66.5245 111.616 66.2113 111.691 65.9362 111.84C65.6644 111.986 65.449 112.19 65.2899 112.452C65.1308 112.71 65.0512 113.005 65.0512 113.337V118H63.5647ZM71.9555 118.154C71.2032 118.154 70.5552 117.993 70.0116 117.672C69.4714 117.347 69.0538 116.891 68.7588 116.305C68.4671 115.715 68.3213 115.024 68.3213 114.232C68.3213 113.449 68.4671 112.76 68.7588 112.163C69.0538 111.567 69.4648 111.101 69.9917 110.766C70.522 110.432 71.1418 110.264 71.8511 110.264C72.282 110.264 72.6996 110.335 73.104 110.478C73.5083 110.621 73.8712 110.844 74.1927 111.149C74.5142 111.454 74.7678 111.85 74.9534 112.337C75.139 112.821 75.2318 113.41 75.2318 114.102V114.629H69.1615V113.516H73.7751C73.7751 113.125 73.6956 112.778 73.5365 112.477C73.3774 112.172 73.1537 111.931 72.8653 111.756C72.5803 111.58 72.2455 111.492 71.8611 111.492C71.4434 111.492 71.0789 111.595 70.7673 111.8C70.4591 112.003 70.2204 112.268 70.0514 112.596C69.8857 112.921 69.8028 113.274 69.8028 113.655V114.525C69.8028 115.035 69.8923 115.469 70.0713 115.827C70.2536 116.185 70.5071 116.459 70.8319 116.648C71.1568 116.833 71.5363 116.926 71.9704 116.926C72.2522 116.926 72.509 116.886 72.741 116.807C72.973 116.724 73.1736 116.601 73.3426 116.439C73.5116 116.277 73.6409 116.076 73.7304 115.837L75.1373 116.091C75.0247 116.505 74.8225 116.868 74.5308 117.18C74.2425 117.488 73.8795 117.728 73.442 117.901C73.0078 118.07 72.5123 118.154 71.9555 118.154ZM76.8811 118V110.364H78.308V111.607H78.4024C78.5615 111.186 78.8217 110.857 79.183 110.622C79.5442 110.384 79.9768 110.264 80.4806 110.264C80.991 110.264 81.4185 110.384 81.7632 110.622C82.1112 110.861 82.3681 111.189 82.5338 111.607H82.6134C82.7957 111.199 83.0857 110.874 83.4834 110.632C83.8811 110.387 84.3551 110.264 84.9053 110.264C85.598 110.264 86.1631 110.481 86.6006 110.915C87.0414 111.35 87.2618 112.004 87.2618 112.879V118H85.7753V113.018C85.7753 112.501 85.6344 112.127 85.3527 111.895C85.071 111.663 84.7346 111.547 84.3435 111.547C83.8596 111.547 83.4834 111.696 83.2149 111.994C82.9465 112.289 82.8122 112.669 82.8122 113.133V118H81.3307V112.924C81.3307 112.51 81.2014 112.177 80.9429 111.925C80.6844 111.673 80.348 111.547 79.9337 111.547C79.652 111.547 79.3918 111.621 79.1531 111.771C78.9178 111.916 78.7272 112.12 78.5814 112.382C78.4389 112.644 78.3676 112.947 78.3676 113.292V118H76.8811ZM91.4765 118.169C90.9926 118.169 90.5551 118.08 90.164 117.901C89.7729 117.718 89.463 117.455 89.2343 117.11C89.0089 116.765 88.8962 116.343 88.8962 115.842C88.8962 115.411 88.9791 115.057 89.1448 114.778C89.3105 114.5 89.5342 114.28 89.816 114.117C90.0977 113.955 90.4126 113.832 90.7606 113.749C91.1086 113.666 91.4632 113.603 91.8245 113.56C92.2819 113.507 92.6531 113.464 92.9381 113.431C93.2232 113.395 93.4303 113.337 93.5596 113.257C93.6888 113.178 93.7535 113.048 93.7535 112.869V112.835C93.7535 112.4 93.6308 112.064 93.3856 111.825C93.1436 111.587 92.7823 111.467 92.3018 111.467C91.8013 111.467 91.4069 111.578 91.1185 111.8C90.8335 112.019 90.6363 112.263 90.5269 112.531L89.1299 112.213C89.2956 111.749 89.5376 111.375 89.8557 111.089C90.1772 110.801 90.5468 110.592 90.9644 110.463C91.382 110.33 91.8212 110.264 92.2819 110.264C92.5868 110.264 92.9099 110.301 93.2513 110.374C93.596 110.443 93.9175 110.572 94.2158 110.761C94.5174 110.95 94.7644 111.22 94.9566 111.572C95.1488 111.92 95.2449 112.372 95.2449 112.929V118H93.7932V116.956H93.7336C93.6375 117.148 93.4933 117.337 93.301 117.523C93.1088 117.708 92.8619 117.862 92.5603 117.985C92.2587 118.108 91.8974 118.169 91.4765 118.169ZM91.7996 116.976C92.2106 116.976 92.5619 116.895 92.8536 116.732C93.1486 116.57 93.3723 116.358 93.5248 116.096C93.6805 115.831 93.7584 115.547 93.7584 115.246V114.261C93.7054 114.314 93.6027 114.364 93.4502 114.411C93.301 114.454 93.1304 114.492 92.9381 114.525C92.7459 114.555 92.5586 114.583 92.3763 114.609C92.194 114.633 92.0416 114.652 91.9189 114.669C91.6306 114.705 91.3671 114.767 91.1285 114.853C90.8931 114.939 90.7042 115.063 90.5617 115.226C90.4225 115.385 90.3529 115.597 90.3529 115.862C90.3529 116.23 90.4888 116.509 90.7606 116.697C91.0323 116.883 91.3787 116.976 91.7996 116.976ZM97.2249 118V110.364H98.7114V118H97.2249ZM97.9756 109.185C97.7171 109.185 97.495 109.099 97.3094 108.927C97.1271 108.751 97.036 108.542 97.036 108.3C97.036 108.055 97.1271 107.846 97.3094 107.674C97.495 107.498 97.7171 107.411 97.9756 107.411C98.2341 107.411 98.4545 107.498 98.6368 107.674C98.8224 107.846 98.9152 108.055 98.9152 108.3C98.9152 108.542 98.8224 108.751 98.6368 108.927C98.4545 109.099 98.2341 109.185 97.9756 109.185ZM102.198 113.466V118H100.711V110.364H102.138V111.607H102.233C102.408 111.202 102.683 110.877 103.058 110.632C103.436 110.387 103.911 110.264 104.485 110.264C105.005 110.264 105.461 110.374 105.852 110.592C106.243 110.808 106.546 111.129 106.762 111.557C106.977 111.984 107.085 112.513 107.085 113.143V118H105.598V113.322C105.598 112.768 105.454 112.336 105.166 112.024C104.877 111.709 104.481 111.552 103.978 111.552C103.633 111.552 103.326 111.626 103.058 111.776C102.793 111.925 102.582 112.143 102.426 112.432C102.274 112.717 102.198 113.062 102.198 113.466ZM109.078 118V110.364H110.565V118H109.078ZM109.829 109.185C109.571 109.185 109.349 109.099 109.163 108.927C108.981 108.751 108.889 108.542 108.889 108.3C108.889 108.055 108.981 107.846 109.163 107.674C109.349 107.498 109.571 107.411 109.829 107.411C110.088 107.411 110.308 107.498 110.49 107.674C110.676 107.846 110.769 108.055 110.769 108.3C110.769 108.542 110.676 108.751 110.49 108.927C110.308 109.099 110.088 109.185 109.829 109.185ZM114.051 113.466V118H112.565V110.364H113.992V111.607H114.086C114.262 111.202 114.537 110.877 114.911 110.632C115.289 110.387 115.765 110.264 116.338 110.264C116.859 110.264 117.314 110.374 117.705 110.592C118.096 110.808 118.4 111.129 118.615 111.557C118.831 111.984 118.938 112.513 118.938 113.143V118H117.452V113.322C117.452 112.768 117.308 112.336 117.019 112.024C116.731 111.709 116.335 111.552 115.831 111.552C115.486 111.552 115.18 111.626 114.911 111.776C114.646 111.925 114.436 112.143 114.28 112.432C114.127 112.717 114.051 113.062 114.051 113.466ZM124.134 121.023C123.527 121.023 123.005 120.943 122.568 120.784C122.133 120.625 121.779 120.415 121.504 120.153C121.229 119.891 121.023 119.604 120.887 119.293L122.165 118.766C122.254 118.911 122.374 119.066 122.523 119.228C122.675 119.394 122.881 119.535 123.139 119.651C123.401 119.767 123.738 119.825 124.149 119.825C124.712 119.825 125.178 119.687 125.546 119.412C125.913 119.14 126.097 118.706 126.097 118.109V116.608H126.003C125.913 116.77 125.784 116.951 125.615 117.15C125.449 117.349 125.221 117.521 124.929 117.667C124.637 117.813 124.258 117.886 123.791 117.886C123.187 117.886 122.644 117.745 122.16 117.463C121.679 117.178 121.298 116.759 121.016 116.205C120.738 115.648 120.599 114.964 120.599 114.152C120.599 113.34 120.736 112.644 121.011 112.064C121.29 111.484 121.671 111.04 122.155 110.732C122.639 110.42 123.187 110.264 123.801 110.264C124.274 110.264 124.657 110.344 124.949 110.503C125.241 110.659 125.468 110.841 125.63 111.05C125.796 111.259 125.923 111.442 126.013 111.602H126.122V110.364H127.579V118.169C127.579 118.825 127.426 119.364 127.122 119.785C126.817 120.206 126.404 120.517 125.884 120.719C125.367 120.922 124.783 121.023 124.134 121.023ZM124.119 116.653C124.546 116.653 124.908 116.553 125.203 116.354C125.501 116.152 125.726 115.864 125.879 115.489C126.034 115.112 126.112 114.659 126.112 114.132C126.112 113.618 126.036 113.166 125.884 112.775C125.731 112.384 125.507 112.079 125.212 111.86C124.917 111.638 124.553 111.527 124.119 111.527C123.671 111.527 123.298 111.643 123 111.875C122.702 112.104 122.476 112.415 122.324 112.81C122.175 113.204 122.1 113.645 122.1 114.132C122.1 114.633 122.176 115.072 122.329 115.45C122.481 115.827 122.707 116.122 123.005 116.335C123.307 116.547 123.678 116.653 124.119 116.653Z" fill="#FAFAFA"/>
</g>
<rect x="20" y="134" width="288" height="7" rx="3.5" fill="#475161"/>
<rect x="20" y="134" width="131.387" height="7" rx="3.5" fill="#FAFAFA"/>
<path d="M20.5284 155.406V154.273H27.2827V155.406H24.5597V163H23.2472V155.406H20.5284ZM34.3874 154.273H35.7085V160.013C35.7085 160.624 35.565 161.165 35.2781 161.636C34.9911 162.105 34.5877 162.474 34.0678 162.744C33.5479 163.011 32.9386 163.145 32.2397 163.145C31.5437 163.145 30.9357 163.011 30.4158 162.744C29.896 162.474 29.4925 162.105 29.2056 161.636C28.9187 161.165 28.7752 160.624 28.7752 160.013V154.273H30.092V159.906C30.092 160.301 30.1786 160.652 30.3519 160.959C30.5281 161.266 30.7766 161.507 31.0977 161.683C31.4187 161.857 31.7994 161.943 32.2397 161.943C32.6829 161.943 33.065 161.857 33.386 161.683C33.7099 161.507 33.957 161.266 34.1275 160.959C34.3008 160.652 34.3874 160.301 34.3874 159.906V154.273ZM37.6229 163V154.273H40.7337C41.4098 154.273 41.9709 154.389 42.4169 154.622C42.8658 154.855 43.201 155.178 43.4226 155.589C43.6442 155.999 43.755 156.472 43.755 157.009C43.755 157.543 43.6428 158.013 43.4183 158.419C43.1967 158.822 42.8615 159.136 42.4126 159.361C41.9666 159.585 41.4055 159.697 40.7294 159.697H38.3729V158.564H40.6101C41.0362 158.564 41.3828 158.503 41.6499 158.381C41.9197 158.259 42.1172 158.081 42.2422 157.848C42.3672 157.615 42.4297 157.335 42.4297 157.009C42.4297 156.679 42.3658 156.393 42.2379 156.152C42.1129 155.911 41.9155 155.726 41.6456 155.598C41.3786 155.467 41.0277 155.402 40.593 155.402H38.9396V163H37.6229ZM41.9311 159.062L44.0874 163H42.5874L40.4737 159.062H41.9311ZM52.4013 154.273V163H51.1911L46.755 156.599H46.674V163H45.3572V154.273H46.576L51.0163 160.682H51.0973V154.273H52.4013ZM62.2578 156.565C62.2124 156.162 62.0249 155.849 61.6953 155.628C61.3658 155.403 60.951 155.291 60.451 155.291C60.093 155.291 59.7834 155.348 59.522 155.462C59.2607 155.572 59.0575 155.726 58.9126 155.922C58.7706 156.115 58.6996 156.335 58.6996 156.582C58.6996 156.79 58.7479 156.969 58.8445 157.119C58.9439 157.27 59.0732 157.396 59.2322 157.499C59.3942 157.598 59.5675 157.682 59.7521 157.75C59.9368 157.815 60.1143 157.869 60.2848 157.912L61.1371 158.134C61.4155 158.202 61.701 158.294 61.9936 158.411C62.2862 158.527 62.5575 158.68 62.8075 158.871C63.0575 159.061 63.2592 159.297 63.4126 159.578C63.5689 159.859 63.647 160.196 63.647 160.588C63.647 161.082 63.5192 161.521 63.2635 161.905C63.0107 162.288 62.6428 162.591 62.1598 162.812C61.6797 163.034 61.0987 163.145 60.4169 163.145C59.7635 163.145 59.1982 163.041 58.7209 162.834C58.2436 162.626 57.87 162.332 57.6001 161.952C57.3303 161.568 57.1811 161.114 57.1527 160.588H58.4737C58.4993 160.903 58.6016 161.166 58.7805 161.376C58.9624 161.584 59.1939 161.739 59.4751 161.841C59.7592 161.94 60.0703 161.99 60.4084 161.99C60.7805 161.99 61.1115 161.932 61.4013 161.815C61.6939 161.696 61.924 161.531 62.0916 161.321C62.2592 161.108 62.343 160.859 62.343 160.575C62.343 160.317 62.2692 160.105 62.1214 159.94C61.9766 159.776 61.7791 159.639 61.5291 159.531C61.282 159.423 61.0021 159.328 60.6896 159.246L59.6584 158.964C58.9595 158.774 58.4055 158.494 57.9964 158.125C57.5902 157.756 57.3871 157.267 57.3871 156.659C57.3871 156.156 57.5234 155.717 57.7962 155.342C58.0689 154.967 58.4382 154.676 58.9041 154.469C59.37 154.259 59.8956 154.153 60.4808 154.153C61.0717 154.153 61.593 154.257 62.0447 154.464C62.4993 154.672 62.8572 154.957 63.1186 155.321C63.38 155.682 63.5163 156.097 63.5277 156.565H62.2578ZM64.7901 155.406V154.273H71.5444V155.406H68.8214V163H67.5089V155.406H64.7901ZM72.7429 163H71.3452L74.4858 154.273H76.0071L79.1477 163H77.75L75.2827 155.858H75.2145L72.7429 163ZM72.9773 159.582H77.5114V160.69H72.9773V159.582ZM80.408 163V154.273H83.5188C84.195 154.273 84.756 154.389 85.2021 154.622C85.6509 154.855 85.9862 155.178 86.2077 155.589C86.4293 155.999 86.5401 156.472 86.5401 157.009C86.5401 157.543 86.4279 158.013 86.2035 158.419C85.9819 158.822 85.6467 159.136 85.1978 159.361C84.7518 159.585 84.1907 159.697 83.5146 159.697H81.158V158.564H83.3952C83.8214 158.564 84.168 158.503 84.435 158.381C84.7049 158.259 84.9023 158.081 85.0273 157.848C85.1523 157.615 85.2148 157.335 85.2148 157.009C85.2148 156.679 85.1509 156.393 85.0231 156.152C84.8981 155.911 84.7006 155.726 84.4308 155.598C84.1637 155.467 83.8129 155.402 83.3782 155.402H81.7248V163H80.408ZM84.7163 159.062L86.8725 163H85.3725L83.2589 159.062H84.7163ZM87.712 155.406V154.273H94.4663V155.406H91.7433V163H90.4308V155.406H87.712Z" fill="#B4BEC8"/>
<path d="M26.4879 176.909V190H24.1165V179.217H24.0398L20.978 181.173V178.999L24.2315 176.909H26.4879ZM29.8118 190V188.287L34.3565 183.832C34.7912 183.393 35.1534 183.003 35.4432 182.662C35.733 182.321 35.9503 181.991 36.0952 181.671C36.2401 181.352 36.3125 181.011 36.3125 180.648C36.3125 180.235 36.2188 179.881 36.0312 179.587C35.8438 179.289 35.5859 179.059 35.2578 178.897C34.9297 178.735 34.5568 178.654 34.1392 178.654C33.7088 178.654 33.3317 178.744 33.0078 178.923C32.6839 179.097 32.4325 179.347 32.2536 179.67C32.0788 179.994 31.9915 180.38 31.9915 180.827H29.7351C29.7351 179.996 29.9247 179.274 30.304 178.661C30.6832 178.047 31.2053 177.572 31.87 177.235C32.5391 176.898 33.3061 176.73 34.1712 176.73C35.049 176.73 35.8203 176.894 36.4851 177.222C37.1499 177.55 37.6655 178 38.032 178.571C38.4027 179.142 38.5881 179.794 38.5881 180.527C38.5881 181.017 38.4943 181.499 38.3068 181.972C38.1193 182.445 37.7891 182.969 37.3161 183.544C36.8473 184.119 36.1889 184.816 35.3409 185.634L33.0845 187.929V188.018H38.7862V190H29.8118ZM42.4425 188.428C42.0547 188.428 41.7223 188.291 41.4453 188.018C41.1683 187.741 41.032 187.409 41.0362 187.021C41.032 186.638 41.1683 186.31 41.4453 186.037C41.7223 185.764 42.0547 185.628 42.4425 185.628C42.8175 185.628 43.1435 185.764 43.4205 186.037C43.7017 186.31 43.8445 186.638 43.8487 187.021C43.8445 187.281 43.7763 187.518 43.6442 187.731C43.5163 187.944 43.3459 188.114 43.1328 188.242C42.924 188.366 42.6939 188.428 42.4425 188.428ZM42.4425 181.94C42.0547 181.94 41.7223 181.803 41.4453 181.531C41.1683 181.254 41.032 180.921 41.0362 180.533C41.032 180.15 41.1683 179.822 41.4453 179.549C41.7223 179.272 42.0547 179.134 42.4425 179.134C42.8175 179.134 43.1435 179.272 43.4205 179.549C43.7017 179.822 43.8445 180.15 43.8487 180.533C43.8445 180.789 43.7763 181.023 43.6442 181.237C43.5163 181.45 43.3459 181.62 43.1328 181.748C42.924 181.876 42.6939 181.94 42.4425 181.94ZM51.051 190.249C49.9984 190.249 49.095 189.983 48.3407 189.45C47.5907 188.913 47.0133 188.14 46.6085 187.13C46.2079 186.116 46.0076 184.895 46.0076 183.467C46.0119 182.04 46.2143 180.825 46.6149 179.824C47.0197 178.818 47.5971 178.051 48.3471 177.523C49.1014 176.994 50.0027 176.73 51.051 176.73C52.0993 176.73 53.0005 176.994 53.7548 177.523C54.5091 178.051 55.0865 178.818 55.487 179.824C55.8919 180.83 56.0943 182.044 56.0943 183.467C56.0943 184.899 55.8919 186.122 55.487 187.136C55.0865 188.146 54.5091 188.918 53.7548 189.45C53.0048 189.983 52.1035 190.249 51.051 190.249ZM51.051 188.249C51.8691 188.249 52.5147 187.846 52.9877 187.04C53.465 186.231 53.7037 185.04 53.7037 183.467C53.7037 182.428 53.595 181.554 53.3777 180.847C53.1603 180.139 52.8535 179.607 52.4572 179.249C52.0609 178.886 51.5922 178.705 51.051 178.705C50.237 178.705 49.5936 179.11 49.1206 179.92C48.6475 180.725 48.4089 181.908 48.4047 183.467C48.4004 184.511 48.5048 185.389 48.7179 186.101C48.9352 186.812 49.242 187.349 49.6383 187.712C50.0346 188.07 50.5055 188.249 51.051 188.249ZM63.5426 176.909V190H61.1712V179.217H61.0945L58.0327 181.173V178.999L61.2862 176.909H63.5426Z" fill="#FAFAFA"/>
<path d="M191.54 158.636C191.54 159.568 191.369 160.369 191.028 161.04C190.688 161.707 190.22 162.222 189.626 162.582C189.036 162.94 188.364 163.119 187.611 163.119C186.855 163.119 186.18 162.94 185.587 162.582C184.996 162.222 184.53 161.706 184.189 161.036C183.848 160.365 183.678 159.565 183.678 158.636C183.678 157.705 183.848 156.905 184.189 156.237C184.53 155.567 184.996 155.053 185.587 154.695C186.18 154.334 186.855 154.153 187.611 154.153C188.364 154.153 189.036 154.334 189.626 154.695C190.22 155.053 190.688 155.567 191.028 156.237C191.369 156.905 191.54 157.705 191.54 158.636ZM190.236 158.636C190.236 157.926 190.121 157.328 189.891 156.842C189.663 156.354 189.351 155.984 188.953 155.734C188.558 155.482 188.111 155.355 187.611 155.355C187.108 155.355 186.659 155.482 186.264 155.734C185.869 155.984 185.557 156.354 185.327 156.842C185.099 157.328 184.986 157.926 184.986 158.636C184.986 159.347 185.099 159.946 185.327 160.435C185.557 160.92 185.869 161.29 186.264 161.543C186.659 161.793 187.108 161.918 187.611 161.918C188.111 161.918 188.558 161.793 188.953 161.543C189.351 161.29 189.663 160.92 189.891 160.435C190.121 159.946 190.236 159.347 190.236 158.636ZM193.181 163V154.273H198.593V155.406H194.498V158.065H198.206V159.195H194.498V163H193.181ZM200.213 163V154.273H205.625V155.406H201.529V158.065H205.237V159.195H201.529V163H200.213ZM207.244 163V154.273H208.561V161.866H212.515V163H207.244ZM221.259 158.636C221.259 159.568 221.088 160.369 220.747 161.04C220.406 161.707 219.939 162.222 219.345 162.582C218.754 162.94 218.082 163.119 217.33 163.119C216.574 163.119 215.899 162.94 215.305 162.582C214.714 162.222 214.249 161.706 213.908 161.036C213.567 160.365 213.396 159.565 213.396 158.636C213.396 157.705 213.567 156.905 213.908 156.237C214.249 155.567 214.714 155.053 215.305 154.695C215.899 154.334 216.574 154.153 217.33 154.153C218.082 154.153 218.754 154.334 219.345 154.695C219.939 155.053 220.406 155.567 220.747 156.237C221.088 156.905 221.259 157.705 221.259 158.636ZM219.955 158.636C219.955 157.926 219.839 157.328 219.609 156.842C219.382 156.354 219.07 155.984 218.672 155.734C218.277 155.482 217.83 155.355 217.33 155.355C216.827 155.355 216.378 155.482 215.983 155.734C215.588 155.984 215.276 156.354 215.045 156.842C214.818 157.328 214.705 157.926 214.705 158.636C214.705 159.347 214.818 159.946 215.045 160.435C215.276 160.92 215.588 161.29 215.983 161.543C216.378 161.793 216.827 161.918 217.33 161.918C217.83 161.918 218.277 161.793 218.672 161.543C219.07 161.29 219.382 160.92 219.609 160.435C219.839 159.946 219.955 159.347 219.955 158.636ZM223.204 163H221.806L224.947 154.273H226.468L229.609 163H228.211L225.744 155.858H225.675L223.204 163ZM223.438 159.582H227.972V160.69H223.438V159.582ZM233.694 163H230.869V154.273H233.784C234.639 154.273 235.373 154.447 235.987 154.797C236.6 155.143 237.071 155.642 237.397 156.293C237.727 156.94 237.892 157.717 237.892 158.624C237.892 159.533 237.725 160.314 237.393 160.967C237.064 161.621 236.586 162.124 235.961 162.476C235.336 162.825 234.581 163 233.694 163ZM232.186 161.849H233.622C234.287 161.849 234.839 161.724 235.279 161.474C235.72 161.222 236.049 160.857 236.268 160.379C236.487 159.899 236.596 159.314 236.596 158.624C236.596 157.939 236.487 157.358 236.268 156.881C236.052 156.403 235.73 156.041 235.301 155.794C234.872 155.547 234.339 155.423 233.703 155.423H232.186V161.849ZM249.953 157.111H248.624C248.573 156.827 248.478 156.577 248.338 156.361C248.199 156.145 248.029 155.962 247.827 155.811C247.625 155.661 247.4 155.547 247.15 155.47C246.902 155.393 246.64 155.355 246.361 155.355C245.858 155.355 245.408 155.482 245.01 155.734C244.615 155.987 244.303 156.358 244.073 156.847C243.846 157.335 243.732 157.932 243.732 158.636C243.732 159.347 243.846 159.946 244.073 160.435C244.303 160.923 244.617 161.293 245.015 161.543C245.412 161.793 245.86 161.918 246.357 161.918C246.632 161.918 246.894 161.881 247.141 161.807C247.391 161.73 247.617 161.618 247.819 161.47C248.02 161.322 248.191 161.142 248.33 160.929C248.472 160.713 248.57 160.466 248.624 160.188L249.953 160.192C249.882 160.621 249.745 161.016 249.54 161.376C249.338 161.734 249.078 162.044 248.76 162.305C248.445 162.564 248.084 162.764 247.678 162.906C247.272 163.048 246.828 163.119 246.348 163.119C245.593 163.119 244.919 162.94 244.328 162.582C243.738 162.222 243.272 161.706 242.931 161.036C242.593 160.365 242.424 159.565 242.424 158.636C242.424 157.705 242.594 156.905 242.935 156.237C243.276 155.567 243.742 155.053 244.333 154.695C244.924 154.334 245.596 154.153 246.348 154.153C246.811 154.153 247.243 154.22 247.644 154.354C248.047 154.484 248.409 154.678 248.73 154.933C249.051 155.186 249.317 155.496 249.527 155.862C249.738 156.226 249.88 156.642 249.953 157.111ZM259.11 158.636C259.11 159.568 258.94 160.369 258.599 161.04C258.258 161.707 257.79 162.222 257.197 162.582C256.606 162.94 255.934 163.119 255.181 163.119C254.425 163.119 253.751 162.94 253.157 162.582C252.566 162.222 252.1 161.706 251.759 161.036C251.418 160.365 251.248 159.565 251.248 158.636C251.248 157.705 251.418 156.905 251.759 156.237C252.1 155.567 252.566 155.053 253.157 154.695C253.751 154.334 254.425 154.153 255.181 154.153C255.934 154.153 256.606 154.334 257.197 154.695C257.79 155.053 258.258 155.567 258.599 156.237C258.94 156.905 259.11 157.705 259.11 158.636ZM257.806 158.636C257.806 157.926 257.691 157.328 257.461 156.842C257.234 156.354 256.921 155.984 256.523 155.734C256.129 155.482 255.681 155.355 255.181 155.355C254.678 155.355 254.229 155.482 253.835 155.734C253.44 155.984 253.127 156.354 252.897 156.842C252.67 157.328 252.556 157.926 252.556 158.636C252.556 159.347 252.67 159.946 252.897 160.435C253.127 160.92 253.44 161.29 253.835 161.543C254.229 161.793 254.678 161.918 255.181 161.918C255.681 161.918 256.129 161.793 256.523 161.543C256.921 161.29 257.234 160.92 257.461 160.435C257.691 159.946 257.806 159.347 257.806 158.636ZM260.752 154.273H262.35L265.128 161.057H265.23L268.009 154.273H269.607V163H268.354V156.685H268.273L265.699 162.987H264.659L262.086 156.68H262.005V163H260.752V154.273ZM271.521 163V154.273H274.632C275.311 154.273 275.874 154.396 276.32 154.643C276.766 154.891 277.099 155.229 277.321 155.658C277.543 156.084 277.653 156.564 277.653 157.098C277.653 157.635 277.541 158.118 277.317 158.547C277.095 158.973 276.76 159.311 276.311 159.561C275.865 159.808 275.304 159.932 274.628 159.932H272.489V158.815H274.509C274.938 158.815 275.286 158.741 275.553 158.594C275.82 158.443 276.016 158.239 276.141 157.98C276.266 157.722 276.328 157.428 276.328 157.098C276.328 156.768 276.266 156.476 276.141 156.22C276.016 155.964 275.818 155.764 275.548 155.619C275.281 155.474 274.929 155.402 274.491 155.402H272.838V163H271.521ZM279.197 163V154.273H280.514V161.866H284.468V163H279.197ZM285.971 163V154.273H291.442V155.406H287.287V158.065H291.157V159.195H287.287V161.866H291.493V163H285.971ZM292.771 155.406V154.273H299.525V155.406H296.802V163H295.489V155.406H292.771ZM301.017 163V154.273H306.489V155.406H302.334V158.065H306.203V159.195H302.334V161.866H306.54V163H301.017Z" fill="#B4BEC8"/>
<path d="M268.488 176.909V190H266.116V179.217H266.04L262.978 181.173V178.999L266.232 176.909H268.488ZM276.51 190.179C275.589 190.179 274.771 190.021 274.055 189.706C273.344 189.391 272.781 188.952 272.368 188.389C271.955 187.827 271.735 187.177 271.71 186.44H274.113C274.134 186.793 274.251 187.102 274.464 187.366C274.678 187.626 274.961 187.829 275.315 187.974C275.668 188.119 276.065 188.191 276.504 188.191C276.972 188.191 277.388 188.11 277.75 187.948C278.112 187.782 278.396 187.552 278.6 187.258C278.805 186.964 278.905 186.625 278.901 186.241C278.905 185.845 278.803 185.496 278.594 185.193C278.385 184.891 278.082 184.654 277.686 184.484C277.294 184.313 276.821 184.228 276.267 184.228H275.11V182.4H276.267C276.723 182.4 277.121 182.321 277.462 182.163C277.808 182.006 278.078 181.784 278.274 181.499C278.47 181.209 278.566 180.874 278.562 180.495C278.566 180.124 278.483 179.803 278.312 179.53C278.146 179.253 277.91 179.038 277.603 178.884C277.3 178.731 276.945 178.654 276.536 178.654C276.135 178.654 275.764 178.727 275.423 178.871C275.082 179.016 274.808 179.223 274.599 179.491C274.39 179.756 274.279 180.071 274.266 180.438H271.984C272.001 179.705 272.212 179.061 272.617 178.507C273.026 177.949 273.572 177.514 274.254 177.203C274.935 176.888 275.7 176.73 276.548 176.73C277.422 176.73 278.18 176.894 278.824 177.222C279.472 177.546 279.972 177.983 280.326 178.533C280.68 179.082 280.857 179.69 280.857 180.354C280.861 181.092 280.643 181.71 280.205 182.208C279.77 182.707 279.199 183.033 278.491 183.186V183.288C279.412 183.416 280.117 183.757 280.607 184.311C281.102 184.861 281.347 185.545 281.342 186.363C281.342 187.096 281.134 187.752 280.716 188.332C280.303 188.907 279.732 189.359 279.003 189.687C278.278 190.015 277.447 190.179 276.51 190.179ZM284.987 188.428C284.6 188.428 284.267 188.291 283.99 188.018C283.713 187.741 283.577 187.409 283.581 187.021C283.577 186.638 283.713 186.31 283.99 186.037C284.267 185.764 284.6 185.628 284.987 185.628C285.362 185.628 285.688 185.764 285.965 186.037C286.247 186.31 286.389 186.638 286.394 187.021C286.389 187.281 286.321 187.518 286.189 187.731C286.061 187.944 285.891 188.114 285.678 188.242C285.469 188.366 285.239 188.428 284.987 188.428ZM284.987 181.94C284.6 181.94 284.267 181.803 283.99 181.531C283.713 181.254 283.577 180.921 283.581 180.533C283.577 180.15 283.713 179.822 283.99 179.549C284.267 179.272 284.6 179.134 284.987 179.134C285.362 179.134 285.688 179.272 285.965 179.549C286.247 179.822 286.389 180.15 286.394 180.533C286.389 180.789 286.321 181.023 286.189 181.237C286.061 181.45 285.891 181.62 285.678 181.748C285.469 181.876 285.239 181.94 284.987 181.94ZM288.757 190V188.287L293.302 183.832C293.737 183.393 294.099 183.003 294.388 182.662C294.678 182.321 294.896 181.991 295.04 181.671C295.185 181.352 295.258 181.011 295.258 180.648C295.258 180.235 295.164 179.881 294.977 179.587C294.789 179.289 294.531 179.059 294.203 178.897C293.875 178.735 293.502 178.654 293.085 178.654C292.654 178.654 292.277 178.744 291.953 178.923C291.629 179.097 291.378 179.347 291.199 179.67C291.024 179.994 290.937 180.38 290.937 180.827H288.68C288.68 179.996 288.87 179.274 289.249 178.661C289.629 178.047 290.151 177.572 290.815 177.235C291.484 176.898 292.251 176.73 293.116 176.73C293.994 176.73 294.766 176.894 295.43 177.222C296.095 177.55 296.611 178 296.977 178.571C297.348 179.142 297.533 179.794 297.533 180.527C297.533 181.017 297.44 181.499 297.252 181.972C297.065 182.445 296.734 182.969 296.261 183.544C295.793 184.119 295.134 184.816 294.286 185.634L292.03 187.929V188.018H297.732V190H288.757ZM305.261 176.909V190H302.89V179.217H302.813L299.751 181.173V178.999L303.005 176.909H305.261Z" fill="#FAFAFA"/>
<rect x="20" y="213" width="288" height="52" rx="8" fill="#1779DA"/>
<path d="M107.608 237.29H105.483C105.422 236.941 105.311 236.633 105.148 236.364C104.985 236.091 104.782 235.86 104.54 235.67C104.297 235.481 104.021 235.339 103.71 235.244C103.403 235.146 103.072 235.097 102.716 235.097C102.083 235.097 101.523 235.256 101.034 235.574C100.545 235.888 100.163 236.35 99.8864 236.96C99.6098 237.566 99.4716 238.307 99.4716 239.182C99.4716 240.072 99.6098 240.822 99.8864 241.432C100.167 242.038 100.549 242.496 101.034 242.807C101.523 243.114 102.081 243.267 102.71 243.267C103.059 243.267 103.384 243.222 103.688 243.131C103.994 243.036 104.269 242.898 104.511 242.716C104.758 242.534 104.964 242.311 105.131 242.045C105.301 241.78 105.419 241.477 105.483 241.136L107.608 241.148C107.528 241.701 107.356 242.22 107.091 242.705C106.83 243.189 106.487 243.617 106.062 243.989C105.638 244.356 105.142 244.644 104.574 244.852C104.006 245.057 103.375 245.159 102.682 245.159C101.659 245.159 100.746 244.922 99.9432 244.449C99.1402 243.975 98.5076 243.292 98.0455 242.398C97.5833 241.504 97.3523 240.432 97.3523 239.182C97.3523 237.928 97.5852 236.856 98.0511 235.966C98.517 235.072 99.1515 234.388 99.9545 233.915C100.758 233.441 101.667 233.205 102.682 233.205C103.33 233.205 103.932 233.295 104.489 233.477C105.045 233.659 105.542 233.926 105.977 234.278C106.413 234.627 106.771 235.055 107.051 235.562C107.335 236.066 107.521 236.642 107.608 237.29ZM111.504 233.364V245H109.447V233.364H111.504ZM117.426 245.17C116.574 245.17 115.835 244.983 115.21 244.608C114.585 244.233 114.1 243.708 113.756 243.034C113.415 242.36 113.244 241.572 113.244 240.67C113.244 239.769 113.415 238.979 113.756 238.301C114.1 237.623 114.585 237.097 115.21 236.722C115.835 236.347 116.574 236.159 117.426 236.159C118.278 236.159 119.017 236.347 119.642 236.722C120.267 237.097 120.75 237.623 121.091 238.301C121.436 238.979 121.608 239.769 121.608 240.67C121.608 241.572 121.436 242.36 121.091 243.034C120.75 243.708 120.267 244.233 119.642 244.608C119.017 244.983 118.278 245.17 117.426 245.17ZM117.438 243.523C117.9 243.523 118.286 243.396 118.597 243.142C118.907 242.884 119.138 242.54 119.29 242.108C119.445 241.676 119.523 241.195 119.523 240.665C119.523 240.131 119.445 239.648 119.29 239.216C119.138 238.78 118.907 238.434 118.597 238.176C118.286 237.919 117.9 237.79 117.438 237.79C116.964 237.79 116.57 237.919 116.256 238.176C115.945 238.434 115.712 238.78 115.557 239.216C115.405 239.648 115.33 240.131 115.33 240.665C115.33 241.195 115.405 241.676 115.557 242.108C115.712 242.54 115.945 242.884 116.256 243.142C116.57 243.396 116.964 243.523 117.438 243.523ZM130.251 238.58L128.376 238.784C128.323 238.595 128.231 238.417 128.098 238.25C127.969 238.083 127.795 237.949 127.575 237.847C127.356 237.744 127.087 237.693 126.768 237.693C126.34 237.693 125.981 237.786 125.689 237.972C125.401 238.157 125.259 238.398 125.263 238.693C125.259 238.947 125.352 239.153 125.541 239.312C125.734 239.472 126.053 239.602 126.496 239.705L127.984 240.023C128.81 240.201 129.424 240.483 129.825 240.869C130.231 241.256 130.435 241.761 130.439 242.386C130.435 242.936 130.274 243.42 129.956 243.841C129.642 244.258 129.204 244.583 128.643 244.818C128.083 245.053 127.439 245.17 126.712 245.17C125.643 245.17 124.784 244.947 124.132 244.5C123.481 244.049 123.092 243.422 122.967 242.619L124.973 242.426C125.064 242.82 125.257 243.117 125.553 243.318C125.848 243.519 126.232 243.619 126.706 243.619C127.195 243.619 127.587 243.519 127.882 243.318C128.181 243.117 128.331 242.869 128.331 242.574C128.331 242.324 128.234 242.117 128.041 241.955C127.852 241.792 127.556 241.667 127.155 241.58L125.666 241.267C124.829 241.093 124.21 240.799 123.808 240.386C123.407 239.97 123.208 239.443 123.212 238.807C123.208 238.269 123.354 237.803 123.649 237.409C123.948 237.011 124.363 236.705 124.893 236.489C125.428 236.269 126.043 236.159 126.74 236.159C127.763 236.159 128.568 236.377 129.155 236.812C129.746 237.248 130.111 237.837 130.251 238.58ZM135.999 245.17C135.124 245.17 134.368 244.989 133.732 244.625C133.099 244.258 132.612 243.739 132.271 243.068C131.93 242.394 131.76 241.6 131.76 240.688C131.76 239.79 131.93 239.002 132.271 238.324C132.616 237.642 133.097 237.112 133.714 236.733C134.332 236.35 135.057 236.159 135.891 236.159C136.429 236.159 136.936 236.246 137.413 236.42C137.894 236.591 138.319 236.856 138.686 237.216C139.057 237.576 139.349 238.034 139.561 238.591C139.773 239.144 139.879 239.803 139.879 240.568V241.199H132.726V239.812H137.908C137.904 239.419 137.819 239.068 137.652 238.761C137.485 238.451 137.252 238.206 136.953 238.028C136.658 237.85 136.313 237.761 135.919 237.761C135.499 237.761 135.129 237.864 134.811 238.068C134.493 238.269 134.245 238.534 134.067 238.864C133.893 239.189 133.804 239.547 133.8 239.938V241.148C133.8 241.655 133.893 242.091 134.078 242.455C134.264 242.814 134.523 243.091 134.857 243.284C135.19 243.473 135.58 243.568 136.027 243.568C136.326 243.568 136.597 243.527 136.839 243.443C137.082 243.356 137.292 243.229 137.47 243.062C137.648 242.896 137.783 242.689 137.874 242.443L139.794 242.659C139.673 243.167 139.442 243.61 139.101 243.989C138.764 244.364 138.332 244.655 137.805 244.864C137.279 245.068 136.677 245.17 135.999 245.17ZM149.946 236.273V237.864H144.929V236.273H149.946ZM146.168 234.182H148.224V242.375C148.224 242.652 148.266 242.864 148.349 243.011C148.437 243.155 148.55 243.254 148.69 243.307C148.83 243.36 148.986 243.386 149.156 243.386C149.285 243.386 149.402 243.377 149.509 243.358C149.618 243.339 149.702 243.322 149.759 243.307L150.105 244.915C149.995 244.953 149.838 244.994 149.634 245.04C149.433 245.085 149.187 245.112 148.895 245.119C148.38 245.134 147.916 245.057 147.503 244.886C147.09 244.712 146.762 244.443 146.52 244.08C146.281 243.716 146.164 243.261 146.168 242.716V234.182ZM157.229 241.33V236.273H159.286V245H157.291V243.449H157.2C157.003 243.937 156.679 244.337 156.229 244.648C155.782 244.958 155.231 245.114 154.575 245.114C154.003 245.114 153.498 244.987 153.058 244.733C152.623 244.475 152.282 244.102 152.036 243.614C151.789 243.121 151.666 242.527 151.666 241.83V236.273H153.723V241.511C153.723 242.064 153.875 242.504 154.178 242.83C154.481 243.155 154.878 243.318 155.371 243.318C155.674 243.318 155.967 243.244 156.251 243.097C156.536 242.949 156.768 242.729 156.95 242.438C157.136 242.142 157.229 241.773 157.229 241.33ZM161.401 245V236.273H163.395V237.727H163.486C163.645 237.223 163.918 236.835 164.304 236.562C164.694 236.286 165.139 236.148 165.639 236.148C165.753 236.148 165.88 236.153 166.02 236.165C166.164 236.172 166.283 236.186 166.378 236.205V238.097C166.291 238.066 166.152 238.04 165.963 238.017C165.777 237.991 165.598 237.977 165.423 237.977C165.048 237.977 164.711 238.059 164.412 238.222C164.116 238.381 163.884 238.602 163.713 238.886C163.543 239.17 163.457 239.498 163.457 239.869V245H161.401ZM169.801 239.886V245H167.744V236.273H169.71V237.756H169.812C170.013 237.267 170.333 236.879 170.773 236.591C171.216 236.303 171.763 236.159 172.415 236.159C173.017 236.159 173.542 236.288 173.989 236.545C174.439 236.803 174.788 237.176 175.034 237.665C175.284 238.153 175.407 238.746 175.403 239.443V245H173.347V239.761C173.347 239.178 173.195 238.722 172.892 238.392C172.593 238.062 172.178 237.898 171.648 237.898C171.288 237.898 170.968 237.977 170.688 238.136C170.411 238.292 170.193 238.517 170.034 238.812C169.879 239.108 169.801 239.466 169.801 239.886ZM180.006 245.176C179.453 245.176 178.955 245.078 178.511 244.881C178.072 244.68 177.723 244.384 177.466 243.994C177.212 243.604 177.085 243.123 177.085 242.551C177.085 242.059 177.176 241.652 177.358 241.33C177.54 241.008 177.788 240.75 178.102 240.557C178.417 240.364 178.771 240.218 179.165 240.119C179.563 240.017 179.973 239.943 180.398 239.898C180.909 239.845 181.324 239.797 181.642 239.756C181.96 239.71 182.191 239.642 182.335 239.551C182.483 239.456 182.557 239.311 182.557 239.114V239.08C182.557 238.652 182.43 238.32 182.176 238.085C181.922 237.85 181.557 237.733 181.08 237.733C180.576 237.733 180.176 237.843 179.881 238.062C179.589 238.282 179.392 238.542 179.29 238.841L177.369 238.568C177.521 238.038 177.771 237.595 178.119 237.239C178.468 236.879 178.894 236.61 179.398 236.432C179.902 236.25 180.458 236.159 181.068 236.159C181.489 236.159 181.907 236.208 182.324 236.307C182.741 236.405 183.121 236.568 183.466 236.795C183.811 237.019 184.087 237.324 184.295 237.71C184.508 238.097 184.614 238.58 184.614 239.159V245H182.636V243.801H182.568C182.443 244.044 182.267 244.271 182.04 244.483C181.816 244.691 181.534 244.86 181.193 244.989C180.856 245.114 180.46 245.176 180.006 245.176ZM180.54 243.665C180.953 243.665 181.311 243.583 181.614 243.42C181.917 243.254 182.15 243.034 182.312 242.761C182.479 242.489 182.562 242.191 182.562 241.869V240.841C182.498 240.894 182.388 240.943 182.233 240.989C182.081 241.034 181.911 241.074 181.722 241.108C181.532 241.142 181.345 241.172 181.159 241.199C180.973 241.225 180.813 241.248 180.676 241.267C180.369 241.309 180.095 241.377 179.852 241.472C179.61 241.566 179.419 241.699 179.278 241.869C179.138 242.036 179.068 242.252 179.068 242.517C179.068 242.896 179.206 243.182 179.483 243.375C179.759 243.568 180.112 243.665 180.54 243.665ZM186.682 245V236.273H188.676V237.727H188.767C188.926 237.223 189.199 236.835 189.585 236.562C189.975 236.286 190.42 236.148 190.92 236.148C191.034 236.148 191.161 236.153 191.301 236.165C191.445 236.172 191.564 236.186 191.659 236.205V238.097C191.572 238.066 191.434 238.04 191.244 238.017C191.059 237.991 190.879 237.977 190.705 237.977C190.33 237.977 189.992 238.059 189.693 238.222C189.398 238.381 189.165 238.602 188.994 238.886C188.824 239.17 188.739 239.498 188.739 239.869V245H186.682ZM196.473 245.17C195.621 245.17 194.882 244.983 194.257 244.608C193.632 244.233 193.147 243.708 192.803 243.034C192.462 242.36 192.291 241.572 192.291 240.67C192.291 239.769 192.462 238.979 192.803 238.301C193.147 237.623 193.632 237.097 194.257 236.722C194.882 236.347 195.621 236.159 196.473 236.159C197.325 236.159 198.064 236.347 198.689 236.722C199.314 237.097 199.797 237.623 200.138 238.301C200.482 238.979 200.655 239.769 200.655 240.67C200.655 241.572 200.482 242.36 200.138 243.034C199.797 243.708 199.314 244.233 198.689 244.608C198.064 244.983 197.325 245.17 196.473 245.17ZM196.484 243.523C196.946 243.523 197.333 243.396 197.643 243.142C197.954 242.884 198.185 242.54 198.337 242.108C198.492 241.676 198.57 241.195 198.57 240.665C198.57 240.131 198.492 239.648 198.337 239.216C198.185 238.78 197.954 238.434 197.643 238.176C197.333 237.919 196.946 237.79 196.484 237.79C196.011 237.79 195.617 237.919 195.303 238.176C194.992 238.434 194.759 238.78 194.604 239.216C194.452 239.648 194.376 240.131 194.376 240.665C194.376 241.195 194.452 241.676 194.604 242.108C194.759 242.54 194.992 242.884 195.303 243.142C195.617 243.396 196.011 243.523 196.484 243.523ZM207.963 241.33V236.273H210.02V245H208.026V243.449H207.935C207.738 243.937 207.414 244.337 206.963 244.648C206.516 244.958 205.965 245.114 205.31 245.114C204.738 245.114 204.232 244.987 203.793 244.733C203.357 244.475 203.016 244.102 202.77 243.614C202.524 243.121 202.401 242.527 202.401 241.83V236.273H204.457V241.511C204.457 242.064 204.609 242.504 204.912 242.83C205.215 243.155 205.613 243.318 206.105 243.318C206.408 243.318 206.702 243.244 206.986 243.097C207.27 242.949 207.503 242.729 207.685 242.438C207.87 242.142 207.963 241.773 207.963 241.33ZM214.192 239.886V245H212.135V236.273H214.101V237.756H214.203C214.404 237.267 214.724 236.879 215.163 236.591C215.607 236.303 216.154 236.159 216.805 236.159C217.408 236.159 217.932 236.288 218.379 236.545C218.83 236.803 219.179 237.176 219.425 237.665C219.675 238.153 219.798 238.746 219.794 239.443V245H217.737V239.761C217.737 239.178 217.586 238.722 217.283 238.392C216.983 238.062 216.569 237.898 216.038 237.898C215.679 237.898 215.358 237.977 215.078 238.136C214.802 238.292 214.584 238.517 214.425 238.812C214.269 239.108 214.192 239.466 214.192 239.886ZM225.124 245.153C224.438 245.153 223.824 244.977 223.283 244.625C222.741 244.273 222.313 243.761 221.999 243.091C221.684 242.42 221.527 241.606 221.527 240.648C221.527 239.678 221.686 238.86 222.004 238.193C222.326 237.523 222.76 237.017 223.305 236.676C223.851 236.331 224.459 236.159 225.129 236.159C225.641 236.159 226.061 236.246 226.391 236.42C226.72 236.591 226.982 236.797 227.175 237.04C227.368 237.278 227.518 237.504 227.624 237.716H227.709V233.364H229.771V245H227.749V243.625H227.624C227.518 243.837 227.364 244.062 227.163 244.301C226.963 244.536 226.697 244.737 226.368 244.903C226.038 245.07 225.624 245.153 225.124 245.153ZM225.697 243.466C226.133 243.466 226.504 243.348 226.811 243.114C227.118 242.875 227.351 242.544 227.51 242.119C227.669 241.695 227.749 241.201 227.749 240.636C227.749 240.072 227.669 239.581 227.51 239.165C227.355 238.748 227.124 238.424 226.817 238.193C226.514 237.962 226.141 237.847 225.697 237.847C225.239 237.847 224.857 237.966 224.55 238.205C224.243 238.443 224.012 238.773 223.857 239.193C223.701 239.614 223.624 240.095 223.624 240.636C223.624 241.182 223.701 241.669 223.857 242.097C224.016 242.521 224.249 242.856 224.555 243.102C224.866 243.345 225.247 243.466 225.697 243.466Z" fill="#FAFAFA"/>
<defs>
<linearGradient id="paint0_linear_26899_627327" x1="32.2022" y1="44" x2="32.2022" y2="24" gradientUnits="userSpaceOnUse">
<stop stop-color="#181D29" stop-opacity="0.9"/>
<stop offset="1" stop-color="#2B3851" stop-opacity="0.85"/>
</linearGradient>
<clipPath id="clip0_26899_627327">
<rect width="24.4045" height="20" fill="white" transform="translate(20 24)"/>
</clipPath>
<clipPath id="clip1_26899_627327">
<rect width="288" height="2" fill="white" transform="translate(20 82)"/>
</clipPath>
<clipPath id="clip2_26899_627327">
<rect x="20" y="100" width="117" height="26" rx="3.97506" fill="white"/>
</clipPath>
</defs>
</svg>
