<svg width="328" height="279" viewBox="0 0 328 279" fill="none" xmlns="http://www.w3.org/2000/svg">
<rect x="0.5" y="0.5" width="327" height="278" rx="11.5" fill="#2E3748"/>
<rect x="0.5" y="0.5" width="327" height="278" rx="11.5" stroke="#475161" stroke-linecap="round"/>
<mask id="path-2-inside-1_25287_589682" fill="white">
<path d="M0 20H328V88H0V20Z"/>
</mask>
<path d="M328 88V87H0V88V89H328V88Z" fill="#3B4555" mask="url(#path-2-inside-1_25287_589682)"/>
<path d="M21.2912 41V27.9091H23.6626V39.0121H29.4283V41H21.2912ZM34.2095 41.1982C33.5874 41.1982 33.027 41.0874 32.5284 40.8658C32.0341 40.6399 31.642 40.3075 31.3523 39.8686C31.0668 39.4297 30.924 38.8885 30.924 38.245C30.924 37.6911 31.0263 37.233 31.2308 36.8707C31.4354 36.5085 31.7145 36.2188 32.0682 36.0014C32.4219 35.7841 32.8203 35.62 33.2635 35.5092C33.7109 35.3942 34.1733 35.3111 34.6506 35.2599C35.2259 35.2003 35.6925 35.147 36.0504 35.1001C36.4084 35.049 36.6683 34.9723 36.8303 34.87C36.9964 34.7635 37.0795 34.5994 37.0795 34.3778V34.3395C37.0795 33.858 36.9368 33.4851 36.6513 33.2209C36.3658 32.9567 35.9545 32.8246 35.4176 32.8246C34.8509 32.8246 34.4013 32.9482 34.0689 33.1953C33.7408 33.4425 33.5192 33.7344 33.4041 34.071L31.2436 33.7642C31.4141 33.1676 31.6953 32.669 32.0874 32.2685C32.4794 31.8636 32.9588 31.5611 33.5256 31.3608C34.0923 31.1562 34.7188 31.054 35.4048 31.054C35.8778 31.054 36.3487 31.1094 36.8175 31.2202C37.2862 31.331 37.7145 31.5142 38.1023 31.7699C38.4901 32.0213 38.8011 32.3643 39.0355 32.799C39.2741 33.2337 39.3935 33.777 39.3935 34.429V41H37.169V39.6513H37.0923C36.9517 39.924 36.7536 40.1797 36.4979 40.4183C36.2464 40.6527 35.929 40.8423 35.5455 40.9872C35.1662 41.1278 34.7209 41.1982 34.2095 41.1982ZM34.8104 39.4979C35.2749 39.4979 35.6776 39.4062 36.0185 39.223C36.3594 39.0355 36.6214 38.7884 36.8047 38.4815C36.9922 38.1747 37.0859 37.8402 37.0859 37.478V36.321C37.0135 36.3807 36.8899 36.4361 36.7152 36.4872C36.5447 36.5384 36.353 36.5831 36.1399 36.6214C35.9268 36.6598 35.7159 36.6939 35.5071 36.7237C35.2983 36.7536 35.1172 36.7791 34.9638 36.8004C34.6186 36.8473 34.3097 36.924 34.0369 37.0305C33.7642 37.1371 33.549 37.2862 33.3913 37.478C33.2337 37.6655 33.1548 37.9084 33.1548 38.2067C33.1548 38.6328 33.3104 38.9545 33.6214 39.1719C33.9325 39.3892 34.3288 39.4979 34.8104 39.4979ZM49.4801 33.777L47.3707 34.0071C47.3111 33.794 47.2067 33.5938 47.0575 33.4062C46.9126 33.2188 46.7166 33.0675 46.4695 32.9524C46.2223 32.8374 45.9197 32.7798 45.5618 32.7798C45.0803 32.7798 44.6754 32.8842 44.3473 33.093C44.0234 33.3018 43.8636 33.5724 43.8679 33.9048C43.8636 34.1903 43.968 34.4226 44.1811 34.6016C44.3984 34.7805 44.7564 34.9276 45.255 35.0426L46.9297 35.4006C47.8587 35.6009 48.549 35.9183 49.0007 36.353C49.4567 36.7876 49.6868 37.3565 49.6911 38.0597C49.6868 38.6776 49.5057 39.223 49.1477 39.696C48.794 40.1648 48.3018 40.5312 47.6712 40.7955C47.0405 41.0597 46.3161 41.1918 45.4979 41.1918C44.2962 41.1918 43.3288 40.9403 42.5959 40.4375C41.8629 39.9304 41.4261 39.2251 41.2855 38.3217L43.5419 38.1044C43.6442 38.5476 43.8615 38.8821 44.1939 39.108C44.5263 39.3338 44.9588 39.4467 45.4915 39.4467C46.0412 39.4467 46.4822 39.3338 46.8146 39.108C47.1513 38.8821 47.3196 38.603 47.3196 38.2706C47.3196 37.9893 47.2109 37.7571 46.9936 37.5739C46.7805 37.3906 46.4482 37.25 45.9964 37.152L44.3217 36.8004C43.38 36.6044 42.6832 36.2741 42.2315 35.8097C41.7798 35.3409 41.5561 34.7486 41.5604 34.0327C41.5561 33.4276 41.7202 32.9034 42.0526 32.4602C42.3892 32.0128 42.8558 31.6676 43.4524 31.4247C44.0533 31.1776 44.7457 31.054 45.5298 31.054C46.6804 31.054 47.5859 31.299 48.2464 31.7891C48.9112 32.2791 49.3224 32.9418 49.4801 33.777ZM56.5018 31.1818V32.9716H50.8576V31.1818H56.5018ZM52.2511 28.8295H54.565V38.0469C54.565 38.358 54.6119 38.5966 54.7056 38.7628C54.8036 38.9247 54.9315 39.0355 55.0891 39.0952C55.2468 39.1548 55.4215 39.1847 55.6133 39.1847C55.7582 39.1847 55.8903 39.174 56.0096 39.1527C56.1332 39.1314 56.2269 39.1122 56.2908 39.0952L56.6808 40.9041C56.5572 40.9467 56.3803 40.9936 56.1502 41.0447C55.9244 41.0959 55.6474 41.1257 55.3192 41.1342C54.7397 41.1513 54.2177 41.0639 53.7532 40.8722C53.2887 40.6761 52.9201 40.3736 52.6474 39.9645C52.3789 39.5554 52.2468 39.044 52.2511 38.4304V28.8295ZM63.0041 41V27.9091H65.318V32.8054H65.4139C65.5332 32.5668 65.7015 32.3132 65.9189 32.0447C66.1362 31.772 66.4302 31.5398 66.801 31.348C67.1717 31.152 67.6447 31.054 68.22 31.054C68.9785 31.054 69.6625 31.2479 70.2718 31.6357C70.8855 32.0192 71.3713 32.5881 71.7292 33.3423C72.0914 34.0923 72.2726 35.0128 72.2726 36.1037C72.2726 37.1818 72.0957 38.098 71.742 38.8523C71.3883 39.6065 70.9068 40.1818 70.2974 40.5781C69.688 40.9744 68.9977 41.1726 68.2264 41.1726C67.6639 41.1726 67.1973 41.0788 66.8265 40.8913C66.4558 40.7038 66.1575 40.478 65.9316 40.2138C65.71 39.9453 65.5375 39.6918 65.4139 39.4531H65.2797V41H63.0041ZM65.2733 36.0909C65.2733 36.7259 65.3627 37.282 65.5417 37.7592C65.725 38.2365 65.987 38.6094 66.3279 38.8778C66.6731 39.142 67.0907 39.2741 67.5808 39.2741C68.0922 39.2741 68.5204 39.1378 68.8656 38.8651C69.2108 38.5881 69.4707 38.2109 69.6454 37.7337C69.8244 37.2521 69.9139 36.7045 69.9139 36.0909C69.9139 35.4815 69.8265 34.9403 69.6518 34.4673C69.4771 33.9943 69.2172 33.6236 68.872 33.3551C68.5268 33.0866 68.0964 32.9524 67.5808 32.9524C67.0865 32.9524 66.6667 33.0824 66.3216 33.3423C65.9764 33.6023 65.7143 33.9666 65.5353 34.4354C65.3606 34.9041 65.2733 35.456 65.2733 36.0909ZM77.065 41.1982C76.4428 41.1982 75.8825 41.0874 75.3839 40.8658C74.8896 40.6399 74.4975 40.3075 74.2077 39.8686C73.9222 39.4297 73.7795 38.8885 73.7795 38.245C73.7795 37.6911 73.8817 37.233 74.0863 36.8707C74.2908 36.5085 74.57 36.2188 74.9237 36.0014C75.2773 35.7841 75.6758 35.62 76.119 35.5092C76.5664 35.3942 77.0288 35.3111 77.506 35.2599C78.0813 35.2003 78.5479 35.147 78.9059 35.1001C79.2638 35.049 79.5238 34.9723 79.6857 34.87C79.8519 34.7635 79.935 34.5994 79.935 34.3778V34.3395C79.935 33.858 79.7923 33.4851 79.5067 33.2209C79.2212 32.9567 78.81 32.8246 78.2731 32.8246C77.7063 32.8246 77.2567 32.9482 76.9244 33.1953C76.5962 33.4425 76.3746 33.7344 76.2596 34.071L74.0991 33.7642C74.2695 33.1676 74.5508 32.669 74.9428 32.2685C75.3349 31.8636 75.8143 31.5611 76.381 31.3608C76.9478 31.1562 77.5742 31.054 78.2603 31.054C78.7333 31.054 79.2042 31.1094 79.6729 31.2202C80.1417 31.331 80.57 31.5142 80.9577 31.7699C81.3455 32.0213 81.6566 32.3643 81.891 32.799C82.1296 33.2337 82.2489 33.777 82.2489 34.429V41H80.0245V39.6513H79.9478C79.8072 39.924 79.609 40.1797 79.3533 40.4183C79.1019 40.6527 78.7844 40.8423 78.4009 40.9872C78.0217 41.1278 77.5763 41.1982 77.065 41.1982ZM77.6658 39.4979C78.1303 39.4979 78.533 39.4062 78.8739 39.223C79.2148 39.0355 79.4769 38.7884 79.6602 38.4815C79.8477 38.1747 79.9414 37.8402 79.9414 37.478V36.321C79.869 36.3807 79.7454 36.4361 79.5707 36.4872C79.4002 36.5384 79.2085 36.5831 78.9954 36.6214C78.7823 36.6598 78.5714 36.6939 78.3626 36.7237C78.1538 36.7536 77.9727 36.7791 77.8192 36.8004C77.4741 36.8473 77.1651 36.924 76.8924 37.0305C76.6197 37.1371 76.4045 37.2862 76.2468 37.478C76.0891 37.6655 76.0103 37.9084 76.0103 38.2067C76.0103 38.6328 76.1658 38.9545 76.4769 39.1719C76.788 39.3892 77.1843 39.4979 77.6658 39.4979ZM88.8455 44.8864C88.0146 44.8864 87.3008 44.7734 86.7042 44.5476C86.1076 44.326 85.6282 44.0277 85.266 43.6527C84.9038 43.2777 84.6523 42.8622 84.5117 42.4062L86.5955 41.9013C86.6893 42.093 86.8256 42.2827 87.0046 42.4702C87.1836 42.6619 87.4244 42.8196 87.7269 42.9432C88.0337 43.071 88.4194 43.1349 88.8839 43.1349C89.5401 43.1349 90.0835 42.9751 90.5138 42.6555C90.9442 42.3402 91.1594 41.8203 91.1594 41.0959V39.2358H91.0444C90.9251 39.4744 90.7504 39.7195 90.5202 39.9709C90.2944 40.2223 89.994 40.4332 89.619 40.6037C89.2482 40.7741 88.7816 40.8594 88.2191 40.8594C87.4648 40.8594 86.7809 40.6825 86.1673 40.3288C85.5579 39.9709 85.0721 39.4382 84.7099 38.7308C84.3519 38.0192 84.1729 37.1286 84.1729 36.0589C84.1729 34.9808 84.3519 34.071 84.7099 33.3295C85.0721 32.5838 85.56 32.0192 86.1737 31.6357C86.7873 31.2479 87.4712 31.054 88.2255 31.054C88.8008 31.054 89.2738 31.152 89.6445 31.348C90.0195 31.5398 90.3178 31.772 90.5394 32.0447C90.761 32.3132 90.9293 32.5668 91.0444 32.8054H91.1722V31.1818H93.4542V41.1598C93.4542 41.9993 93.2539 42.6939 92.8533 43.2436C92.4528 43.7933 91.9052 44.2045 91.2106 44.4773C90.516 44.75 89.7276 44.8864 88.8455 44.8864ZM88.8647 39.044C89.3548 39.044 89.7724 38.9247 90.1175 38.6861C90.4627 38.4474 90.7248 38.1044 90.9038 37.657C91.0827 37.2095 91.1722 36.6726 91.1722 36.0462C91.1722 35.4283 91.0827 34.8871 90.9038 34.4226C90.729 33.9581 90.4691 33.598 90.1239 33.3423C89.783 33.0824 89.3633 32.9524 88.8647 32.9524C88.3491 32.9524 87.9187 33.0866 87.5735 33.3551C87.2283 33.6236 86.9684 33.9922 86.7937 34.4609C86.619 34.9254 86.5316 35.4538 86.5316 36.0462C86.5316 36.647 86.619 37.1733 86.7937 37.625C86.9727 38.0724 87.2347 38.4219 87.5799 38.6733C87.9293 38.9205 88.3576 39.044 88.8647 39.044Z" fill="#FAFAFA"/>
<g clip-path="url(#clip0_25287_589682)">
<rect x="20" y="50" width="90" height="26" rx="4" fill="#475161"/>
<path d="M32.6238 68H29.3276V57.8182H32.7282C33.7258 57.8182 34.5826 58.022 35.2985 58.4297C36.0144 58.834 36.5629 59.4157 36.9441 60.1747C37.3285 60.9304 37.5208 61.8369 37.5208 62.8942C37.5208 63.9548 37.3269 64.8662 36.9391 65.6286C36.5546 66.3909 35.9978 66.9775 35.2686 67.3885C34.5395 67.7962 33.6578 68 32.6238 68ZM30.8638 66.6577H32.5392C33.3148 66.6577 33.9595 66.5118 34.4732 66.2202C34.9869 65.9252 35.3714 65.4993 35.6266 64.9425C35.8818 64.3823 36.0094 63.6996 36.0094 62.8942C36.0094 62.0954 35.8818 61.4176 35.6266 60.8608C35.3747 60.304 34.9985 59.8814 34.498 59.593C33.9976 59.3047 33.3761 59.1605 32.6337 59.1605H30.8638V66.6577ZM44.1491 64.8331V60.3636H45.6406V68H44.179V66.6776H44.0994C43.9238 67.0852 43.642 67.425 43.2543 67.6967C42.8698 67.9652 42.3909 68.0994 41.8175 68.0994C41.3269 68.0994 40.8928 67.9917 40.5149 67.7763C40.1404 67.5575 39.8454 67.2344 39.63 66.8068C39.4179 66.3793 39.3118 65.8506 39.3118 65.2209V60.3636H40.7983V65.0419C40.7983 65.5623 40.9425 65.9766 41.2308 66.2848C41.5192 66.593 41.8937 66.7472 42.3544 66.7472C42.6328 66.7472 42.9096 66.6776 43.1847 66.5384C43.4631 66.3991 43.6934 66.1887 43.8757 65.907C44.0613 65.6252 44.1525 65.2673 44.1491 64.8331ZM50.9292 68.1541C50.1768 68.1541 49.5288 67.9934 48.9853 67.6719C48.445 67.3471 48.0274 66.8913 47.7324 66.3047C47.4408 65.7147 47.2949 65.0237 47.2949 64.2315C47.2949 63.4493 47.4408 62.7599 47.7324 62.1634C48.0274 61.5668 48.4384 61.1011 48.9654 60.7663C49.4957 60.4316 50.1155 60.2642 50.8248 60.2642C51.2556 60.2642 51.6732 60.3355 52.0776 60.478C52.4819 60.6205 52.8449 60.8442 53.1664 61.1491C53.4879 61.4541 53.7414 61.8501 53.927 62.3374C54.1126 62.8213 54.2054 63.4096 54.2054 64.1023V64.6293H48.1351V63.5156H52.7488C52.7488 63.1245 52.6692 62.7782 52.5101 62.4766C52.351 62.1716 52.1273 61.9313 51.839 61.7557C51.5539 61.58 51.2192 61.4922 50.8347 61.4922C50.4171 61.4922 50.0525 61.5949 49.7409 61.8004C49.4327 62.0026 49.1941 62.2678 49.025 62.5959C48.8593 62.9207 48.7765 63.2737 48.7765 63.6548V64.5249C48.7765 65.0353 48.8659 65.4695 49.0449 65.8274C49.2272 66.1854 49.4808 66.4588 49.8056 66.6477C50.1304 66.8333 50.5099 66.9261 50.9441 66.9261C51.2258 66.9261 51.4827 66.8864 51.7147 66.8068C51.9467 66.724 52.1472 66.6013 52.3162 66.4389C52.4853 66.2765 52.6145 66.076 52.704 65.8374L54.111 66.0909C53.9983 66.5052 53.7961 66.8681 53.5044 67.1797C53.2161 67.4879 52.8532 67.7282 52.4157 67.9006C51.9815 68.0696 51.486 68.1541 50.9292 68.1541ZM59.5598 68V60.3636H61.0463V68H59.5598ZM60.3105 59.1854C60.052 59.1854 59.83 59.0992 59.6444 58.9268C59.4621 58.7512 59.3709 58.5424 59.3709 58.3004C59.3709 58.0552 59.4621 57.8464 59.6444 57.674C59.83 57.4983 60.052 57.4105 60.3105 57.4105C60.5691 57.4105 60.7895 57.4983 60.9718 57.674C61.1574 57.8464 61.2502 58.0552 61.2502 58.3004C61.2502 58.5424 61.1574 58.7512 60.9718 58.9268C60.7895 59.0992 60.5691 59.1854 60.3105 59.1854ZM64.5327 63.4659V68H63.0462V60.3636H64.473V61.6065H64.5675C64.7431 61.2022 65.0182 60.8774 65.3928 60.6321C65.7706 60.3868 66.2462 60.2642 66.8196 60.2642C67.34 60.2642 67.7957 60.3736 68.1868 60.5923C68.5779 60.8078 68.8812 61.1293 69.0966 61.5568C69.312 61.9844 69.4197 62.513 69.4197 63.1428V68H67.9332V63.3217C67.9332 62.7682 67.7891 62.3357 67.5007 62.0241C67.2124 61.7093 66.8163 61.5518 66.3125 61.5518C65.9678 61.5518 65.6612 61.6264 65.3928 61.7756C65.1276 61.9247 64.9171 62.1435 64.7614 62.4318C64.6089 62.7169 64.5327 63.0616 64.5327 63.4659ZM78.9615 57.8182V68H77.4203V59.3594H77.3606L74.9245 60.9503V59.4787L77.465 57.8182H78.9615ZM85.0765 68.1392C84.4534 68.1392 83.8933 68.0199 83.3961 67.7812C82.9023 67.5393 82.5079 67.2079 82.2129 66.7869C81.9179 66.366 81.7605 65.8854 81.7406 65.3452H83.2321C83.2685 65.7827 83.4624 66.1423 83.8137 66.424C84.1651 66.7057 84.586 66.8466 85.0765 66.8466C85.4676 66.8466 85.814 66.7571 86.1156 66.5781C86.4205 66.3958 86.6592 66.1456 86.8315 65.8274C87.0072 65.5092 87.095 65.1463 87.095 64.7386C87.095 64.3243 87.0055 63.9548 86.8265 63.63C86.6476 63.3052 86.4006 63.05 86.0858 62.8643C85.7742 62.6787 85.4163 62.5843 85.0119 62.581C84.7037 62.581 84.3938 62.634 84.0822 62.7401C83.7707 62.8461 83.5188 62.9853 83.3265 63.1577L81.9196 62.9489L82.4913 57.8182H88.0893V59.1357H83.769L83.4458 61.9844H83.5055C83.7044 61.7921 83.9679 61.6314 84.296 61.5021C84.6274 61.3729 84.9821 61.3082 85.3599 61.3082C85.9797 61.3082 86.5315 61.4557 87.0154 61.7507C87.5027 62.0457 87.8855 62.4484 88.1639 62.9588C88.4456 63.4659 88.5848 64.0492 88.5815 64.7088C88.5848 65.3684 88.4357 65.9567 88.1341 66.4737C87.8358 66.9908 87.4215 67.3984 86.8912 67.6967C86.3642 67.9917 85.7593 68.1392 85.0765 68.1392ZM90.4173 68V60.3636H91.8441V61.6065H91.9386C92.0977 61.1856 92.3578 60.8575 92.7191 60.6222C93.0804 60.3835 93.5129 60.2642 94.0167 60.2642C94.5271 60.2642 94.9547 60.3835 95.2994 60.6222C95.6474 60.8608 95.9042 61.1889 96.07 61.6065H96.1495C96.3318 61.1989 96.6218 60.8741 97.0195 60.6321C97.4173 60.3868 97.8912 60.2642 98.4414 60.2642C99.1341 60.2642 99.6992 60.4813 100.137 60.9155C100.578 61.3497 100.798 62.0043 100.798 62.8793V68H99.3114V63.0185C99.3114 62.5014 99.1706 62.1269 98.8888 61.8949C98.6071 61.6629 98.2707 61.5469 97.8796 61.5469C97.3957 61.5469 97.0195 61.696 96.7511 61.9943C96.4826 62.2893 96.3484 62.6688 96.3484 63.1328V68H94.8668V62.924C94.8668 62.5097 94.7376 62.1766 94.479 61.9247C94.2205 61.6728 93.8841 61.5469 93.4698 61.5469C93.1881 61.5469 92.9279 61.6214 92.6893 61.7706C92.454 61.9164 92.2634 62.1203 92.1175 62.3821C91.975 62.6439 91.9038 62.9472 91.9038 63.2919V68H90.4173Z" fill="#FAFAFA"/>
</g>
<path fill-rule="evenodd" clip-rule="evenodd" d="M296 46C291.582 46 288 42.4183 288 38C288 33.5817 291.582 30 296 30C300.418 30 304 33.5817 304 38C304 42.4183 300.418 46 296 46Z" fill="#E4E9EE"/>
<path fill-rule="evenodd" clip-rule="evenodd" d="M295.399 33.3898C295.416 33.1697 295.6 33 295.82 33H295.962C296.179 33 296.36 33.1641 296.383 33.3798L296.801 37.4406L299.782 39.0959C299.917 39.1705 300 39.3121 300 39.4659V39.555C300 39.8327 299.737 40.0352 299.468 39.964L295.314 38.8632C295.116 38.8108 294.984 38.6246 295 38.4207L295.399 33.3898Z" fill="#181D29"/>
<path d="M240.147 64H237.322V55.2727H240.237C241.092 55.2727 241.826 55.4474 242.44 55.7969C243.054 56.1435 243.524 56.642 243.85 57.2926C244.18 57.9403 244.345 58.7173 244.345 59.6236C244.345 60.5327 244.179 61.3139 243.846 61.9673C243.517 62.6207 243.039 63.1236 242.414 63.4759C241.789 63.8253 241.034 64 240.147 64ZM238.639 62.8494H240.075C240.74 62.8494 241.292 62.7244 241.733 62.4744C242.173 62.2216 242.502 61.8565 242.721 61.3793C242.94 60.8991 243.049 60.3139 243.049 59.6236C243.049 58.9389 242.94 58.358 242.721 57.8807C242.505 57.4034 242.183 57.0412 241.754 56.794C241.325 56.5469 240.792 56.4233 240.156 56.4233H238.639V62.8494ZM250.026 61.2855V57.4545H251.305V64H250.052V62.8665H249.984C249.833 63.2159 249.592 63.5071 249.259 63.7401C248.93 63.9702 248.519 64.0852 248.028 64.0852C247.607 64.0852 247.235 63.9929 246.911 63.8082C246.59 63.6207 246.337 63.3438 246.153 62.9773C245.971 62.6108 245.88 62.1577 245.88 61.6179V57.4545H247.154V61.4645C247.154 61.9105 247.278 62.2656 247.525 62.5298C247.772 62.794 248.093 62.9261 248.488 62.9261C248.727 62.9261 248.964 62.8665 249.2 62.7472C249.438 62.6278 249.636 62.4474 249.792 62.206C249.951 61.9645 250.029 61.6577 250.026 61.2855ZM255.838 64.1321C255.193 64.1321 254.637 63.9943 254.172 63.7188C253.708 63.4403 253.35 63.0497 253.098 62.5469C252.848 62.0412 252.723 61.4489 252.723 60.7699C252.723 60.0994 252.848 59.5085 253.098 58.9972C253.35 58.4858 253.703 58.0866 254.154 57.7997C254.609 57.5128 255.14 57.3693 255.748 57.3693C256.118 57.3693 256.475 57.4304 256.822 57.5526C257.169 57.6747 257.48 57.8665 257.755 58.1278C258.031 58.3892 258.248 58.7287 258.407 59.1463C258.566 59.5611 258.646 60.0653 258.646 60.6591V61.1108H253.443V60.1562H257.397C257.397 59.821 257.329 59.5241 257.193 59.2656C257.056 59.0043 256.865 58.7983 256.618 58.6477C256.373 58.4972 256.086 58.4219 255.757 58.4219C255.399 58.4219 255.086 58.5099 254.819 58.6861C254.555 58.8594 254.35 59.0866 254.206 59.3679C254.064 59.6463 253.993 59.9489 253.993 60.2756V61.0213C253.993 61.4588 254.069 61.831 254.223 62.1378C254.379 62.4446 254.596 62.679 254.875 62.8409C255.153 63 255.478 63.0795 255.85 63.0795C256.092 63.0795 256.312 63.0455 256.511 62.9773C256.71 62.9062 256.882 62.8011 257.027 62.6619C257.172 62.5227 257.282 62.3509 257.359 62.1463L258.565 62.3636C258.468 62.7187 258.295 63.0298 258.045 63.2969C257.798 63.5611 257.487 63.767 257.112 63.9148C256.74 64.0597 256.315 64.1321 255.838 64.1321ZM265.14 64.1449C264.725 64.1449 264.35 64.0682 264.015 63.9148C263.68 63.7585 263.414 63.5327 263.218 63.2372C263.025 62.9418 262.929 62.5795 262.929 62.1506C262.929 61.7812 263 61.4773 263.142 61.2386C263.284 61 263.475 60.8111 263.717 60.6719C263.958 60.5327 264.228 60.4276 264.527 60.3565C264.825 60.2855 265.129 60.2315 265.439 60.1946C265.831 60.1491 266.149 60.1122 266.393 60.0838C266.637 60.0526 266.815 60.0028 266.926 59.9347C267.037 59.8665 267.092 59.7557 267.092 59.6023V59.5724C267.092 59.2003 266.987 58.9119 266.777 58.7074C266.569 58.5028 266.26 58.4006 265.848 58.4006C265.419 58.4006 265.081 58.4957 264.833 58.6861C264.589 58.8736 264.42 59.0824 264.326 59.3125L263.129 59.0398C263.271 58.642 263.478 58.321 263.751 58.0767C264.027 57.8295 264.343 57.6506 264.701 57.5398C265.059 57.4261 265.436 57.3693 265.831 57.3693C266.092 57.3693 266.369 57.4006 266.662 57.4631C266.957 57.5227 267.233 57.6335 267.488 57.7955C267.747 57.9574 267.958 58.1889 268.123 58.4901C268.288 58.7884 268.37 59.1761 268.37 59.6534V64H267.126V63.1051H267.075C266.993 63.2699 266.869 63.4318 266.704 63.5909C266.539 63.75 266.328 63.8821 266.069 63.9872C265.811 64.0923 265.501 64.1449 265.14 64.1449ZM265.417 63.1222C265.77 63.1222 266.071 63.0526 266.321 62.9134C266.574 62.7741 266.765 62.5923 266.896 62.3679C267.029 62.1406 267.096 61.8977 267.096 61.6392V60.7955C267.051 60.8409 266.963 60.8835 266.832 60.9233C266.704 60.9602 266.558 60.9929 266.393 61.0213C266.228 61.0469 266.068 61.071 265.912 61.0938C265.755 61.1136 265.625 61.1307 265.52 61.1449C265.272 61.1761 265.047 61.2287 264.842 61.3026C264.64 61.3764 264.478 61.483 264.356 61.6222C264.237 61.7585 264.177 61.9403 264.177 62.1676C264.177 62.483 264.294 62.7216 264.527 62.8835C264.76 63.0426 265.056 63.1222 265.417 63.1222ZM273.123 57.4545V58.4773H269.548V57.4545H273.123ZM270.506 55.8864H271.781V62.0781C271.781 62.3253 271.817 62.5114 271.891 62.6364C271.965 62.7585 272.06 62.8423 272.177 62.8878C272.296 62.9304 272.425 62.9517 272.565 62.9517C272.667 62.9517 272.756 62.9446 272.833 62.9304C272.91 62.9162 272.969 62.9048 273.012 62.8963L273.242 63.9489C273.168 63.9773 273.063 64.0057 272.927 64.0341C272.79 64.0653 272.62 64.0824 272.415 64.0852C272.08 64.0909 271.768 64.0312 271.478 63.9062C271.188 63.7812 270.954 63.5881 270.775 63.3267C270.596 63.0653 270.506 62.7372 270.506 62.3423V55.8864ZM277.691 64V63.0455L280.644 59.9858C280.96 59.6534 281.219 59.3622 281.424 59.1122C281.631 58.8594 281.786 58.6193 281.888 58.392C281.991 58.1648 282.042 57.9233 282.042 57.6676C282.042 57.3778 281.974 57.1278 281.837 56.9176C281.701 56.7045 281.515 56.5412 281.279 56.4276C281.043 56.3111 280.778 56.2528 280.482 56.2528C280.17 56.2528 279.897 56.3168 279.664 56.4446C279.431 56.5724 279.252 56.7528 279.127 56.9858C279.002 57.2187 278.94 57.4915 278.94 57.804H277.683C277.683 57.2727 277.805 56.8082 278.049 56.4105C278.293 56.0128 278.629 55.7045 279.055 55.4858C279.481 55.2642 279.965 55.1534 280.508 55.1534C281.056 55.1534 281.539 55.2628 281.957 55.4815C282.377 55.6974 282.705 55.9929 282.941 56.3679C283.177 56.7401 283.295 57.1605 283.295 57.6293C283.295 57.9531 283.234 58.2699 283.112 58.5795C282.992 58.8892 282.783 59.2344 282.485 59.6151C282.187 59.9929 281.772 60.4517 281.241 60.9915L279.506 62.8068V62.8707H283.435V64H277.691ZM288.362 55.2727V64H287.04V56.5938H286.989L284.901 57.9574V56.696L287.079 55.2727H288.362ZM291.579 62.9176C291.346 62.9176 291.146 62.8352 290.978 62.6705C290.81 62.5028 290.727 62.3011 290.727 62.0653C290.727 61.8324 290.81 61.6335 290.978 61.4688C291.146 61.3011 291.346 61.2173 291.579 61.2173C291.812 61.2173 292.012 61.3011 292.18 61.4688C292.347 61.6335 292.431 61.8324 292.431 62.0653C292.431 62.2216 292.391 62.3651 292.312 62.4957C292.235 62.6236 292.133 62.7259 292.005 62.8026C291.877 62.8793 291.735 62.9176 291.579 62.9176ZM291.579 58.5455C291.346 58.5455 291.146 58.4631 290.978 58.2983C290.81 58.1307 290.727 57.929 290.727 57.6932C290.727 57.4602 290.81 57.2614 290.978 57.0966C291.146 56.929 291.346 56.8452 291.579 56.8452C291.812 56.8452 292.012 56.929 292.18 57.0966C292.347 57.2614 292.431 57.4602 292.431 57.6932C292.431 57.8494 292.391 57.9929 292.312 58.1236C292.235 58.2514 292.133 58.3537 292.005 58.4304C291.877 58.5071 291.735 58.5455 291.579 58.5455ZM294.121 64V63.0455L297.074 59.9858C297.389 59.6534 297.649 59.3622 297.854 59.1122C298.061 58.8594 298.216 58.6193 298.318 58.392C298.42 58.1648 298.472 57.9233 298.472 57.6676C298.472 57.3778 298.403 57.1278 298.267 56.9176C298.131 56.7045 297.945 56.5412 297.709 56.4276C297.473 56.3111 297.207 56.2528 296.912 56.2528C296.599 56.2528 296.327 56.3168 296.094 56.4446C295.861 56.5724 295.682 56.7528 295.557 56.9858C295.432 57.2187 295.369 57.4915 295.369 57.804H294.112C294.112 57.2727 294.234 56.8082 294.479 56.4105C294.723 56.0128 295.058 55.7045 295.484 55.4858C295.911 55.2642 296.395 55.1534 296.938 55.1534C297.486 55.1534 297.969 55.2628 298.386 55.4815C298.807 55.6974 299.135 55.9929 299.371 56.3679C299.607 56.7401 299.724 57.1605 299.724 57.6293C299.724 57.9531 299.663 58.2699 299.541 58.5795C299.422 58.8892 299.213 59.2344 298.915 59.6151C298.616 59.9929 298.202 60.4517 297.67 60.9915L295.936 62.8068V62.8707H299.865V64H294.121ZM301.48 64V63.0455L304.433 59.9858C304.749 59.6534 305.009 59.3622 305.213 59.1122C305.42 58.8594 305.575 58.6193 305.678 58.392C305.78 58.1648 305.831 57.9233 305.831 57.6676C305.831 57.3778 305.763 57.1278 305.626 56.9176C305.49 56.7045 305.304 56.5412 305.068 56.4276C304.832 56.3111 304.567 56.2528 304.271 56.2528C303.959 56.2528 303.686 56.3168 303.453 56.4446C303.22 56.5724 303.041 56.7528 302.916 56.9858C302.791 57.2187 302.729 57.4915 302.729 57.804H301.472C301.472 57.2727 301.594 56.8082 301.838 56.4105C302.082 56.0128 302.418 55.7045 302.844 55.4858C303.27 55.2642 303.754 55.1534 304.297 55.1534C304.845 55.1534 305.328 55.2628 305.746 55.4815C306.166 55.6974 306.494 55.9929 306.73 56.3679C306.966 56.7401 307.084 57.1605 307.084 57.6293C307.084 57.9531 307.023 58.2699 306.901 58.5795C306.781 58.8892 306.572 59.2344 306.274 59.6151C305.976 59.9929 305.561 60.4517 305.03 60.9915L303.295 62.8068V62.8707H307.224V64H301.48Z" fill="#B4BEC8"/>
<rect x="20" y="112" width="288" height="45" rx="8" fill="#3B4555"/>
<path d="M126.142 140.5H123.892L127.989 128.864H130.591L134.693 140.5H132.443L129.335 131.25H129.244L126.142 140.5ZM126.216 135.938H132.352V137.631H126.216V135.938ZM139.108 140.653C138.422 140.653 137.809 140.477 137.267 140.125C136.725 139.773 136.297 139.261 135.983 138.591C135.669 137.92 135.511 137.106 135.511 136.148C135.511 135.178 135.67 134.36 135.989 133.693C136.311 133.023 136.744 132.517 137.29 132.176C137.835 131.831 138.443 131.659 139.114 131.659C139.625 131.659 140.045 131.746 140.375 131.92C140.705 132.091 140.966 132.297 141.159 132.54C141.352 132.778 141.502 133.004 141.608 133.216H141.693V128.864H143.756V140.5H141.733V139.125H141.608C141.502 139.337 141.348 139.562 141.148 139.801C140.947 140.036 140.682 140.237 140.352 140.403C140.023 140.57 139.608 140.653 139.108 140.653ZM139.682 138.966C140.117 138.966 140.489 138.848 140.795 138.614C141.102 138.375 141.335 138.044 141.494 137.619C141.653 137.195 141.733 136.701 141.733 136.136C141.733 135.572 141.653 135.081 141.494 134.665C141.339 134.248 141.108 133.924 140.801 133.693C140.498 133.462 140.125 133.347 139.682 133.347C139.223 133.347 138.841 133.466 138.534 133.705C138.227 133.943 137.996 134.273 137.841 134.693C137.686 135.114 137.608 135.595 137.608 136.136C137.608 136.682 137.686 137.169 137.841 137.597C138 138.021 138.233 138.356 138.54 138.602C138.85 138.845 139.231 138.966 139.682 138.966ZM149.186 140.653C148.5 140.653 147.887 140.477 147.345 140.125C146.804 139.773 146.375 139.261 146.061 138.591C145.747 137.92 145.589 137.106 145.589 136.148C145.589 135.178 145.749 134.36 146.067 133.693C146.389 133.023 146.822 132.517 147.368 132.176C147.913 131.831 148.521 131.659 149.192 131.659C149.703 131.659 150.124 131.746 150.453 131.92C150.783 132.091 151.044 132.297 151.237 132.54C151.43 132.778 151.58 133.004 151.686 133.216H151.771V128.864H153.834V140.5H151.811V139.125H151.686C151.58 139.337 151.427 139.562 151.226 139.801C151.025 140.036 150.76 140.237 150.43 140.403C150.101 140.57 149.686 140.653 149.186 140.653ZM149.76 138.966C150.196 138.966 150.567 138.848 150.874 138.614C151.18 138.375 151.413 138.044 151.572 137.619C151.732 137.195 151.811 136.701 151.811 136.136C151.811 135.572 151.732 135.081 151.572 134.665C151.417 134.248 151.186 133.924 150.879 133.693C150.576 133.462 150.203 133.347 149.76 133.347C149.302 133.347 148.919 133.466 148.612 133.705C148.305 133.943 148.074 134.273 147.919 134.693C147.764 135.114 147.686 135.595 147.686 136.136C147.686 136.682 147.764 137.169 147.919 137.597C148.078 138.021 148.311 138.356 148.618 138.602C148.929 138.845 149.309 138.966 149.76 138.966ZM160.085 140.5V128.864H164.449C165.343 128.864 166.093 129.03 166.699 129.364C167.309 129.697 167.769 130.155 168.08 130.739C168.394 131.318 168.551 131.977 168.551 132.716C168.551 133.462 168.394 134.125 168.08 134.705C167.765 135.284 167.301 135.741 166.688 136.074C166.074 136.403 165.318 136.568 164.42 136.568H161.528V134.835H164.136C164.659 134.835 165.087 134.744 165.42 134.562C165.754 134.381 166 134.131 166.159 133.812C166.322 133.494 166.403 133.129 166.403 132.716C166.403 132.303 166.322 131.939 166.159 131.625C166 131.311 165.752 131.066 165.415 130.892C165.081 130.714 164.652 130.625 164.125 130.625H162.193V140.5H160.085ZM172.348 135.386V140.5H170.291V128.864H172.303V133.256H172.405C172.609 132.763 172.926 132.375 173.354 132.091C173.786 131.803 174.335 131.659 175.001 131.659C175.607 131.659 176.136 131.786 176.587 132.04C177.037 132.294 177.386 132.665 177.632 133.153C177.882 133.642 178.007 134.239 178.007 134.943V140.5H175.95V135.261C175.95 134.674 175.799 134.218 175.496 133.892C175.196 133.562 174.776 133.398 174.234 133.398C173.871 133.398 173.545 133.477 173.257 133.636C172.973 133.792 172.75 134.017 172.587 134.312C172.428 134.608 172.348 134.966 172.348 135.386ZM183.911 140.67C183.058 140.67 182.32 140.483 181.695 140.108C181.07 139.733 180.585 139.208 180.24 138.534C179.899 137.86 179.729 137.072 179.729 136.17C179.729 135.269 179.899 134.479 180.24 133.801C180.585 133.123 181.07 132.597 181.695 132.222C182.32 131.847 183.058 131.659 183.911 131.659C184.763 131.659 185.501 131.847 186.126 132.222C186.751 132.597 187.234 133.123 187.575 133.801C187.92 134.479 188.092 135.269 188.092 136.17C188.092 137.072 187.92 137.86 187.575 138.534C187.234 139.208 186.751 139.733 186.126 140.108C185.501 140.483 184.763 140.67 183.911 140.67ZM183.922 139.023C184.384 139.023 184.77 138.896 185.081 138.642C185.392 138.384 185.623 138.04 185.774 137.608C185.929 137.176 186.007 136.695 186.007 136.165C186.007 135.631 185.929 135.148 185.774 134.716C185.623 134.28 185.392 133.934 185.081 133.676C184.77 133.419 184.384 133.29 183.922 133.29C183.448 133.29 183.054 133.419 182.74 133.676C182.429 133.934 182.196 134.28 182.041 134.716C181.89 135.148 181.814 135.631 181.814 136.165C181.814 136.695 181.89 137.176 182.041 137.608C182.196 138.04 182.429 138.384 182.74 138.642C183.054 138.896 183.448 139.023 183.922 139.023ZM194.196 131.773V133.364H189.179V131.773H194.196ZM190.418 129.682H192.474V137.875C192.474 138.152 192.516 138.364 192.599 138.511C192.687 138.655 192.8 138.754 192.94 138.807C193.08 138.86 193.236 138.886 193.406 138.886C193.535 138.886 193.652 138.877 193.759 138.858C193.868 138.839 193.952 138.822 194.009 138.807L194.355 140.415C194.245 140.453 194.088 140.494 193.884 140.54C193.683 140.585 193.437 140.612 193.145 140.619C192.63 140.634 192.166 140.557 191.753 140.386C191.34 140.212 191.012 139.943 190.77 139.58C190.531 139.216 190.414 138.761 190.418 138.216V129.682ZM199.629 140.67C198.777 140.67 198.038 140.483 197.413 140.108C196.788 139.733 196.304 139.208 195.959 138.534C195.618 137.86 195.447 137.072 195.447 136.17C195.447 135.269 195.618 134.479 195.959 133.801C196.304 133.123 196.788 132.597 197.413 132.222C198.038 131.847 198.777 131.659 199.629 131.659C200.482 131.659 201.22 131.847 201.845 132.222C202.47 132.597 202.953 133.123 203.294 133.801C203.639 134.479 203.811 135.269 203.811 136.17C203.811 137.072 203.639 137.86 203.294 138.534C202.953 139.208 202.47 139.733 201.845 140.108C201.22 140.483 200.482 140.67 199.629 140.67ZM199.641 139.023C200.103 139.023 200.489 138.896 200.8 138.642C201.11 138.384 201.341 138.04 201.493 137.608C201.648 137.176 201.726 136.695 201.726 136.165C201.726 135.631 201.648 135.148 201.493 134.716C201.341 134.28 201.11 133.934 200.8 133.676C200.489 133.419 200.103 133.29 199.641 133.29C199.167 133.29 198.773 133.419 198.459 133.676C198.148 133.934 197.915 134.28 197.76 134.716C197.608 135.148 197.533 135.631 197.533 136.165C197.533 136.695 197.608 137.176 197.76 137.608C197.915 138.04 198.148 138.384 198.459 138.642C198.773 138.896 199.167 139.023 199.641 139.023Z" fill="#E4E9EE"/>
<g clip-path="url(#clip1_25287_589682)">
<line x1="20" y1="179.5" x2="148" y2="179.5" stroke="#475161"/>
<path d="M164.071 179.909C164.071 180.996 163.873 181.931 163.475 182.713C163.077 183.492 162.532 184.092 161.839 184.513C161.15 184.93 160.366 185.139 159.488 185.139C158.606 185.139 157.819 184.93 157.126 184.513C156.437 184.092 155.893 183.49 155.495 182.708C155.098 181.926 154.899 180.993 154.899 179.909C154.899 178.822 155.098 177.889 155.495 177.11C155.893 176.328 156.437 175.728 157.126 175.31C157.819 174.889 158.606 174.679 159.488 174.679C160.366 174.679 161.15 174.889 161.839 175.31C162.532 175.728 163.077 176.328 163.475 177.11C163.873 177.889 164.071 178.822 164.071 179.909ZM162.55 179.909C162.55 179.08 162.416 178.383 162.147 177.816C161.882 177.246 161.518 176.815 161.054 176.523C160.593 176.228 160.071 176.081 159.488 176.081C158.901 176.081 158.377 176.228 157.917 176.523C157.456 176.815 157.091 177.246 156.823 177.816C156.558 178.383 156.425 179.08 156.425 179.909C156.425 180.738 156.558 181.437 156.823 182.007C157.091 182.574 157.456 183.005 157.917 183.3C158.377 183.591 158.901 183.737 159.488 183.737C160.071 183.737 160.593 183.591 161.054 183.3C161.518 183.005 161.882 182.574 162.147 182.007C162.416 181.437 162.55 180.738 162.55 179.909ZM165.987 185V174.818H169.616C170.405 174.818 171.059 174.954 171.58 175.226C172.103 175.498 172.495 175.874 172.753 176.354C173.012 176.832 173.141 177.384 173.141 178.01C173.141 178.633 173.01 179.182 172.748 179.656C172.49 180.126 172.099 180.492 171.575 180.754C171.054 181.016 170.4 181.147 169.611 181.147H166.862V179.825H169.472C169.969 179.825 170.373 179.753 170.685 179.611C171 179.468 171.23 179.261 171.376 178.989C171.522 178.718 171.595 178.391 171.595 178.01C171.595 177.625 171.52 177.292 171.371 177.011C171.225 176.729 170.995 176.513 170.68 176.364C170.368 176.212 169.959 176.136 169.452 176.136H167.523V185H165.987ZM171.013 180.406L173.529 185H171.779L169.313 180.406H171.013Z" fill="#818991"/>
<line x1="180" y1="179.5" x2="308" y2="179.5" stroke="#475161"/>
</g>
<rect x="20.5" y="203.5" width="287" height="55" rx="7.5" fill="#1F283A"/>
<rect x="20.5" y="203.5" width="287" height="55" rx="7.5" stroke="#475161"/>
<path d="M36.6165 227.141V225.818H44.4964V227.141H41.3196V236H39.7884V227.141H36.6165ZM46.1831 238.864C45.961 238.864 45.7588 238.845 45.5765 238.809C45.3942 238.776 45.2583 238.739 45.1689 238.7L45.5268 237.482C45.7986 237.554 46.0405 237.586 46.2527 237.576C46.4648 237.566 46.652 237.487 46.8145 237.337C46.9802 237.188 47.126 236.945 47.252 236.607L47.4359 236.099L44.6419 228.364H46.2328L48.1667 234.29H48.2463L50.1802 228.364H51.7761L48.6291 237.019C48.4833 237.417 48.2976 237.753 48.0723 238.028C47.8469 238.307 47.5784 238.516 47.2669 238.655C46.9553 238.794 46.594 238.864 46.1831 238.864ZM53.1731 238.864V228.364H54.6248V229.602H54.7491C54.8353 229.442 54.9596 229.259 55.122 229.05C55.2844 228.841 55.5098 228.659 55.7981 228.503C56.0865 228.344 56.4676 228.264 56.9416 228.264C57.5581 228.264 58.1083 228.42 58.5922 228.732C59.0761 229.043 59.4556 229.492 59.7306 230.079C60.0091 230.665 60.1483 231.371 60.1483 232.197C60.1483 233.022 60.0107 233.73 59.7356 234.32C59.4605 234.906 59.0827 235.359 58.6021 235.677C58.1215 235.992 57.573 236.149 56.9565 236.149C56.4925 236.149 56.113 236.071 55.818 235.915C55.5263 235.76 55.2976 235.577 55.1319 235.369C54.9662 235.16 54.8386 234.974 54.7491 234.812H54.6596V238.864H53.1731ZM54.6298 232.182C54.6298 232.719 54.7077 233.189 54.8635 233.594C55.0192 233.998 55.2446 234.315 55.5396 234.543C55.8346 234.769 56.1958 234.881 56.6234 234.881C57.0675 234.881 57.4387 234.764 57.737 234.528C58.0353 234.29 58.2607 233.967 58.4132 233.559C58.569 233.151 58.6468 232.692 58.6468 232.182C58.6468 231.678 58.5706 231.226 58.4181 230.825C58.269 230.424 58.0436 230.107 57.742 229.875C57.4437 229.643 57.0708 229.527 56.6234 229.527C56.1925 229.527 55.8279 229.638 55.5297 229.86C55.2347 230.082 55.0109 230.392 54.8585 230.79C54.706 231.187 54.6298 231.652 54.6298 232.182ZM65.1049 236.154C64.3526 236.154 63.7046 235.993 63.161 235.672C62.6208 235.347 62.2032 234.891 61.9082 234.305C61.6165 233.715 61.4707 233.024 61.4707 232.232C61.4707 231.449 61.6165 230.76 61.9082 230.163C62.2032 229.567 62.6142 229.101 63.1412 228.766C63.6715 228.432 64.2913 228.264 65.0005 228.264C65.4314 228.264 65.849 228.335 66.2534 228.478C66.6577 228.621 67.0207 228.844 67.3422 229.149C67.6636 229.454 67.9172 229.85 68.1028 230.337C68.2884 230.821 68.3812 231.41 68.3812 232.102V232.629H62.3109V231.516H66.9245C66.9245 231.125 66.845 230.778 66.6859 230.477C66.5268 230.172 66.3031 229.931 66.0147 229.756C65.7297 229.58 65.3949 229.492 65.0105 229.492C64.5929 229.492 64.2283 229.595 63.9167 229.8C63.6085 230.003 63.3699 230.268 63.2008 230.596C63.0351 230.921 62.9522 231.274 62.9522 231.655V232.525C62.9522 233.035 63.0417 233.469 63.2207 233.827C63.403 234.185 63.6565 234.459 63.9814 234.648C64.3062 234.833 64.6857 234.926 65.1199 234.926C65.4016 234.926 65.6584 234.886 65.8904 234.807C66.1225 234.724 66.323 234.601 66.492 234.439C66.661 234.277 66.7903 234.076 66.8798 233.837L68.2868 234.091C68.1741 234.505 67.9719 234.868 67.6802 235.18C67.3919 235.488 67.0289 235.728 66.5914 235.901C66.1573 236.07 65.6618 236.154 65.1049 236.154ZM74.6752 238.864C74.4532 238.864 74.251 238.845 74.0687 238.809C73.8864 238.776 73.7505 238.739 73.661 238.7L74.019 237.482C74.2908 237.554 74.5327 237.586 74.7449 237.576C74.957 237.566 75.1442 237.487 75.3066 237.337C75.4724 237.188 75.6182 236.945 75.7441 236.607L75.9281 236.099L73.1341 228.364H74.725L76.6589 234.29H76.7385L78.6724 228.364H80.2683L77.1213 237.019C76.9754 237.417 76.7898 237.753 76.5645 238.028C76.3391 238.307 76.0706 238.516 75.7591 238.655C75.4475 238.794 75.0862 238.864 74.6752 238.864ZM84.6222 236.154C83.9063 236.154 83.2815 235.99 82.7479 235.662C82.2143 235.334 81.8 234.875 81.505 234.285C81.21 233.695 81.0625 233.005 81.0625 232.217C81.0625 231.424 81.21 230.732 81.505 230.138C81.8 229.545 82.2143 229.085 82.7479 228.756C83.2815 228.428 83.9063 228.264 84.6222 228.264C85.3381 228.264 85.9628 228.428 86.4964 228.756C87.0301 229.085 87.4444 229.545 87.7393 230.138C88.0343 230.732 88.1818 231.424 88.1818 232.217C88.1818 233.005 88.0343 233.695 87.7393 234.285C87.4444 234.875 87.0301 235.334 86.4964 235.662C85.9628 235.99 85.3381 236.154 84.6222 236.154ZM84.6271 234.906C85.0911 234.906 85.4756 234.784 85.7805 234.538C86.0855 234.293 86.3108 233.967 86.4567 233.559C86.6058 233.151 86.6804 232.702 86.6804 232.212C86.6804 231.724 86.6058 231.277 86.4567 230.869C86.3108 230.458 86.0855 230.129 85.7805 229.88C85.4756 229.631 85.0911 229.507 84.6271 229.507C84.1598 229.507 83.772 229.631 83.4638 229.88C83.1589 230.129 82.9318 230.458 82.7827 230.869C82.6368 231.277 82.5639 231.724 82.5639 232.212C82.5639 232.702 82.6368 233.151 82.7827 233.559C82.9318 233.967 83.1589 234.293 83.4638 234.538C83.772 234.784 84.1598 234.906 84.6271 234.906ZM94.6784 232.833V228.364H96.1699V236H94.7083V234.678H94.6287C94.4531 235.085 94.1713 235.425 93.7836 235.697C93.3991 235.965 92.9202 236.099 92.3468 236.099C91.8562 236.099 91.4221 235.992 91.0442 235.776C90.6697 235.558 90.3747 235.234 90.1593 234.807C89.9471 234.379 89.8411 233.851 89.8411 233.221V228.364H91.3276V233.042C91.3276 233.562 91.4718 233.977 91.7601 234.285C92.0485 234.593 92.423 234.747 92.8837 234.747C93.1621 234.747 93.4389 234.678 93.714 234.538C93.9924 234.399 94.2227 234.189 94.405 233.907C94.5906 233.625 94.6818 233.267 94.6784 232.833ZM98.1673 236V228.364H99.604V229.577H99.6836C99.8228 229.166 100.068 228.843 100.419 228.607C100.774 228.369 101.175 228.249 101.623 228.249C101.715 228.249 101.825 228.253 101.951 228.259C102.08 228.266 102.181 228.274 102.254 228.284V229.706C102.194 229.689 102.088 229.671 101.936 229.651C101.783 229.628 101.631 229.616 101.478 229.616C101.127 229.616 100.814 229.691 100.539 229.84C100.267 229.986 100.051 230.19 99.8924 230.452C99.7333 230.71 99.6538 231.005 99.6538 231.337V236H98.1673ZM108.732 231.466V236H107.245V228.364H108.672V229.607H108.767C108.942 229.202 109.217 228.877 109.592 228.632C109.97 228.387 110.445 228.264 111.019 228.264C111.539 228.264 111.995 228.374 112.386 228.592C112.777 228.808 113.08 229.129 113.296 229.557C113.511 229.984 113.619 230.513 113.619 231.143V236H112.132V231.322C112.132 230.768 111.988 230.336 111.7 230.024C111.412 229.709 111.016 229.552 110.512 229.552C110.167 229.552 109.86 229.626 109.592 229.776C109.327 229.925 109.116 230.143 108.961 230.432C108.808 230.717 108.732 231.062 108.732 231.466ZM118.829 236.154C118.113 236.154 117.489 235.99 116.955 235.662C116.421 235.334 116.007 234.875 115.712 234.285C115.417 233.695 115.27 233.005 115.27 232.217C115.27 231.424 115.417 230.732 115.712 230.138C116.007 229.545 116.421 229.085 116.955 228.756C117.489 228.428 118.113 228.264 118.829 228.264C119.545 228.264 120.17 228.428 120.703 228.756C121.237 229.085 121.651 229.545 121.946 230.138C122.241 230.732 122.389 231.424 122.389 232.217C122.389 233.005 122.241 233.695 121.946 234.285C121.651 234.875 121.237 235.334 120.703 235.662C120.17 235.99 119.545 236.154 118.829 236.154ZM118.834 234.906C119.298 234.906 119.683 234.784 119.988 234.538C120.292 234.293 120.518 233.967 120.664 233.559C120.813 233.151 120.887 232.702 120.887 232.212C120.887 231.724 120.813 231.277 120.664 230.869C120.518 230.458 120.292 230.129 119.988 229.88C119.683 229.631 119.298 229.507 118.834 229.507C118.367 229.507 117.979 229.631 117.671 229.88C117.366 230.129 117.139 230.458 116.99 230.869C116.844 231.277 116.771 231.724 116.771 232.212C116.771 232.702 116.844 233.151 116.99 233.559C117.139 233.967 117.366 234.293 117.671 234.538C117.979 234.784 118.367 234.906 118.834 234.906ZM127.613 228.364V229.557H123.442V228.364H127.613ZM124.56 226.534H126.047V233.758C126.047 234.046 126.09 234.263 126.176 234.409C126.262 234.552 126.373 234.649 126.509 234.702C126.648 234.752 126.799 234.777 126.961 234.777C127.081 234.777 127.185 234.769 127.275 234.752C127.364 234.736 127.434 234.722 127.483 234.712L127.752 235.94C127.666 235.973 127.543 236.007 127.384 236.04C127.225 236.076 127.026 236.096 126.787 236.099C126.396 236.106 126.032 236.036 125.694 235.891C125.356 235.745 125.082 235.519 124.873 235.214C124.665 234.91 124.56 234.527 124.56 234.066V226.534ZM132.466 236.154C131.714 236.154 131.066 235.993 130.522 235.672C129.982 235.347 129.565 234.891 129.27 234.305C128.978 233.715 128.832 233.024 128.832 232.232C128.832 231.449 128.978 230.76 129.27 230.163C129.565 229.567 129.975 229.101 130.502 228.766C131.033 228.432 131.653 228.264 132.362 228.264C132.793 228.264 133.21 228.335 133.615 228.478C134.019 228.621 134.382 228.844 134.703 229.149C135.025 229.454 135.279 229.85 135.464 230.337C135.65 230.821 135.743 231.41 135.743 232.102V232.629H129.672V231.516H134.286C134.286 231.125 134.206 230.778 134.047 230.477C133.888 230.172 133.664 229.931 133.376 229.756C133.091 229.58 132.756 229.492 132.372 229.492C131.954 229.492 131.59 229.595 131.278 229.8C130.97 230.003 130.731 230.268 130.562 230.596C130.396 230.921 130.314 231.274 130.314 231.655V232.525C130.314 233.035 130.403 233.469 130.582 233.827C130.764 234.185 131.018 234.459 131.343 234.648C131.667 234.833 132.047 234.926 132.481 234.926C132.763 234.926 133.02 234.886 133.252 234.807C133.484 234.724 133.684 234.601 133.853 234.439C134.022 234.277 134.152 234.076 134.241 233.837L135.648 234.091C135.535 234.505 135.333 234.868 135.042 235.18C134.753 235.488 134.39 235.728 133.953 235.901C133.519 236.07 133.023 236.154 132.466 236.154ZM142.583 231.466V236H141.097V225.818H142.564V229.607H142.658C142.837 229.196 143.11 228.869 143.478 228.627C143.846 228.385 144.327 228.264 144.92 228.264C145.444 228.264 145.901 228.372 146.292 228.587C146.687 228.803 146.992 229.124 147.207 229.552C147.426 229.976 147.535 230.506 147.535 231.143V236H146.049V231.322C146.049 230.762 145.904 230.327 145.616 230.019C145.328 229.708 144.927 229.552 144.413 229.552C144.062 229.552 143.747 229.626 143.468 229.776C143.193 229.925 142.976 230.143 142.817 230.432C142.661 230.717 142.583 231.062 142.583 231.466ZM152.81 236.154C152.058 236.154 151.41 235.993 150.866 235.672C150.326 235.347 149.908 234.891 149.613 234.305C149.322 233.715 149.176 233.024 149.176 232.232C149.176 231.449 149.322 230.76 149.613 230.163C149.908 229.567 150.319 229.101 150.846 228.766C151.377 228.432 151.996 228.264 152.706 228.264C153.136 228.264 153.554 228.335 153.958 228.478C154.363 228.621 154.726 228.844 155.047 229.149C155.369 229.454 155.622 229.85 155.808 230.337C155.993 230.821 156.086 231.41 156.086 232.102V232.629H150.016V231.516H154.63C154.63 231.125 154.55 230.778 154.391 230.477C154.232 230.172 154.008 229.931 153.72 229.756C153.435 229.58 153.1 229.492 152.716 229.492C152.298 229.492 151.933 229.595 151.622 229.8C151.314 230.003 151.075 230.268 150.906 230.596C150.74 230.921 150.657 231.274 150.657 231.655V232.525C150.657 233.035 150.747 233.469 150.926 233.827C151.108 234.185 151.362 234.459 151.686 234.648C152.011 234.833 152.391 234.926 152.825 234.926C153.107 234.926 153.364 234.886 153.596 234.807C153.828 234.724 154.028 234.601 154.197 234.439C154.366 234.277 154.495 234.076 154.585 233.837L155.992 234.091C155.879 234.505 155.677 234.868 155.385 235.18C155.097 235.488 154.734 235.728 154.297 235.901C153.862 236.07 153.367 236.154 152.81 236.154ZM157.736 236V228.364H159.172V229.577H159.252C159.391 229.166 159.636 228.843 159.988 228.607C160.342 228.369 160.743 228.249 161.191 228.249C161.284 228.249 161.393 228.253 161.519 228.259C161.648 228.266 161.749 228.274 161.822 228.284V229.706C161.763 229.689 161.657 229.671 161.504 229.651C161.352 229.628 161.199 229.616 161.047 229.616C160.695 229.616 160.382 229.691 160.107 229.84C159.835 229.986 159.62 230.19 159.461 230.452C159.302 230.71 159.222 231.005 159.222 231.337V236H157.736ZM166.126 236.154C165.374 236.154 164.726 235.993 164.183 235.672C163.642 235.347 163.225 234.891 162.93 234.305C162.638 233.715 162.492 233.024 162.492 232.232C162.492 231.449 162.638 230.76 162.93 230.163C163.225 229.567 163.636 229.101 164.163 228.766C164.693 228.432 165.313 228.264 166.022 228.264C166.453 228.264 166.871 228.335 167.275 228.478C167.679 228.621 168.042 228.844 168.364 229.149C168.685 229.454 168.939 229.85 169.124 230.337C169.31 230.821 169.403 231.41 169.403 232.102V232.629H163.332V231.516H167.946C167.946 231.125 167.866 230.778 167.707 230.477C167.548 230.172 167.325 229.931 167.036 229.756C166.751 229.58 166.416 229.492 166.032 229.492C165.614 229.492 165.25 229.595 164.938 229.8C164.63 230.003 164.391 230.268 164.222 230.596C164.057 230.921 163.974 231.274 163.974 231.655V232.525C163.974 233.035 164.063 233.469 164.242 233.827C164.424 234.185 164.678 234.459 165.003 234.648C165.328 234.833 165.707 234.926 166.141 234.926C166.423 234.926 166.68 234.886 166.912 234.807C167.144 234.724 167.344 234.601 167.513 234.439C167.683 234.277 167.812 234.076 167.901 233.837L169.308 234.091C169.196 234.505 168.993 234.868 168.702 235.18C168.413 235.488 168.05 235.728 167.613 235.901C167.179 236.07 166.683 236.154 166.126 236.154ZM172.031 236.094C171.76 236.094 171.526 235.998 171.33 235.806C171.135 235.611 171.037 235.375 171.037 235.1C171.037 234.828 171.135 234.596 171.33 234.404C171.526 234.209 171.76 234.111 172.031 234.111C172.303 234.111 172.537 234.209 172.732 234.404C172.928 234.596 173.026 234.828 173.026 235.1C173.026 235.282 172.979 235.45 172.887 235.602C172.797 235.751 172.678 235.871 172.529 235.96C172.379 236.05 172.214 236.094 172.031 236.094ZM175.996 236.094C175.724 236.094 175.491 235.998 175.295 235.806C175.1 235.611 175.002 235.375 175.002 235.1C175.002 234.828 175.1 234.596 175.295 234.404C175.491 234.209 175.724 234.111 175.996 234.111C176.268 234.111 176.502 234.209 176.697 234.404C176.893 234.596 176.991 234.828 176.991 235.1C176.991 235.282 176.944 235.45 176.851 235.602C176.762 235.751 176.643 235.871 176.493 235.96C176.344 236.05 176.179 236.094 175.996 236.094ZM179.961 236.094C179.689 236.094 179.456 235.998 179.26 235.806C179.065 235.611 178.967 235.375 178.967 235.1C178.967 234.828 179.065 234.596 179.26 234.404C179.456 234.209 179.689 234.111 179.961 234.111C180.233 234.111 180.467 234.209 180.662 234.404C180.858 234.596 180.955 234.828 180.955 235.1C180.955 235.282 180.909 235.45 180.816 235.602C180.727 235.751 180.607 235.871 180.458 235.96C180.309 236.05 180.143 236.094 179.961 236.094Z" fill="#818991"/>
<defs>
<clipPath id="clip0_25287_589682">
<rect x="20" y="50" width="90" height="26" rx="3.97506" fill="white"/>
</clipPath>
<clipPath id="clip1_25287_589682">
<rect width="288" height="22" fill="white" transform="translate(20 169)"/>
</clipPath>
</defs>
</svg>
