<svg width="85" height="293" viewBox="0 0 85 293" fill="none" xmlns="http://www.w3.org/2000/svg">
<circle cx="41.1783" cy="43.1471" r="25.1471" stroke="#475161" stroke-width="4"/>
<path d="M41.1367 18.0016C45.5031 18.0016 49.7945 19.1367 53.5899 21.2954C57.3853 23.4542 60.5544 26.5625 62.7862 30.3155C65.018 34.0684 66.2358 38.337 66.3203 42.7026C66.4048 47.0682 65.353 51.3808 63.268 55.2172C61.1831 59.0537 58.1367 62.2823 54.4276 64.5863C50.7185 66.8902 46.4743 68.1905 42.1111 68.3594" stroke="#FAFAFA" stroke-width="4"/>
<path d="M31.1019 48.1392C30.4788 48.1392 29.9187 48.0199 29.4215 47.7812C28.9277 47.5393 28.5333 47.2079 28.2383 46.7869C27.9433 46.366 27.7859 45.8854 27.766 45.3452H29.2575C29.2939 45.7827 29.4878 46.1423 29.8391 46.424C30.1905 46.7057 30.6114 46.8466 31.1019 46.8466C31.493 46.8466 31.8394 46.7571 32.141 46.5781C32.4459 46.3958 32.6845 46.1456 32.8569 45.8274C33.0326 45.5092 33.1204 45.1463 33.1204 44.7386C33.1204 44.3243 33.0309 43.9548 32.8519 43.63C32.6729 43.3052 32.426 43.05 32.1112 42.8643C31.7996 42.6787 31.4416 42.5843 31.0373 42.581C30.729 42.581 30.4192 42.634 30.1076 42.7401C29.796 42.8461 29.5442 42.9853 29.3519 43.1577L27.945 42.9489L28.5167 37.8182H34.1147V39.1357H29.7944L29.4712 41.9844H29.5309C29.7298 41.7921 29.9933 41.6314 30.3214 41.5021C30.6528 41.3729 31.0075 41.3082 31.3853 41.3082C32.0051 41.3082 32.5569 41.4557 33.0408 41.7507C33.5281 42.0457 33.9109 42.4484 34.1893 42.9588C34.471 43.4659 34.6102 44.0492 34.6069 44.7088C34.6102 45.3684 34.4611 45.9567 34.1594 46.4737C33.8612 46.9908 33.4469 47.3984 32.9165 47.6967C32.3896 47.9917 31.7847 48.1392 31.1019 48.1392ZM40.3205 37.3409L37.0392 49.5312H35.7118L38.9931 37.3409H40.3205ZM45.4263 37.8182V48H43.8851V39.3594H43.8255L41.3894 40.9503V39.4787L43.9299 37.8182H45.4263ZM51.7253 48.169C50.9398 48.1657 50.2686 47.9586 49.7118 47.5476C49.155 47.1366 48.7291 46.5384 48.4341 45.7528C48.1391 44.9673 47.9917 44.0211 47.9917 42.9141C47.9917 41.8104 48.1391 40.8674 48.4341 40.0852C48.7324 39.303 49.16 38.7064 49.7168 38.2955C50.2769 37.8845 50.9464 37.679 51.7253 37.679C52.5042 37.679 53.1721 37.8861 53.7289 38.3004C54.2857 38.7114 54.7116 39.308 55.0066 40.0902C55.3049 40.8691 55.454 41.8104 55.454 42.9141C55.454 44.0244 55.3065 44.9723 55.0115 45.7578C54.7166 46.54 54.2907 47.1383 53.7338 47.5526C53.177 47.9635 52.5075 48.169 51.7253 48.169ZM51.7253 46.8416C52.4147 46.8416 52.9533 46.5052 53.3411 45.8324C53.7322 45.1596 53.9277 44.1868 53.9277 42.9141C53.9277 42.0689 53.8382 41.3546 53.6593 40.7713C53.4836 40.1847 53.2301 39.7405 52.8986 39.4389C52.5705 39.134 52.1794 38.9815 51.7253 38.9815C51.0392 38.9815 50.5007 39.3196 50.1096 39.9957C49.7185 40.6719 49.5212 41.6446 49.5179 42.9141C49.5179 43.7625 49.6058 44.4801 49.7814 45.0668C49.9604 45.6501 50.214 46.0926 50.5421 46.3942C50.8702 46.6925 51.2646 46.8416 51.7253 46.8416Z" fill="#FAFAFA"/>
<circle cx="41.1783" cy="251.147" r="25.1471" stroke="#46AD85" stroke-width="4"/>
<path d="M27.1177 245.818V256H25.5765V247.359H25.5169L23.0808 248.95V247.479L25.6213 245.818H27.1177ZM33.4167 256.169C32.6312 256.166 31.96 255.959 31.4032 255.548C30.8464 255.137 30.4205 254.538 30.1255 253.753C29.8306 252.967 29.6831 252.021 29.6831 250.914C29.6831 249.81 29.8306 248.867 30.1255 248.085C30.4238 247.303 30.8514 246.706 31.4082 246.295C31.9683 245.884 32.6378 245.679 33.4167 245.679C34.1956 245.679 34.8635 245.886 35.4203 246.3C35.9771 246.711 36.403 247.308 36.698 248.09C36.9963 248.869 37.1454 249.81 37.1454 250.914C37.1454 252.024 36.9979 252.972 36.7029 253.758C36.408 254.54 35.9821 255.138 35.4252 255.553C34.8684 255.964 34.1989 256.169 33.4167 256.169ZM33.4167 254.842C34.1061 254.842 34.6447 254.505 35.0325 253.832C35.4236 253.16 35.6191 252.187 35.6191 250.914C35.6191 250.069 35.5297 249.355 35.3507 248.771C35.175 248.185 34.9215 247.741 34.59 247.439C34.2619 247.134 33.8708 246.982 33.4167 246.982C32.7306 246.982 32.1921 247.32 31.801 247.996C31.4099 248.672 31.2127 249.645 31.2093 250.914C31.2093 251.763 31.2972 252.48 31.4728 253.067C31.6518 253.65 31.9054 254.093 32.2335 254.394C32.5616 254.692 32.956 254.842 33.4167 254.842ZM42.8068 245.341L39.5256 257.531H38.1982L41.4794 245.341H42.8068ZM47.9126 245.818V256H46.3714V247.359H46.3118L43.8757 248.95V247.479L46.4162 245.818H47.9126ZM54.2116 256.169C53.4261 256.166 52.755 255.959 52.1982 255.548C51.6413 255.137 51.2154 254.538 50.9205 253.753C50.6255 252.967 50.478 252.021 50.478 250.914C50.478 249.81 50.6255 248.867 50.9205 248.085C51.2188 247.303 51.6463 246.706 52.2031 246.295C52.7633 245.884 53.4328 245.679 54.2116 245.679C54.9905 245.679 55.6584 245.886 56.2152 246.3C56.772 246.711 57.1979 247.308 57.4929 248.09C57.7912 248.869 57.9403 249.81 57.9403 250.914C57.9403 252.024 57.7929 252.972 57.4979 253.758C57.2029 254.54 56.777 255.138 56.2202 255.553C55.6634 255.964 54.9938 256.169 54.2116 256.169ZM54.2116 254.842C54.901 254.842 55.4396 254.505 55.8274 253.832C56.2185 253.16 56.4141 252.187 56.4141 250.914C56.4141 250.069 56.3246 249.355 56.1456 248.771C55.9699 248.185 55.7164 247.741 55.3849 247.439C55.0568 247.134 54.6657 246.982 54.2116 246.982C53.5256 246.982 52.987 247.32 52.5959 247.996C52.2048 248.672 52.0076 249.645 52.0043 250.914C52.0043 251.763 52.0921 252.48 52.2678 253.067C52.4467 253.65 52.7003 254.093 53.0284 254.394C53.3565 254.692 53.7509 254.842 54.2116 254.842Z" fill="#46AD85"/>
<circle cx="42.5" cy="185.719" r="26.7188" stroke="#475161" stroke-width="4"/>
<path d="M32.5144 190.169C31.7289 190.166 31.0577 189.959 30.5009 189.548C29.9441 189.137 29.5182 188.538 29.2232 187.753C28.9282 186.967 28.7807 186.021 28.7807 184.914C28.7807 183.81 28.9282 182.867 29.2232 182.085C29.5215 181.303 29.949 180.706 30.5059 180.295C31.066 179.884 31.7355 179.679 32.5144 179.679C33.2933 179.679 33.9611 179.886 34.5179 180.3C35.0748 180.711 35.5007 181.308 35.7956 182.09C36.0939 182.869 36.2431 183.81 36.2431 184.914C36.2431 186.024 36.0956 186.972 35.8006 187.758C35.5056 188.54 35.0797 189.138 34.5229 189.553C33.9661 189.964 33.2966 190.169 32.5144 190.169ZM32.5144 188.842C33.2038 188.842 33.7424 188.505 34.1301 187.832C34.5212 187.16 34.7168 186.187 34.7168 184.914C34.7168 184.069 34.6273 183.355 34.4483 182.771C34.2727 182.185 34.0191 181.741 33.6877 181.439C33.3596 181.134 32.9685 180.982 32.5144 180.982C31.8283 180.982 31.2897 181.32 30.8986 181.996C30.5075 182.672 30.3103 183.645 30.307 184.914C30.307 185.763 30.3948 186.48 30.5705 187.067C30.7495 187.65 31.003 188.093 31.3311 188.394C31.6593 188.692 32.0537 188.842 32.5144 188.842ZM41.9045 179.341L38.6232 191.531H37.2958L40.5771 179.341H41.9045ZM47.0103 179.818V190H45.4691V181.359H45.4094L42.9734 182.95V181.479L45.5138 179.818H47.0103ZM53.3093 190.169C52.5238 190.166 51.8526 189.959 51.2958 189.548C50.739 189.137 50.3131 188.538 50.0181 187.753C49.7231 186.967 49.5756 186.021 49.5756 184.914C49.5756 183.81 49.7231 182.867 50.0181 182.085C50.3164 181.303 50.744 180.706 51.3008 180.295C51.8609 179.884 52.5304 179.679 53.3093 179.679C54.0882 179.679 54.756 179.886 55.3129 180.3C55.8697 180.711 56.2956 181.308 56.5906 182.09C56.8888 182.869 57.038 183.81 57.038 184.914C57.038 186.024 56.8905 186.972 56.5955 187.758C56.3005 188.54 55.8746 189.138 55.3178 189.553C54.761 189.964 54.0915 190.169 53.3093 190.169ZM53.3093 188.842C53.9987 188.842 54.5373 188.505 54.9251 187.832C55.3162 187.16 55.5117 186.187 55.5117 184.914C55.5117 184.069 55.4222 183.355 55.2433 182.771C55.0676 182.185 54.814 181.741 54.4826 181.439C54.1545 181.134 53.7634 180.982 53.3093 180.982C52.6232 180.982 52.0846 181.32 51.6935 181.996C51.3024 182.672 51.1052 183.645 51.1019 184.914C51.1019 185.763 51.1897 186.48 51.3654 187.067C51.5444 187.65 51.7979 188.093 52.1261 188.394C52.4542 188.692 52.8486 188.842 53.3093 188.842Z" fill="#FAFAFA"/>
<circle cx="41.9986" cy="113.499" r="25.1471" stroke="#475161" stroke-width="4"/>
<path d="M42.0014 88.3504C47.9596 88.3504 53.7242 90.466 58.2679 94.3201C62.8117 98.1741 65.8394 103.516 66.8115 109.395C67.7836 115.273 66.6369 121.306 63.5757 126.417C60.5146 131.529 55.7379 135.388 50.0969 137.306C44.456 139.224 38.3172 139.077 32.7745 136.891C27.2319 134.704 22.6456 130.621 19.8329 125.369C17.0201 120.116 16.1637 114.036 17.4163 108.211C18.6689 102.386 21.949 97.1948 26.6722 93.5628" stroke="#FFD964" stroke-opacity="0.5" stroke-width="4"/>
<path d="M41.9986 88.3543C46.9722 88.3543 51.8342 89.8292 55.9696 92.5924C60.105 95.3556 63.3281 99.283 65.2315 103.878C67.1348 108.473 67.6328 113.529 66.6625 118.407C65.6922 123.285 63.2971 127.766 59.7803 131.283C56.2634 134.8 51.7826 137.195 46.9046 138.165C42.0265 139.136 36.9703 138.638 32.3753 136.734C27.7802 134.831 23.8528 131.608 21.0896 127.472C18.3264 123.337 16.8516 118.475 16.8516 113.501" stroke="#FFDF70" stroke-width="4"/>
<path d="M31.0174 107.679C31.4715 107.682 31.9189 107.765 32.3597 107.928C32.8005 108.09 33.1983 108.355 33.5529 108.723C33.9109 109.091 34.1959 109.588 34.408 110.214C34.6235 110.838 34.7328 111.613 34.7362 112.541C34.7362 113.433 34.6467 114.227 34.4677 114.923C34.2887 115.615 34.0318 116.2 33.6971 116.678C33.3656 117.155 32.963 117.518 32.489 117.766C32.015 118.015 31.4814 118.139 30.8881 118.139C30.2816 118.139 29.743 118.02 29.2724 117.781C28.8017 117.543 28.4189 117.213 28.1239 116.792C27.829 116.368 27.645 115.88 27.5721 115.33H29.0884C29.1879 115.768 29.39 116.122 29.695 116.394C30.0032 116.663 30.4009 116.797 30.8881 116.797C31.6339 116.797 32.2156 116.472 32.6332 115.822C33.0508 115.17 33.2612 114.258 33.2646 113.088H33.185C33.0127 113.373 32.7972 113.618 32.5387 113.824C32.2835 114.029 31.9968 114.188 31.6786 114.301C31.3604 114.414 31.0207 114.47 30.6594 114.47C30.0728 114.47 29.5392 114.326 29.0586 114.038C28.578 113.749 28.1952 113.353 27.9102 112.849C27.6251 112.346 27.4826 111.771 27.4826 111.124C27.4826 110.481 27.6284 109.898 27.9201 109.374C28.2151 108.851 28.6261 108.436 29.1531 108.131C29.6834 107.823 30.3048 107.672 31.0174 107.679ZM31.0224 108.972C30.6346 108.972 30.2849 109.068 29.9734 109.26C29.6651 109.449 29.4215 109.706 29.2425 110.031C29.0636 110.352 28.9741 110.71 28.9741 111.104C28.9741 111.499 29.0603 111.857 29.2326 112.178C29.4083 112.496 29.6469 112.75 29.9485 112.939C30.2534 113.125 30.6014 113.217 30.9925 113.217C31.2842 113.217 31.556 113.161 31.8079 113.048C32.0598 112.936 32.2802 112.78 32.4691 112.581C32.658 112.379 32.8055 112.15 32.9116 111.895C33.0176 111.64 33.0707 111.371 33.0707 111.089C33.0707 110.715 32.9812 110.367 32.8022 110.045C32.6265 109.724 32.3846 109.465 32.0763 109.27C31.7681 109.071 31.4168 108.972 31.0224 108.972ZM40.4299 107.341L37.1486 119.531H35.8212L39.1025 107.341H40.4299ZM45.5357 107.818V118H43.9945V109.359H43.9348L41.4988 110.95V109.479L44.0392 107.818H45.5357ZM51.8347 118.169C51.0492 118.166 50.378 117.959 49.8212 117.548C49.2644 117.137 48.8385 116.538 48.5435 115.753C48.2485 114.967 48.101 114.021 48.101 112.914C48.101 111.81 48.2485 110.867 48.5435 110.085C48.8418 109.303 49.2694 108.706 49.8262 108.295C50.3863 107.884 51.0558 107.679 51.8347 107.679C52.6136 107.679 53.2814 107.886 53.8382 108.3C54.3951 108.711 54.821 109.308 55.1159 110.09C55.4142 110.869 55.5634 111.81 55.5634 112.914C55.5634 114.024 55.4159 114.972 55.1209 115.758C54.8259 116.54 54.4 117.138 53.8432 117.553C53.2864 117.964 52.6169 118.169 51.8347 118.169ZM51.8347 116.842C52.5241 116.842 53.0627 116.505 53.4505 115.832C53.8416 115.16 54.0371 114.187 54.0371 112.914C54.0371 112.069 53.9476 111.355 53.7686 110.771C53.593 110.185 53.3394 109.741 53.008 109.439C52.6799 109.134 52.2888 108.982 51.8347 108.982C51.1486 108.982 50.61 109.32 50.2189 109.996C49.8278 110.672 49.6306 111.645 49.6273 112.914C49.6273 113.763 49.7151 114.48 49.8908 115.067C50.0698 115.65 50.3233 116.093 50.6515 116.394C50.9796 116.692 51.374 116.842 51.8347 116.842Z" fill="#FFDF70"/>
</svg>
