<svg width="147" height="244" viewBox="0 0 147 244" fill="none" xmlns="http://www.w3.org/2000/svg">
<g clip-path="url(#clip0_25745_436028)">
<rect x="21" y="131" width="85" height="26" rx="4" fill="#475161"/>
<path d="M37.1096 138.818H38.6507V145.515C38.6507 146.228 38.4834 146.859 38.1486 147.409C37.8139 147.956 37.3432 148.387 36.7367 148.702C36.1301 149.013 35.4192 149.169 34.6039 149.169C33.7918 149.169 33.0826 149.013 32.476 148.702C31.8695 148.387 31.3989 147.956 31.0641 147.409C30.7293 146.859 30.562 146.228 30.562 145.515V138.818H32.0982V145.391C32.0982 145.851 32.1993 146.261 32.4015 146.619C32.6069 146.977 32.897 147.258 33.2715 147.464C33.646 147.666 34.0901 147.767 34.6039 147.767C35.1209 147.767 35.5667 147.666 35.9412 147.464C36.3191 147.258 36.6074 146.977 36.8063 146.619C37.0085 146.261 37.1096 145.851 37.1096 145.391V138.818ZM40.7649 151.864V141.364H42.2166V142.602H42.3409C42.4271 142.442 42.5514 142.259 42.7138 142.05C42.8762 141.841 43.1016 141.659 43.3899 141.503C43.6783 141.344 44.0594 141.264 44.5334 141.264C45.1499 141.264 45.7 141.42 46.1839 141.732C46.6679 142.043 47.0473 142.492 47.3224 143.079C47.6009 143.665 47.7401 144.371 47.7401 145.197C47.7401 146.022 47.6025 146.73 47.3274 147.32C47.0523 147.906 46.6745 148.359 46.1939 148.677C45.7133 148.992 45.1648 149.149 44.5483 149.149C44.0843 149.149 43.7048 149.071 43.4098 148.915C43.1181 148.76 42.8894 148.577 42.7237 148.369C42.558 148.16 42.4304 147.974 42.3409 147.812H42.2514V151.864H40.7649ZM42.2216 145.182C42.2216 145.719 42.2995 146.189 42.4553 146.594C42.611 146.998 42.8364 147.315 43.1314 147.543C43.4264 147.769 43.7876 147.881 44.2152 147.881C44.6593 147.881 45.0305 147.764 45.3288 147.528C45.6271 147.29 45.8525 146.967 46.005 146.559C46.1607 146.151 46.2386 145.692 46.2386 145.182C46.2386 144.678 46.1624 144.226 46.0099 143.825C45.8608 143.424 45.6354 143.107 45.3338 142.875C45.0355 142.643 44.6626 142.527 44.2152 142.527C43.7843 142.527 43.4197 142.638 43.1214 142.86C42.8265 143.082 42.6027 143.392 42.4503 143.79C42.2978 144.187 42.2216 144.652 42.2216 145.182ZM50.892 138.818V149H49.4055V138.818H50.892ZM56.1085 149.154C55.3926 149.154 54.7678 148.99 54.2342 148.662C53.7006 148.334 53.2863 147.875 52.9913 147.285C52.6963 146.695 52.5488 146.005 52.5488 145.217C52.5488 144.424 52.6963 143.732 52.9913 143.138C53.2863 142.545 53.7006 142.085 54.2342 141.756C54.7678 141.428 55.3926 141.264 56.1085 141.264C56.8244 141.264 57.4492 141.428 57.9828 141.756C58.5164 142.085 58.9307 142.545 59.2257 143.138C59.5207 143.732 59.6681 144.424 59.6681 145.217C59.6681 146.005 59.5207 146.695 59.2257 147.285C58.9307 147.875 58.5164 148.334 57.9828 148.662C57.4492 148.99 56.8244 149.154 56.1085 149.154ZM56.1135 147.906C56.5775 147.906 56.9619 147.784 57.2669 147.538C57.5718 147.293 57.7972 146.967 57.943 146.559C58.0922 146.151 58.1667 145.702 58.1667 145.212C58.1667 144.724 58.0922 144.277 57.943 143.869C57.7972 143.458 57.5718 143.129 57.2669 142.88C56.9619 142.631 56.5775 142.507 56.1135 142.507C55.6461 142.507 55.2583 142.631 54.9501 142.88C54.6452 143.129 54.4181 143.458 54.269 143.869C54.1232 144.277 54.0502 144.724 54.0502 145.212C54.0502 145.702 54.1232 146.151 54.269 146.559C54.4181 146.967 54.6452 147.293 54.9501 147.538C55.2583 147.784 55.6461 147.906 56.1135 147.906ZM63.5497 149.169C63.0658 149.169 62.6283 149.08 62.2372 148.901C61.8461 148.718 61.5362 148.455 61.3075 148.11C61.0821 147.765 60.9695 147.343 60.9695 146.842C60.9695 146.411 61.0523 146.057 61.218 145.778C61.3838 145.5 61.6075 145.28 61.8892 145.117C62.1709 144.955 62.4858 144.832 62.8338 144.749C63.1818 144.666 63.5365 144.603 63.8977 144.56C64.3551 144.507 64.7263 144.464 65.0114 144.431C65.2964 144.395 65.5036 144.337 65.6328 144.257C65.7621 144.178 65.8267 144.048 65.8267 143.869V143.835C65.8267 143.4 65.7041 143.064 65.4588 142.825C65.2169 142.587 64.8556 142.467 64.375 142.467C63.8745 142.467 63.4801 142.578 63.1918 142.8C62.9067 143.019 62.7095 143.263 62.6001 143.531L61.2031 143.213C61.3688 142.749 61.6108 142.375 61.929 142.089C62.2505 141.801 62.62 141.592 63.0376 141.463C63.4553 141.33 63.8944 141.264 64.3551 141.264C64.66 141.264 64.9832 141.301 65.3246 141.374C65.6693 141.443 65.9908 141.572 66.2891 141.761C66.5907 141.95 66.8376 142.22 67.0298 142.572C67.2221 142.92 67.3182 143.372 67.3182 143.929V149H65.8665V147.956H65.8068C65.7107 148.148 65.5665 148.337 65.3743 148.523C65.1821 148.708 64.9351 148.862 64.6335 148.985C64.3319 149.108 63.9706 149.169 63.5497 149.169ZM63.8729 147.976C64.2839 147.976 64.6352 147.895 64.9268 147.732C65.2218 147.57 65.4455 147.358 65.598 147.096C65.7538 146.831 65.8317 146.547 65.8317 146.246V145.261C65.7786 145.314 65.6759 145.364 65.5234 145.411C65.3743 145.454 65.2036 145.492 65.0114 145.525C64.8191 145.555 64.6319 145.583 64.4496 145.609C64.2673 145.633 64.1148 145.652 63.9922 145.669C63.7038 145.705 63.4403 145.767 63.2017 145.853C62.9664 145.939 62.7775 146.063 62.6349 146.226C62.4957 146.385 62.4261 146.597 62.4261 146.862C62.4261 147.23 62.562 147.509 62.8338 147.697C63.1056 147.883 63.4519 147.976 63.8729 147.976ZM72.1568 149.149C71.5403 149.149 70.9901 148.992 70.5062 148.677C70.0256 148.359 69.6478 147.906 69.3727 147.32C69.1009 146.73 68.965 146.022 68.965 145.197C68.965 144.371 69.1026 143.665 69.3777 143.079C69.6561 142.492 70.0372 142.043 70.5211 141.732C71.005 141.42 71.5536 141.264 72.1667 141.264C72.6407 141.264 73.0218 141.344 73.3102 141.503C73.6019 141.659 73.8272 141.841 73.9863 142.05C74.1487 142.259 74.2747 142.442 74.3642 142.602H74.4537V138.818H75.9402V149H74.4885V147.812H74.3642C74.2747 147.974 74.1454 148.16 73.9764 148.369C73.8107 148.577 73.582 148.76 73.2903 148.915C72.9986 149.071 72.6208 149.149 72.1568 149.149ZM72.4849 147.881C72.9125 147.881 73.2737 147.769 73.5687 147.543C73.867 147.315 74.0924 146.998 74.2449 146.594C74.4006 146.189 74.4785 145.719 74.4785 145.182C74.4785 144.652 74.4023 144.187 74.2498 143.79C74.0974 143.392 73.8736 143.082 73.5787 142.86C73.2837 142.638 72.9191 142.527 72.4849 142.527C72.0375 142.527 71.6646 142.643 71.3663 142.875C71.068 143.107 70.8426 143.424 70.6902 143.825C70.541 144.226 70.4664 144.678 70.4664 145.182C70.4664 145.692 70.5427 146.151 70.6951 146.559C70.8476 146.967 71.073 147.29 71.3713 147.528C71.6729 147.764 72.0441 147.881 72.4849 147.881ZM78.0618 149V141.364H79.5483V149H78.0618ZM78.8125 140.185C78.554 140.185 78.3319 140.099 78.1463 139.927C77.964 139.751 77.8729 139.542 77.8729 139.3C77.8729 139.055 77.964 138.846 78.1463 138.674C78.3319 138.498 78.554 138.411 78.8125 138.411C79.071 138.411 79.2914 138.498 79.4737 138.674C79.6593 138.846 79.7521 139.055 79.7521 139.3C79.7521 139.542 79.6593 139.751 79.4737 139.927C79.2914 140.099 79.071 140.185 78.8125 140.185ZM83.0346 144.466V149H81.5481V141.364H82.975V142.607H83.0694C83.2451 142.202 83.5202 141.877 83.8947 141.632C84.2725 141.387 84.7482 141.264 85.3216 141.264C85.8419 141.264 86.2976 141.374 86.6887 141.592C87.0798 141.808 87.3831 142.129 87.5985 142.557C87.814 142.984 87.9217 143.513 87.9217 144.143V149H86.4352V144.322C86.4352 143.768 86.291 143.336 86.0027 143.024C85.7143 142.709 85.3182 142.552 84.8145 142.552C84.4698 142.552 84.1632 142.626 83.8947 142.776C83.6296 142.925 83.4191 143.143 83.2633 143.432C83.1109 143.717 83.0346 144.062 83.0346 144.466ZM93.117 152.023C92.5105 152.023 91.9885 151.943 91.551 151.784C91.1168 151.625 90.7621 151.415 90.487 151.153C90.2119 150.891 90.0065 150.604 89.8706 150.293L91.1483 149.766C91.2377 149.911 91.3571 150.066 91.5062 150.228C91.6587 150.394 91.8642 150.535 92.1227 150.651C92.3845 150.767 92.7209 150.825 93.1319 150.825C93.6954 150.825 94.161 150.687 94.5289 150.412C94.8968 150.14 95.0808 149.706 95.0808 149.109V147.608H94.9863C94.8968 147.77 94.7676 147.951 94.5985 148.15C94.4328 148.349 94.2041 148.521 93.9125 148.667C93.6208 148.813 93.2413 148.886 92.774 148.886C92.1708 148.886 91.6272 148.745 91.1433 148.463C90.6627 148.178 90.2815 147.759 89.9998 147.205C89.7214 146.648 89.5822 145.964 89.5822 145.152C89.5822 144.34 89.7198 143.644 89.9949 143.064C90.2733 142.484 90.6544 142.04 91.1383 141.732C91.6222 141.42 92.1708 141.264 92.7839 141.264C93.2579 141.264 93.6407 141.344 93.9324 141.503C94.224 141.659 94.4511 141.841 94.6135 142.05C94.7792 142.259 94.9068 142.442 94.9963 142.602H95.1056V141.364H96.5623V149.169C96.5623 149.825 96.4099 150.364 96.1049 150.785C95.8 151.206 95.3874 151.517 94.867 151.719C94.35 151.922 93.7666 152.023 93.117 152.023ZM93.1021 147.653C93.5297 147.653 93.8909 147.553 94.1859 147.354C94.4842 147.152 94.7096 146.864 94.862 146.489C95.0178 146.112 95.0957 145.659 95.0957 145.132C95.0957 144.618 95.0195 144.166 94.867 143.775C94.7145 143.384 94.4908 143.079 94.1958 142.86C93.9009 142.638 93.5363 142.527 93.1021 142.527C92.6547 142.527 92.2818 142.643 91.9835 142.875C91.6852 143.104 91.4598 143.415 91.3074 143.81C91.1582 144.204 91.0836 144.645 91.0836 145.132C91.0836 145.633 91.1599 146.072 91.3123 146.45C91.4648 146.827 91.6902 147.122 91.9885 147.335C92.2901 147.547 92.6613 147.653 93.1021 147.653Z" fill="#FAFAFA"/>
</g>
<g clip-path="url(#clip1_25745_436028)">
<rect x="21" y="29" width="90" height="26" rx="4" fill="#475161"/>
<path d="M33.6238 47H30.3276V36.8182H33.7282C34.7258 36.8182 35.5826 37.022 36.2985 37.4297C37.0144 37.834 37.5629 38.4157 37.9441 39.1747C38.3285 39.9304 38.5208 40.8369 38.5208 41.8942C38.5208 42.9548 38.3269 43.8662 37.9391 44.6286C37.5546 45.3909 36.9978 45.9775 36.2686 46.3885C35.5395 46.7962 34.6578 47 33.6238 47ZM31.8638 45.6577H33.5392C34.3148 45.6577 34.9595 45.5118 35.4732 45.2202C35.9869 44.9252 36.3714 44.4993 36.6266 43.9425C36.8818 43.3823 37.0094 42.6996 37.0094 41.8942C37.0094 41.0954 36.8818 40.4176 36.6266 39.8608C36.3747 39.304 35.9985 38.8814 35.498 38.593C34.9976 38.3047 34.3761 38.1605 33.6337 38.1605H31.8638V45.6577ZM45.1491 43.8331V39.3636H46.6406V47H45.179V45.6776H45.0994C44.9238 46.0852 44.642 46.425 44.2543 46.6967C43.8698 46.9652 43.3909 47.0994 42.8175 47.0994C42.3269 47.0994 41.8928 46.9917 41.5149 46.7763C41.1404 46.5575 40.8454 46.2344 40.63 45.8068C40.4179 45.3793 40.3118 44.8506 40.3118 44.2209V39.3636H41.7983V44.0419C41.7983 44.5623 41.9425 44.9766 42.2308 45.2848C42.5192 45.593 42.8937 45.7472 43.3544 45.7472C43.6328 45.7472 43.9096 45.6776 44.1847 45.5384C44.4631 45.3991 44.6934 45.1887 44.8757 44.907C45.0613 44.6252 45.1525 44.2673 45.1491 43.8331ZM51.9292 47.1541C51.1768 47.1541 50.5288 46.9934 49.9853 46.6719C49.445 46.3471 49.0274 45.8913 48.7324 45.3047C48.4408 44.7147 48.2949 44.0237 48.2949 43.2315C48.2949 42.4493 48.4408 41.7599 48.7324 41.1634C49.0274 40.5668 49.4384 40.1011 49.9654 39.7663C50.4957 39.4316 51.1155 39.2642 51.8248 39.2642C52.2556 39.2642 52.6732 39.3355 53.0776 39.478C53.4819 39.6205 53.8449 39.8442 54.1664 40.1491C54.4879 40.4541 54.7414 40.8501 54.927 41.3374C55.1126 41.8213 55.2054 42.4096 55.2054 43.1023V43.6293H49.1351V42.5156H53.7488C53.7488 42.1245 53.6692 41.7782 53.5101 41.4766C53.351 41.1716 53.1273 40.9313 52.839 40.7557C52.5539 40.58 52.2192 40.4922 51.8347 40.4922C51.4171 40.4922 51.0525 40.5949 50.7409 40.8004C50.4327 41.0026 50.1941 41.2678 50.025 41.5959C49.8593 41.9207 49.7765 42.2737 49.7765 42.6548V43.5249C49.7765 44.0353 49.8659 44.4695 50.0449 44.8274C50.2272 45.1854 50.4808 45.4588 50.8056 45.6477C51.1304 45.8333 51.5099 45.9261 51.9441 45.9261C52.2258 45.9261 52.4827 45.8864 52.7147 45.8068C52.9467 45.724 53.1472 45.6013 53.3162 45.4389C53.4853 45.2765 53.6145 45.076 53.704 44.8374L55.111 45.0909C54.9983 45.5052 54.7961 45.8681 54.5044 46.1797C54.2161 46.4879 53.8532 46.7282 53.4157 46.9006C52.9815 47.0696 52.486 47.1541 51.9292 47.1541ZM60.5598 47V39.3636H62.0463V47H60.5598ZM61.3105 38.1854C61.052 38.1854 60.83 38.0992 60.6444 37.9268C60.4621 37.7512 60.3709 37.5424 60.3709 37.3004C60.3709 37.0552 60.4621 36.8464 60.6444 36.674C60.83 36.4983 61.052 36.4105 61.3105 36.4105C61.5691 36.4105 61.7895 36.4983 61.9718 36.674C62.1574 36.8464 62.2502 37.0552 62.2502 37.3004C62.2502 37.5424 62.1574 37.7512 61.9718 37.9268C61.7895 38.0992 61.5691 38.1854 61.3105 38.1854ZM65.5327 42.4659V47H64.0462V39.3636H65.473V40.6065H65.5675C65.7431 40.2022 66.0182 39.8774 66.3928 39.6321C66.7706 39.3868 67.2462 39.2642 67.8196 39.2642C68.34 39.2642 68.7957 39.3736 69.1868 39.5923C69.5779 39.8078 69.8812 40.1293 70.0966 40.5568C70.312 40.9844 70.4197 41.513 70.4197 42.1428V47H68.9332V42.3217C68.9332 41.7682 68.7891 41.3357 68.5007 41.0241C68.2124 40.7093 67.8163 40.5518 67.3125 40.5518C66.9678 40.5518 66.6612 40.6264 66.3928 40.7756C66.1276 40.9247 65.9171 41.1435 65.7614 41.4318C65.6089 41.7169 65.5327 42.0616 65.5327 42.4659ZM79.9615 36.8182V47H78.4203V38.3594H78.3606L75.9245 39.9503V38.4787L78.465 36.8182H79.9615ZM86.0765 47.1392C85.4534 47.1392 84.8933 47.0199 84.3961 46.7812C83.9023 46.5393 83.5079 46.2079 83.2129 45.7869C82.9179 45.366 82.7605 44.8854 82.7406 44.3452H84.2321C84.2685 44.7827 84.4624 45.1423 84.8137 45.424C85.1651 45.7057 85.586 45.8466 86.0765 45.8466C86.4676 45.8466 86.814 45.7571 87.1156 45.5781C87.4205 45.3958 87.6592 45.1456 87.8315 44.8274C88.0072 44.5092 88.095 44.1463 88.095 43.7386C88.095 43.3243 88.0055 42.9548 87.8265 42.63C87.6476 42.3052 87.4006 42.05 87.0858 41.8643C86.7742 41.6787 86.4163 41.5843 86.0119 41.581C85.7037 41.581 85.3938 41.634 85.0822 41.7401C84.7707 41.8461 84.5188 41.9853 84.3265 42.1577L82.9196 41.9489L83.4913 36.8182H89.0893V38.1357H84.769L84.4458 40.9844H84.5055C84.7044 40.7921 84.9679 40.6314 85.296 40.5021C85.6274 40.3729 85.9821 40.3082 86.3599 40.3082C86.9797 40.3082 87.5315 40.4557 88.0154 40.7507C88.5027 41.0457 88.8855 41.4484 89.1639 41.9588C89.4456 42.4659 89.5848 43.0492 89.5815 43.7088C89.5848 44.3684 89.4357 44.9567 89.1341 45.4737C88.8358 45.9908 88.4215 46.3984 87.8912 46.6967C87.3642 46.9917 86.7593 47.1392 86.0765 47.1392ZM91.4173 47V39.3636H92.8441V40.6065H92.9386C93.0977 40.1856 93.3578 39.8575 93.7191 39.6222C94.0804 39.3835 94.5129 39.2642 95.0167 39.2642C95.5271 39.2642 95.9547 39.3835 96.2994 39.6222C96.6474 39.8608 96.9042 40.1889 97.07 40.6065H97.1495C97.3318 40.1989 97.6218 39.8741 98.0195 39.6321C98.4173 39.3868 98.8912 39.2642 99.4414 39.2642C100.134 39.2642 100.699 39.4813 101.137 39.9155C101.578 40.3497 101.798 41.0043 101.798 41.8793V47H100.311V42.0185C100.311 41.5014 100.171 41.1269 99.8888 40.8949C99.6071 40.6629 99.2707 40.5469 98.8796 40.5469C98.3957 40.5469 98.0195 40.696 97.7511 40.9943C97.4826 41.2893 97.3484 41.6688 97.3484 42.1328V47H95.8668V41.924C95.8668 41.5097 95.7376 41.1766 95.479 40.9247C95.2205 40.6728 94.8841 40.5469 94.4698 40.5469C94.1881 40.5469 93.9279 40.6214 93.6893 40.7706C93.454 40.9164 93.2634 41.1203 93.1175 41.3821C92.975 41.6439 92.9038 41.9472 92.9038 42.2919V47H91.4173Z" fill="#FAFAFA"/>
</g>
<g clip-path="url(#clip2_25745_436028)">
<rect x="21" y="97" width="103" height="26" rx="4" fill="#4E1D28"/>
<path d="M34.2417 104.818V115H32.7006V106.359H32.6409L30.2048 107.95V106.479L32.7453 104.818H34.2417ZM40.5407 115.169C39.7552 115.166 39.0841 114.959 38.5273 114.548C37.9704 114.137 37.5445 113.538 37.2496 112.753C36.9546 111.967 36.8071 111.021 36.8071 109.914C36.8071 108.81 36.9546 107.867 37.2496 107.085C37.5479 106.303 37.9754 105.706 38.5322 105.295C39.0924 104.884 39.7619 104.679 40.5407 104.679C41.3196 104.679 41.9875 104.886 42.5443 105.3C43.1011 105.711 43.527 106.308 43.822 107.09C44.1203 107.869 44.2694 108.81 44.2694 109.914C44.2694 111.024 44.122 111.972 43.827 112.758C43.532 113.54 43.1061 114.138 42.5493 114.553C41.9925 114.964 41.3229 115.169 40.5407 115.169ZM40.5407 113.842C41.2301 113.842 41.7687 113.505 42.1565 112.832C42.5476 112.16 42.7432 111.187 42.7432 109.914C42.7432 109.069 42.6537 108.355 42.4747 107.771C42.299 107.185 42.0455 106.741 41.714 106.439C41.3859 106.134 40.9948 105.982 40.5407 105.982C39.8547 105.982 39.3161 106.32 38.925 106.996C38.5339 107.672 38.3367 108.645 38.3334 109.914C38.3334 110.763 38.4212 111.48 38.5969 112.067C38.7758 112.65 39.0294 113.093 39.3575 113.394C39.6856 113.692 40.08 113.842 40.5407 113.842ZM46.053 115V107.364H47.4798V108.607H47.5743C47.7334 108.186 47.9936 107.857 48.3548 107.622C48.7161 107.384 49.1486 107.264 49.6524 107.264C50.1628 107.264 50.5904 107.384 50.9351 107.622C51.2831 107.861 51.54 108.189 51.7057 108.607H51.7852C51.9675 108.199 52.2575 107.874 52.6553 107.632C53.053 107.387 53.527 107.264 54.0771 107.264C54.7699 107.264 55.335 107.481 55.7725 107.915C56.2133 108.35 56.4337 109.004 56.4337 109.879V115H54.9472V110.018C54.9472 109.501 54.8063 109.127 54.5246 108.895C54.2429 108.663 53.9065 108.547 53.5154 108.547C53.0315 108.547 52.6553 108.696 52.3868 108.994C52.1183 109.289 51.9841 109.669 51.9841 110.133V115H50.5026V109.924C50.5026 109.51 50.3733 109.177 50.1148 108.925C49.8563 108.673 49.5199 108.547 49.1056 108.547C48.8238 108.547 48.5637 108.621 48.325 108.771C48.0897 108.916 47.8991 109.12 47.7533 109.382C47.6108 109.644 47.5395 109.947 47.5395 110.292V115H46.053ZM65.3477 115.154C64.6318 115.154 64.0071 114.99 63.4735 114.662C62.9398 114.334 62.5255 113.875 62.2306 113.285C61.9356 112.695 61.7881 112.005 61.7881 111.217C61.7881 110.424 61.9356 109.732 62.2306 109.138C62.5255 108.545 62.9398 108.085 63.4735 107.756C64.0071 107.428 64.6318 107.264 65.3477 107.264C66.0637 107.264 66.6884 107.428 67.222 107.756C67.7557 108.085 68.17 108.545 68.4649 109.138C68.7599 109.732 68.9074 110.424 68.9074 111.217C68.9074 112.005 68.7599 112.695 68.4649 113.285C68.17 113.875 67.7557 114.334 67.222 114.662C66.6884 114.99 66.0637 115.154 65.3477 115.154ZM65.3527 113.906C65.8167 113.906 66.2012 113.784 66.5061 113.538C66.8111 113.293 67.0364 112.967 67.1823 112.559C67.3314 112.151 67.406 111.702 67.406 111.212C67.406 110.724 67.3314 110.277 67.1823 109.869C67.0364 109.458 66.8111 109.129 66.5061 108.88C66.2012 108.631 65.8167 108.507 65.3527 108.507C64.8854 108.507 64.4976 108.631 64.1894 108.88C63.8844 109.129 63.6574 109.458 63.5083 109.869C63.3624 110.277 63.2895 110.724 63.2895 111.212C63.2895 111.702 63.3624 112.151 63.5083 112.559C63.6574 112.967 63.8844 113.293 64.1894 113.538C64.4976 113.784 64.8854 113.906 65.3527 113.906ZM76.8396 107.364L74.0704 115H72.4795L69.7053 107.364H71.3012L73.2352 113.24H73.3147L75.2437 107.364H76.8396ZM81.268 115.154C80.5157 115.154 79.8677 114.993 79.3241 114.672C78.7839 114.347 78.3663 113.891 78.0713 113.305C77.7796 112.715 77.6338 112.024 77.6338 111.232C77.6338 110.449 77.7796 109.76 78.0713 109.163C78.3663 108.567 78.7773 108.101 79.3042 107.766C79.8345 107.432 80.4543 107.264 81.1636 107.264C81.5945 107.264 82.0121 107.335 82.4165 107.478C82.8208 107.621 83.1837 107.844 83.5052 108.149C83.8267 108.454 84.0803 108.85 84.2659 109.337C84.4515 109.821 84.5443 110.41 84.5443 111.102V111.629H78.474V110.516H83.0876C83.0876 110.125 83.0081 109.778 82.849 109.477C82.6899 109.172 82.4662 108.931 82.1778 108.756C81.8928 108.58 81.558 108.492 81.1736 108.492C80.7559 108.492 80.3914 108.595 80.0798 108.8C79.7716 109.003 79.5329 109.268 79.3639 109.596C79.1982 109.921 79.1153 110.274 79.1153 110.655V111.525C79.1153 112.035 79.2048 112.469 79.3838 112.827C79.5661 113.185 79.8196 113.459 80.1444 113.648C80.4693 113.833 80.8488 113.926 81.2829 113.926C81.5647 113.926 81.8215 113.886 82.0535 113.807C82.2855 113.724 82.4861 113.601 82.6551 113.439C82.8241 113.277 82.9534 113.076 83.0429 112.837L84.4498 113.091C84.3372 113.505 84.135 113.868 83.8433 114.18C83.555 114.488 83.192 114.728 82.7545 114.901C82.3203 115.07 81.8248 115.154 81.268 115.154ZM86.1936 115V107.364H87.6304V108.577H87.71C87.8492 108.166 88.0944 107.843 88.4458 107.607C88.8004 107.369 89.2014 107.249 89.6489 107.249C89.7417 107.249 89.8511 107.253 89.977 107.259C90.1063 107.266 90.2074 107.274 90.2803 107.284V108.706C90.2206 108.689 90.1146 108.671 89.9621 108.651C89.8096 108.628 89.6572 108.616 89.5047 108.616C89.1534 108.616 88.8402 108.691 88.5651 108.84C88.2933 108.986 88.0779 109.19 87.9188 109.452C87.7597 109.71 87.6801 110.005 87.6801 110.337V115H86.1936ZM94.1519 115.149C93.5354 115.149 92.9852 114.992 92.5013 114.677C92.0207 114.359 91.6429 113.906 91.3678 113.32C91.096 112.73 90.9601 112.022 90.9601 111.197C90.9601 110.371 91.0977 109.665 91.3728 109.079C91.6512 108.492 92.0323 108.043 92.5162 107.732C93.0001 107.42 93.5487 107.264 94.1618 107.264C94.6358 107.264 95.017 107.344 95.3053 107.503C95.597 107.659 95.8224 107.841 95.9814 108.05C96.1439 108.259 96.2698 108.442 96.3593 108.602H96.4488V104.818H97.9353V115H96.4836V113.812H96.3593C96.2698 113.974 96.1405 114.16 95.9715 114.369C95.8058 114.577 95.5771 114.76 95.2854 114.915C94.9938 115.071 94.6159 115.149 94.1519 115.149ZM94.48 113.881C94.9076 113.881 95.2689 113.769 95.5638 113.543C95.8621 113.315 96.0875 112.998 96.24 112.594C96.3957 112.189 96.4736 111.719 96.4736 111.182C96.4736 110.652 96.3974 110.187 96.2449 109.79C96.0925 109.392 95.8688 109.082 95.5738 108.86C95.2788 108.638 94.9142 108.527 94.48 108.527C94.0326 108.527 93.6597 108.643 93.3614 108.875C93.0631 109.107 92.8377 109.424 92.6853 109.825C92.5361 110.226 92.4616 110.678 92.4616 111.182C92.4616 111.692 92.5378 112.151 92.6903 112.559C92.8427 112.967 93.0681 113.29 93.3664 113.528C93.668 113.764 94.0392 113.881 94.48 113.881ZM104.894 111.833V107.364H106.386V115H104.924V113.678H104.845C104.669 114.085 104.387 114.425 103.999 114.697C103.615 114.965 103.136 115.099 102.563 115.099C102.072 115.099 101.638 114.992 101.26 114.776C100.886 114.558 100.591 114.234 100.375 113.807C100.163 113.379 100.057 112.851 100.057 112.221V107.364H101.543V112.042C101.543 112.562 101.688 112.977 101.976 113.285C102.264 113.593 102.639 113.747 103.1 113.747C103.378 113.747 103.655 113.678 103.93 113.538C104.208 113.399 104.439 113.189 104.621 112.907C104.806 112.625 104.898 112.267 104.894 111.833ZM111.674 115.154C110.922 115.154 110.274 114.993 109.73 114.672C109.19 114.347 108.773 113.891 108.478 113.305C108.186 112.715 108.04 112.024 108.04 111.232C108.04 110.449 108.186 109.76 108.478 109.163C108.773 108.567 109.184 108.101 109.71 107.766C110.241 107.432 110.861 107.264 111.57 107.264C112.001 107.264 112.418 107.335 112.823 107.478C113.227 107.621 113.59 107.844 113.911 108.149C114.233 108.454 114.487 108.85 114.672 109.337C114.858 109.821 114.951 110.41 114.951 111.102V111.629H108.88V110.516H113.494C113.494 110.125 113.414 109.778 113.255 109.477C113.096 109.172 112.872 108.931 112.584 108.756C112.299 108.58 111.964 108.492 111.58 108.492C111.162 108.492 110.798 108.595 110.486 108.8C110.178 109.003 109.939 109.268 109.77 109.596C109.604 109.921 109.522 110.274 109.522 110.655V111.525C109.522 112.035 109.611 112.469 109.79 112.827C109.972 113.185 110.226 113.459 110.551 113.648C110.876 113.833 111.255 113.926 111.689 113.926C111.971 113.926 112.228 113.886 112.46 113.807C112.692 113.724 112.892 113.601 113.061 113.439C113.23 113.277 113.36 113.076 113.449 112.837L114.856 113.091C114.743 113.505 114.541 113.868 114.25 114.18C113.961 114.488 113.598 114.728 113.161 114.901C112.727 115.07 112.231 115.154 111.674 115.154Z" fill="#E56A77"/>
</g>
<g clip-path="url(#clip3_25745_436028)">
<rect x="21" y="201" width="119" height="26" rx="4" fill="#4E1D28"/>
<path d="M39.045 212.129H37.4939C37.4342 211.798 37.3232 211.506 37.1608 211.254C36.9984 211.002 36.7995 210.789 36.5642 210.613C36.3289 210.437 36.0654 210.305 35.7737 210.215C35.4854 210.126 35.1788 210.081 34.854 210.081C34.2673 210.081 33.742 210.228 33.278 210.523C32.8173 210.818 32.4527 211.251 32.1842 211.821C31.9191 212.391 31.7865 213.087 31.7865 213.909C31.7865 214.738 31.9191 215.437 32.1842 216.007C32.4527 216.577 32.8189 217.008 33.2829 217.3C33.747 217.591 34.269 217.737 34.849 217.737C35.1705 217.737 35.4754 217.694 35.7638 217.608C36.0554 217.518 36.3189 217.388 36.5542 217.215C36.7896 217.043 36.9884 216.832 37.1508 216.584C37.3166 216.332 37.4309 216.044 37.4939 215.719L39.045 215.724C38.9622 216.224 38.8014 216.685 38.5628 217.106C38.3274 217.523 38.0242 217.885 37.653 218.19C37.2851 218.491 36.8641 218.725 36.3902 218.891C35.9162 219.056 35.3992 219.139 34.839 219.139C33.9574 219.139 33.1719 218.93 32.4825 218.513C31.7931 218.092 31.2496 217.49 30.8518 216.708C30.4574 215.926 30.2602 214.993 30.2602 213.909C30.2602 212.822 30.4591 211.889 30.8568 211.11C31.2545 210.328 31.7981 209.728 32.4875 209.31C33.1769 208.889 33.9607 208.679 34.839 208.679C35.3793 208.679 35.8831 208.757 36.3504 208.913C36.8211 209.065 37.2436 209.29 37.6182 209.589C37.9927 209.884 38.3026 210.245 38.5479 210.673C38.7931 211.097 38.9588 211.582 39.045 212.129ZM43.9806 219.154C43.2646 219.154 42.6399 218.99 42.1063 218.662C41.5727 218.334 41.1584 217.875 40.8634 217.285C40.5684 216.695 40.4209 216.005 40.4209 215.217C40.4209 214.424 40.5684 213.732 40.8634 213.138C41.1584 212.545 41.5727 212.085 42.1063 211.756C42.6399 211.428 43.2646 211.264 43.9806 211.264C44.6965 211.264 45.3212 211.428 45.8548 211.756C46.3885 212.085 46.8028 212.545 47.0977 213.138C47.3927 213.732 47.5402 214.424 47.5402 215.217C47.5402 216.005 47.3927 216.695 47.0977 217.285C46.8028 217.875 46.3885 218.334 45.8548 218.662C45.3212 218.99 44.6965 219.154 43.9806 219.154ZM43.9855 217.906C44.4495 217.906 44.834 217.784 45.1389 217.538C45.4439 217.293 45.6692 216.967 45.8151 216.559C45.9642 216.151 46.0388 215.702 46.0388 215.212C46.0388 214.724 45.9642 214.277 45.8151 213.869C45.6692 213.458 45.4439 213.129 45.1389 212.88C44.834 212.631 44.4495 212.507 43.9855 212.507C43.5182 212.507 43.1304 212.631 42.8222 212.88C42.5173 213.129 42.2902 213.458 42.1411 213.869C41.9952 214.277 41.9223 214.724 41.9223 215.212C41.9223 215.702 41.9952 216.151 42.1411 216.559C42.2902 216.967 42.5173 217.293 42.8222 217.538C43.1304 217.784 43.5182 217.906 43.9855 217.906ZM49.1995 219V211.364H50.6263V212.607H50.7208C50.8799 212.186 51.1401 211.857 51.5013 211.622C51.8626 211.384 52.2951 211.264 52.7989 211.264C53.3093 211.264 53.7369 211.384 54.0816 211.622C54.4296 211.861 54.6865 212.189 54.8522 212.607H54.9317C55.114 212.199 55.404 211.874 55.8018 211.632C56.1995 211.387 56.6734 211.264 57.2236 211.264C57.9163 211.264 58.4814 211.481 58.9189 211.915C59.3598 212.35 59.5802 213.004 59.5802 213.879V219H58.0937V214.018C58.0937 213.501 57.9528 213.127 57.6711 212.895C57.3894 212.663 57.0529 212.547 56.6618 212.547C56.1779 212.547 55.8018 212.696 55.5333 212.994C55.2648 213.289 55.1306 213.669 55.1306 214.133V219H53.6491V213.924C53.6491 213.51 53.5198 213.177 53.2613 212.925C53.0028 212.673 52.6663 212.547 52.252 212.547C51.9703 212.547 51.7101 212.621 51.4715 212.771C51.2362 212.916 51.0456 213.12 50.8998 213.382C50.7573 213.644 50.686 213.947 50.686 214.292V219H49.1995ZM61.5725 221.864V211.364H63.0242V212.602H63.1485C63.2347 212.442 63.359 212.259 63.5214 212.05C63.6838 211.841 63.9092 211.659 64.1975 211.503C64.4859 211.344 64.867 211.264 65.341 211.264C65.9575 211.264 66.5077 211.42 66.9916 211.732C67.4755 212.043 67.855 212.492 68.1301 213.079C68.4085 213.665 68.5477 214.371 68.5477 215.197C68.5477 216.022 68.4101 216.73 68.135 217.32C67.8599 217.906 67.4821 218.359 67.0015 218.677C66.5209 218.992 65.9724 219.149 65.3559 219.149C64.8919 219.149 64.5124 219.071 64.2174 218.915C63.9258 218.76 63.6971 218.577 63.5313 218.369C63.3656 218.16 63.238 217.974 63.1485 217.812H63.059V221.864H61.5725ZM63.0292 215.182C63.0292 215.719 63.1071 216.189 63.2629 216.594C63.4186 216.998 63.644 217.315 63.939 217.543C64.234 217.769 64.5953 217.881 65.0228 217.881C65.4669 217.881 65.8382 217.764 66.1365 217.528C66.4347 217.29 66.6601 216.967 66.8126 216.559C66.9684 216.151 67.0463 215.692 67.0463 215.182C67.0463 214.678 66.97 214.226 66.8176 213.825C66.6684 213.424 66.443 213.107 66.1414 212.875C65.8431 212.643 65.4703 212.527 65.0228 212.527C64.5919 212.527 64.2274 212.638 63.9291 212.86C63.6341 213.082 63.4104 213.392 63.2579 213.79C63.1054 214.187 63.0292 214.652 63.0292 215.182ZM71.6997 208.818V219H70.2132V208.818H71.6997ZM76.9907 219.154C76.2383 219.154 75.5903 218.993 75.0468 218.672C74.5065 218.347 74.0889 217.891 73.7939 217.305C73.5023 216.715 73.3564 216.024 73.3564 215.232C73.3564 214.449 73.5023 213.76 73.7939 213.163C74.0889 212.567 74.4999 212.101 75.0269 211.766C75.5572 211.432 76.177 211.264 76.8863 211.264C77.3171 211.264 77.7348 211.335 78.1391 211.478C78.5435 211.621 78.9064 211.844 79.2279 212.149C79.5494 212.454 79.8029 212.85 79.9885 213.337C80.1742 213.821 80.267 214.41 80.267 215.102V215.629H74.1966V214.516H78.8103C78.8103 214.125 78.7307 213.778 78.5716 213.477C78.4126 213.172 78.1888 212.931 77.9005 212.756C77.6154 212.58 77.2807 212.492 76.8962 212.492C76.4786 212.492 76.114 212.595 75.8025 212.8C75.4942 213.003 75.2556 213.268 75.0866 213.596C74.9208 213.921 74.838 214.274 74.838 214.655V215.525C74.838 216.035 74.9275 216.469 75.1064 216.827C75.2887 217.185 75.5423 217.459 75.8671 217.648C76.1919 217.833 76.5714 217.926 77.0056 217.926C77.2873 217.926 77.5442 217.886 77.7762 217.807C78.0082 217.724 78.2087 217.601 78.3778 217.439C78.5468 217.277 78.676 217.076 78.7655 216.837L80.1725 217.091C80.0598 217.505 79.8576 217.868 79.566 218.18C79.2776 218.488 78.9147 218.728 78.4772 218.901C78.043 219.07 77.5475 219.154 76.9907 219.154ZM85.4809 211.364V212.557H81.3097V211.364H85.4809ZM82.4284 209.534H83.9149V216.758C83.9149 217.046 83.9579 217.263 84.0441 217.409C84.1303 217.552 84.2413 217.649 84.3772 217.702C84.5164 217.752 84.6672 217.777 84.8296 217.777C84.949 217.777 85.0534 217.769 85.1428 217.752C85.2323 217.736 85.3019 217.722 85.3517 217.712L85.6201 218.94C85.5339 218.973 85.4113 219.007 85.2522 219.04C85.0931 219.076 84.8943 219.096 84.6556 219.099C84.2645 219.106 83.8999 219.036 83.5619 218.891C83.2238 218.745 82.9504 218.519 82.7416 218.214C82.5328 217.91 82.4284 217.527 82.4284 217.066V209.534ZM90.3344 219.154C89.5821 219.154 88.9341 218.993 88.3905 218.672C87.8503 218.347 87.4327 217.891 87.1377 217.305C86.846 216.715 86.7002 216.024 86.7002 215.232C86.7002 214.449 86.846 213.76 87.1377 213.163C87.4327 212.567 87.8437 212.101 88.3706 211.766C88.901 211.432 89.5207 211.264 90.23 211.264C90.6609 211.264 91.0785 211.335 91.4829 211.478C91.8872 211.621 92.2501 211.844 92.5716 212.149C92.8931 212.454 93.1467 212.85 93.3323 213.337C93.5179 213.821 93.6107 214.41 93.6107 215.102V215.629H87.5404V214.516H92.154C92.154 214.125 92.0745 213.778 91.9154 213.477C91.7563 213.172 91.5326 212.931 91.2442 212.756C90.9592 212.58 90.6244 212.492 90.24 212.492C89.8224 212.492 89.4578 212.595 89.1462 212.8C88.838 213.003 88.5993 213.268 88.4303 213.596C88.2646 213.921 88.1817 214.274 88.1817 214.655V215.525C88.1817 216.035 88.2712 216.469 88.4502 216.827C88.6325 217.185 88.886 217.459 89.2108 217.648C89.5357 217.833 89.9152 217.926 90.3493 217.926C90.6311 217.926 90.8879 217.886 91.1199 217.807C91.3519 217.724 91.5525 217.601 91.7215 217.439C91.8905 217.277 92.0198 217.076 92.1093 216.837L93.5162 217.091C93.4036 217.505 93.2014 217.868 92.9097 218.18C92.6214 218.488 92.2584 218.728 91.8209 218.901C91.3867 219.07 90.8912 219.154 90.3344 219.154ZM98.1187 219.149C97.5022 219.149 96.952 218.992 96.4681 218.677C95.9875 218.359 95.6097 217.906 95.3346 217.32C95.0628 216.73 94.9269 216.022 94.9269 215.197C94.9269 214.371 95.0645 213.665 95.3396 213.079C95.618 212.492 95.9991 212.043 96.483 211.732C96.9669 211.42 97.5155 211.264 98.1286 211.264C98.6026 211.264 98.9838 211.344 99.2721 211.503C99.5638 211.659 99.7892 211.841 99.9482 212.05C100.111 212.259 100.237 212.442 100.326 212.602H100.416V208.818H101.902V219H100.45V217.812H100.326C100.237 217.974 100.107 218.16 99.9383 218.369C99.7726 218.577 99.5439 218.76 99.2522 218.915C98.9606 219.071 98.5827 219.149 98.1187 219.149ZM98.4468 217.881C98.8744 217.881 99.2356 217.769 99.5306 217.543C99.8289 217.315 100.054 216.998 100.207 216.594C100.363 216.189 100.44 215.719 100.44 215.182C100.44 214.652 100.364 214.187 100.212 213.79C100.059 213.392 99.8356 213.082 99.5406 212.86C99.2456 212.638 98.881 212.527 98.4468 212.527C97.9994 212.527 97.6265 212.643 97.3282 212.875C97.0299 213.107 96.8045 213.424 96.6521 213.825C96.5029 214.226 96.4284 214.678 96.4284 215.182C96.4284 215.692 96.5046 216.151 96.657 216.559C96.8095 216.967 97.0349 217.29 97.3332 217.528C97.6348 217.764 98.006 217.881 98.4468 217.881ZM109.215 208.818V219H107.729V208.818H109.215ZM113.437 219.169C112.954 219.169 112.516 219.08 112.125 218.901C111.734 218.718 111.424 218.455 111.195 218.11C110.97 217.765 110.857 217.343 110.857 216.842C110.857 216.411 110.94 216.057 111.106 215.778C111.271 215.5 111.495 215.28 111.777 215.117C112.059 214.955 112.373 214.832 112.722 214.749C113.07 214.666 113.424 214.603 113.785 214.56C114.243 214.507 114.614 214.464 114.899 214.431C115.184 214.395 115.391 214.337 115.521 214.257C115.65 214.178 115.714 214.048 115.714 213.869V213.835C115.714 213.4 115.592 213.064 115.347 212.825C115.105 212.587 114.743 212.467 114.263 212.467C113.762 212.467 113.368 212.578 113.079 212.8C112.794 213.019 112.597 213.263 112.488 213.531L111.091 213.213C111.257 212.749 111.498 212.375 111.817 212.089C112.138 211.801 112.508 211.592 112.925 211.463C113.343 211.33 113.782 211.264 114.243 211.264C114.548 211.264 114.871 211.301 115.212 211.374C115.557 211.443 115.878 211.572 116.177 211.761C116.478 211.95 116.725 212.22 116.918 212.572C117.11 212.92 117.206 213.372 117.206 213.929V219H115.754V217.956H115.695C115.598 218.148 115.454 218.337 115.262 218.523C115.07 218.708 114.823 218.862 114.521 218.985C114.22 219.108 113.858 219.169 113.437 219.169ZM113.761 217.976C114.172 217.976 114.523 217.895 114.815 217.732C115.11 217.57 115.333 217.358 115.486 217.096C115.641 216.831 115.719 216.547 115.719 216.246V215.261C115.666 215.314 115.564 215.364 115.411 215.411C115.262 215.454 115.091 215.492 114.899 215.525C114.707 215.555 114.52 215.583 114.337 215.609C114.155 215.633 114.003 215.652 113.88 215.669C113.592 215.705 113.328 215.767 113.089 215.853C112.854 215.939 112.665 216.063 112.523 216.226C112.383 216.385 112.314 216.597 112.314 216.862C112.314 217.23 112.45 217.509 112.722 217.697C112.993 217.883 113.34 217.976 113.761 217.976ZM122.75 211.364V212.557H118.579V211.364H122.75ZM119.698 209.534H121.184V216.758C121.184 217.046 121.227 217.263 121.314 217.409C121.4 217.552 121.511 217.649 121.647 217.702C121.786 217.752 121.937 217.777 122.099 217.777C122.218 217.777 122.323 217.769 122.412 217.752C122.502 217.736 122.571 217.722 122.621 217.712L122.89 218.94C122.803 218.973 122.681 219.007 122.522 219.04C122.363 219.076 122.164 219.096 121.925 219.099C121.534 219.106 121.169 219.036 120.831 218.891C120.493 218.745 120.22 218.519 120.011 218.214C119.802 217.91 119.698 217.527 119.698 217.066V209.534ZM127.604 219.154C126.852 219.154 126.204 218.993 125.66 218.672C125.12 218.347 124.702 217.891 124.407 217.305C124.116 216.715 123.97 216.024 123.97 215.232C123.97 214.449 124.116 213.76 124.407 213.163C124.702 212.567 125.113 212.101 125.64 211.766C126.17 211.432 126.79 211.264 127.5 211.264C127.93 211.264 128.348 211.335 128.752 211.478C129.157 211.621 129.52 211.844 129.841 212.149C130.163 212.454 130.416 212.85 130.602 213.337C130.787 213.821 130.88 214.41 130.88 215.102V215.629H124.81V214.516H129.424C129.424 214.125 129.344 213.778 129.185 213.477C129.026 213.172 128.802 212.931 128.514 212.756C128.229 212.58 127.894 212.492 127.509 212.492C127.092 212.492 126.727 212.595 126.416 212.8C126.108 213.003 125.869 213.268 125.7 213.596C125.534 213.921 125.451 214.274 125.451 214.655V215.525C125.451 216.035 125.541 216.469 125.72 216.827C125.902 217.185 126.156 217.459 126.48 217.648C126.805 217.833 127.185 217.926 127.619 217.926C127.901 217.926 128.157 217.886 128.389 217.807C128.621 217.724 128.822 217.601 128.991 217.439C129.16 217.277 129.289 217.076 129.379 216.837L130.786 217.091C130.673 217.505 130.471 217.868 130.179 218.18C129.891 218.488 129.528 218.728 129.09 218.901C128.656 219.07 128.161 219.154 127.604 219.154Z" fill="#E56A77"/>
</g>
<g clip-path="url(#clip4_25745_436028)">
<rect x="21" y="166" width="90" height="26" rx="4" fill="#205141"/>
<path d="M38.7979 177.129H37.2468C37.1871 176.798 37.0761 176.506 36.9137 176.254C36.7513 176.002 36.5524 175.789 36.3171 175.613C36.0818 175.437 35.8183 175.305 35.5266 175.215C35.2383 175.126 34.9317 175.081 34.6069 175.081C34.0202 175.081 33.4949 175.228 33.0309 175.523C32.5702 175.818 32.2056 176.251 31.9371 176.821C31.672 177.391 31.5394 178.087 31.5394 178.909C31.5394 179.738 31.672 180.437 31.9371 181.007C32.2056 181.577 32.5719 182.008 33.0359 182.3C33.4999 182.591 34.0219 182.737 34.6019 182.737C34.9234 182.737 35.2283 182.694 35.5167 182.608C35.8084 182.518 36.0719 182.388 36.3072 182.215C36.5425 182.043 36.7414 181.832 36.9038 181.584C37.0695 181.332 37.1838 181.044 37.2468 180.719L38.7979 180.724C38.7151 181.224 38.5543 181.685 38.3157 182.106C38.0804 182.523 37.7771 182.885 37.4059 183.19C37.038 183.491 36.6171 183.725 36.1431 183.891C35.6692 184.056 35.1521 184.139 34.592 184.139C33.7103 184.139 32.9248 183.93 32.2354 183.513C31.546 183.092 31.0025 182.49 30.6048 181.708C30.2103 180.926 30.0131 179.993 30.0131 178.909C30.0131 177.822 30.212 176.889 30.6097 176.11C31.0075 175.328 31.551 174.728 32.2404 174.31C32.9298 173.889 33.7137 173.679 34.592 173.679C35.1322 173.679 35.636 173.757 36.1033 173.913C36.574 174.065 36.9966 174.29 37.3711 174.589C37.7456 174.884 38.0555 175.245 38.3008 175.673C38.546 176.097 38.7118 176.582 38.7979 177.129ZM43.7335 184.154C43.0176 184.154 42.3928 183.99 41.8592 183.662C41.3256 183.334 40.9113 182.875 40.6163 182.285C40.3213 181.695 40.1738 181.005 40.1738 180.217C40.1738 179.424 40.3213 178.732 40.6163 178.138C40.9113 177.545 41.3256 177.085 41.8592 176.756C42.3928 176.428 43.0176 176.264 43.7335 176.264C44.4494 176.264 45.0742 176.428 45.6078 176.756C46.1414 177.085 46.5557 177.545 46.8507 178.138C47.1457 178.732 47.2931 179.424 47.2931 180.217C47.2931 181.005 47.1457 181.695 46.8507 182.285C46.5557 182.875 46.1414 183.334 45.6078 183.662C45.0742 183.99 44.4494 184.154 43.7335 184.154ZM43.7385 182.906C44.2025 182.906 44.5869 182.784 44.8919 182.538C45.1968 182.293 45.4222 181.967 45.568 181.559C45.7172 181.151 45.7917 180.702 45.7917 180.212C45.7917 179.724 45.7172 179.277 45.568 178.869C45.4222 178.458 45.1968 178.129 44.8919 177.88C44.5869 177.631 44.2025 177.507 43.7385 177.507C43.2711 177.507 42.8833 177.631 42.5751 177.88C42.2702 178.129 42.0431 178.458 41.894 178.869C41.7482 179.277 41.6752 179.724 41.6752 180.212C41.6752 180.702 41.7482 181.151 41.894 181.559C42.0431 181.967 42.2702 182.293 42.5751 182.538C42.8833 182.784 43.2711 182.906 43.7385 182.906ZM48.9524 184V176.364H50.3793V177.607H50.4737C50.6328 177.186 50.893 176.857 51.2543 176.622C51.6155 176.384 52.0481 176.264 52.5518 176.264C53.0623 176.264 53.4898 176.384 53.8345 176.622C54.1825 176.861 54.4394 177.189 54.6051 177.607H54.6847C54.867 177.199 55.157 176.874 55.5547 176.632C55.9524 176.387 56.4264 176.264 56.9766 176.264C57.6693 176.264 58.2344 176.481 58.6719 176.915C59.1127 177.35 59.3331 178.004 59.3331 178.879V184H57.8466V179.018C57.8466 178.501 57.7057 178.127 57.424 177.895C57.1423 177.663 56.8059 177.547 56.4148 177.547C55.9309 177.547 55.5547 177.696 55.2862 177.994C55.0178 178.289 54.8835 178.669 54.8835 179.133V184H53.402V178.924C53.402 178.51 53.2727 178.177 53.0142 177.925C52.7557 177.673 52.4193 177.547 52.005 177.547C51.7232 177.547 51.4631 177.621 51.2244 177.771C50.9891 177.916 50.7985 178.12 50.6527 178.382C50.5102 178.644 50.4389 178.947 50.4389 179.292V184H48.9524ZM61.3255 186.864V176.364H62.7772V177.602H62.9015C62.9876 177.442 63.1119 177.259 63.2743 177.05C63.4367 176.841 63.6621 176.659 63.9505 176.503C64.2388 176.344 64.62 176.264 65.0939 176.264C65.7104 176.264 66.2606 176.42 66.7445 176.732C67.2284 177.043 67.6079 177.492 67.883 178.079C68.1614 178.665 68.3006 179.371 68.3006 180.197C68.3006 181.022 68.1631 181.73 67.888 182.32C67.6129 182.906 67.235 183.359 66.7544 183.677C66.2739 183.992 65.7253 184.149 65.1088 184.149C64.6448 184.149 64.2653 184.071 63.9703 183.915C63.6787 183.76 63.45 183.577 63.2843 183.369C63.1185 183.16 62.9909 182.974 62.9015 182.812H62.812V186.864H61.3255ZM62.7821 180.182C62.7821 180.719 62.86 181.189 63.0158 181.594C63.1716 181.998 63.397 182.315 63.6919 182.543C63.9869 182.769 64.3482 182.881 64.7757 182.881C65.2199 182.881 65.5911 182.764 65.8894 182.528C66.1877 182.29 66.4131 181.967 66.5655 181.559C66.7213 181.151 66.7992 180.692 66.7992 180.182C66.7992 179.678 66.723 179.226 66.5705 178.825C66.4213 178.424 66.196 178.107 65.8944 177.875C65.5961 177.643 65.2232 177.527 64.7757 177.527C64.3449 177.527 63.9803 177.638 63.682 177.86C63.387 178.082 63.1633 178.392 63.0108 178.79C62.8584 179.187 62.7821 179.652 62.7821 180.182ZM71.4526 173.818V184H69.9661V173.818H71.4526ZM76.7436 184.154C75.9912 184.154 75.3433 183.993 74.7997 183.672C74.2595 183.347 73.8419 182.891 73.5469 182.305C73.2552 181.715 73.1094 181.024 73.1094 180.232C73.1094 179.449 73.2552 178.76 73.5469 178.163C73.8419 177.567 74.2528 177.101 74.7798 176.766C75.3101 176.432 75.9299 176.264 76.6392 176.264C77.0701 176.264 77.4877 176.335 77.892 176.478C78.2964 176.621 78.6593 176.844 78.9808 177.149C79.3023 177.454 79.5559 177.85 79.7415 178.337C79.9271 178.821 80.0199 179.41 80.0199 180.102V180.629H73.9496V179.516H78.5632C78.5632 179.125 78.4837 178.778 78.3246 178.477C78.1655 178.172 77.9418 177.931 77.6534 177.756C77.3684 177.58 77.0336 177.492 76.6491 177.492C76.2315 177.492 75.867 177.595 75.5554 177.8C75.2472 178.003 75.0085 178.268 74.8395 178.596C74.6738 178.921 74.5909 179.274 74.5909 179.655V180.525C74.5909 181.035 74.6804 181.469 74.8594 181.827C75.0417 182.185 75.2952 182.459 75.62 182.648C75.9448 182.833 76.3243 182.926 76.7585 182.926C77.0402 182.926 77.2971 182.886 77.5291 182.807C77.7611 182.724 77.9616 182.601 78.1307 182.439C78.2997 182.277 78.429 182.076 78.5185 181.837L79.9254 182.091C79.8127 182.505 79.6106 182.868 79.3189 183.18C79.0305 183.488 78.6676 183.728 78.2301 183.901C77.7959 184.07 77.3004 184.154 76.7436 184.154ZM85.2338 176.364V177.557H81.0627V176.364H85.2338ZM82.1813 174.534H83.6678V181.758C83.6678 182.046 83.7109 182.263 83.7971 182.409C83.8832 182.552 83.9943 182.649 84.1301 182.702C84.2694 182.752 84.4202 182.777 84.5826 182.777C84.7019 182.777 84.8063 182.769 84.8958 182.752C84.9853 182.736 85.0549 182.722 85.1046 182.712L85.373 183.94C85.2869 183.973 85.1642 184.007 85.0051 184.04C84.8461 184.076 84.6472 184.096 84.4086 184.099C84.0175 184.106 83.6529 184.036 83.3148 183.891C82.9767 183.745 82.7033 183.519 82.4945 183.214C82.2857 182.91 82.1813 182.527 82.1813 182.066V174.534ZM90.0874 184.154C89.335 184.154 88.687 183.993 88.1435 183.672C87.6032 183.347 87.1856 182.891 86.8906 182.305C86.599 181.715 86.4531 181.024 86.4531 180.232C86.4531 179.449 86.599 178.76 86.8906 178.163C87.1856 177.567 87.5966 177.101 88.1236 176.766C88.6539 176.432 89.2737 176.264 89.983 176.264C90.4138 176.264 90.8314 176.335 91.2358 176.478C91.6402 176.621 92.0031 176.844 92.3246 177.149C92.6461 177.454 92.8996 177.85 93.0852 178.337C93.2708 178.821 93.3636 179.41 93.3636 180.102V180.629H87.2933V179.516H91.907C91.907 179.125 91.8274 178.778 91.6683 178.477C91.5092 178.172 91.2855 177.931 90.9972 177.756C90.7121 177.58 90.3774 177.492 89.9929 177.492C89.5753 177.492 89.2107 177.595 88.8991 177.8C88.5909 178.003 88.3523 178.268 88.1832 178.596C88.0175 178.921 87.9347 179.274 87.9347 179.655V180.525C87.9347 181.035 88.0241 181.469 88.2031 181.827C88.3854 182.185 88.639 182.459 88.9638 182.648C89.2886 182.833 89.6681 182.926 90.1023 182.926C90.384 182.926 90.6409 182.886 90.8729 182.807C91.1049 182.724 91.3054 182.601 91.4744 182.439C91.6435 182.277 91.7727 182.076 91.8622 181.837L93.2692 182.091C93.1565 182.505 92.9543 182.868 92.6626 183.18C92.3743 183.488 92.0114 183.728 91.5739 183.901C91.1397 184.07 90.6442 184.154 90.0874 184.154ZM97.8716 184.149C97.2551 184.149 96.705 183.992 96.2211 183.677C95.7405 183.359 95.3626 182.906 95.0875 182.32C94.8158 181.73 94.6799 181.022 94.6799 180.197C94.6799 179.371 94.8174 178.665 95.0925 178.079C95.3709 177.492 95.7521 177.043 96.236 176.732C96.7199 176.42 97.2684 176.264 97.8816 176.264C98.3555 176.264 98.7367 176.344 99.025 176.503C99.3167 176.659 99.5421 176.841 99.7012 177.05C99.8636 177.259 99.9895 177.442 100.079 177.602H100.169V173.818H101.655V184H100.203V182.812H100.079C99.9895 182.974 99.8603 183.16 99.6912 183.369C99.5255 183.577 99.2968 183.76 99.0051 183.915C98.7135 184.071 98.3356 184.149 97.8716 184.149ZM98.1998 182.881C98.6273 182.881 98.9886 182.769 99.2836 182.543C99.5819 182.315 99.8072 181.998 99.9597 181.594C100.115 181.189 100.193 180.719 100.193 180.182C100.193 179.652 100.117 179.187 99.9647 178.79C99.8122 178.392 99.5885 178.082 99.2935 177.86C98.9985 177.638 98.6339 177.527 98.1998 177.527C97.7523 177.527 97.3794 177.643 97.0811 177.875C96.7828 178.107 96.5575 178.424 96.405 178.825C96.2559 179.226 96.1813 179.678 96.1813 180.182C96.1813 180.692 96.2575 181.151 96.41 181.559C96.5624 181.967 96.7878 182.29 97.0861 182.528C97.3877 182.764 97.7589 182.881 98.1998 182.881Z" fill="#46AD85"/>
</g>
<g clip-path="url(#clip5_25745_436028)">
<rect x="21" y="63" width="90" height="26" rx="4" fill="#5E4B02"/>
<path d="M33.446 81H30.1499V70.8182H33.5504C34.5481 70.8182 35.4048 71.022 36.1207 71.4297C36.8366 71.834 37.3852 72.4157 37.7663 73.1747C38.1508 73.9304 38.343 74.8369 38.343 75.8942C38.343 76.9548 38.1491 77.8662 37.7614 78.6286C37.3769 79.3909 36.8201 79.9775 36.0909 80.3885C35.3617 80.7962 34.4801 81 33.446 81ZM31.6861 79.6577H33.3615C34.1371 79.6577 34.7817 79.5118 35.2955 79.2202C35.8092 78.9252 36.1937 78.4993 36.4489 77.9425C36.7041 77.3823 36.8317 76.6996 36.8317 75.8942C36.8317 75.0954 36.7041 74.4176 36.4489 73.8608C36.197 73.304 35.8208 72.8814 35.3203 72.593C34.8198 72.3047 34.1984 72.1605 33.456 72.1605H31.6861V79.6577ZM44.9714 77.8331V73.3636H46.4629V81H45.0012V79.6776H44.9217C44.746 80.0852 44.4643 80.425 44.0765 80.6967C43.6921 80.9652 43.2131 81.0994 42.6397 81.0994C42.1492 81.0994 41.715 80.9917 41.3372 80.7763C40.9627 80.5575 40.6677 80.2344 40.4522 79.8068C40.2401 79.3793 40.1341 78.8506 40.1341 78.2209V73.3636H41.6206V78.0419C41.6206 78.5623 41.7647 78.9766 42.0531 79.2848C42.3414 79.593 42.716 79.7472 43.1767 79.7472C43.4551 79.7472 43.7318 79.6776 44.0069 79.5384C44.2853 79.3991 44.5157 79.1887 44.698 78.907C44.8836 78.6252 44.9747 78.2673 44.9714 77.8331ZM51.7514 81.1541C50.9991 81.1541 50.3511 80.9934 49.8075 80.6719C49.2673 80.3471 48.8497 79.8913 48.5547 79.3047C48.263 78.7147 48.1172 78.0237 48.1172 77.2315C48.1172 76.4493 48.263 75.7599 48.5547 75.1634C48.8497 74.5668 49.2607 74.1011 49.7876 73.7663C50.3179 73.4316 50.9377 73.2642 51.647 73.2642C52.0779 73.2642 52.4955 73.3355 52.8999 73.478C53.3042 73.6205 53.6671 73.8442 53.9886 74.1491C54.3101 74.4541 54.5637 74.8501 54.7493 75.3374C54.9349 75.8213 55.0277 76.4096 55.0277 77.1023V77.6293H48.9574V76.5156H53.571C53.571 76.1245 53.4915 75.7782 53.3324 75.4766C53.1733 75.1716 52.9496 74.9313 52.6612 74.7557C52.3762 74.58 52.0414 74.4922 51.657 74.4922C51.2393 74.4922 50.8748 74.5949 50.5632 74.8004C50.255 75.0026 50.0163 75.2678 49.8473 75.5959C49.6816 75.9207 49.5987 76.2737 49.5987 76.6548V77.5249C49.5987 78.0353 49.6882 78.4695 49.8672 78.8274C50.0495 79.1854 50.303 79.4588 50.6278 79.6477C50.9527 79.8333 51.3321 79.9261 51.7663 79.9261C52.0481 79.9261 52.3049 79.8864 52.5369 79.8068C52.7689 79.724 52.9695 79.6013 53.1385 79.4389C53.3075 79.2765 53.4368 79.076 53.5263 78.8374L54.9332 79.0909C54.8205 79.5052 54.6184 79.8681 54.3267 80.1797C54.0384 80.4879 53.6754 80.7282 53.2379 80.9006C52.8037 81.0696 52.3082 81.1541 51.7514 81.1541ZM60.3821 81V73.3636H61.8686V81H60.3821ZM61.1328 72.1854C60.8743 72.1854 60.6522 72.0992 60.4666 71.9268C60.2843 71.7512 60.1932 71.5424 60.1932 71.3004C60.1932 71.0552 60.2843 70.8464 60.4666 70.674C60.6522 70.4983 60.8743 70.4105 61.1328 70.4105C61.3913 70.4105 61.6117 70.4983 61.794 70.674C61.9796 70.8464 62.0724 71.0552 62.0724 71.3004C62.0724 71.5424 61.9796 71.7512 61.794 71.9268C61.6117 72.0992 61.3913 72.1854 61.1328 72.1854ZM65.3549 76.4659V81H63.8684V73.3636H65.2953V74.6065H65.3897C65.5654 74.2022 65.8405 73.8774 66.215 73.6321C66.5929 73.3868 67.0685 73.2642 67.6419 73.2642C68.1622 73.2642 68.618 73.3736 69.0091 73.5923C69.4002 73.8078 69.7034 74.1293 69.9189 74.5568C70.1343 74.9844 70.242 75.513 70.242 76.1428V81H68.7555V76.3217C68.7555 75.7682 68.6113 75.3357 68.323 75.0241C68.0346 74.7093 67.6386 74.5518 67.1348 74.5518C66.7901 74.5518 66.4835 74.6264 66.215 74.7756C65.9499 74.9247 65.7394 75.1435 65.5836 75.4318C65.4312 75.7169 65.3549 76.0616 65.3549 76.4659ZM79.7837 70.8182V81H78.2425V72.3594H78.1829L75.7468 73.9503V72.4787L78.2873 70.8182H79.7837ZM86.0827 81.169C85.2972 81.1657 84.6261 80.9586 84.0692 80.5476C83.5124 80.1366 83.0865 79.5384 82.7915 78.7528C82.4966 77.9673 82.3491 77.0211 82.3491 75.9141C82.3491 74.8104 82.4966 73.8674 82.7915 73.0852C83.0898 72.303 83.5174 71.7064 84.0742 71.2955C84.6344 70.8845 85.3039 70.679 86.0827 70.679C86.8616 70.679 87.5295 70.8861 88.0863 71.3004C88.6431 71.7114 89.069 72.308 89.364 73.0902C89.6623 73.8691 89.8114 74.8104 89.8114 75.9141C89.8114 77.0244 89.6639 77.9723 89.369 78.7578C89.074 79.54 88.6481 80.1383 88.0913 80.5526C87.5344 80.9635 86.8649 81.169 86.0827 81.169ZM86.0827 79.8416C86.7721 79.8416 87.3107 79.5052 87.6985 78.8324C88.0896 78.1596 88.2852 77.1868 88.2852 75.9141C88.2852 75.0689 88.1957 74.3546 88.0167 73.7713C87.841 73.1847 87.5875 72.7405 87.256 72.4389C86.9279 72.134 86.5368 71.9815 86.0827 71.9815C85.3967 71.9815 84.8581 72.3196 84.467 72.9957C84.0759 73.6719 83.8787 74.6446 83.8754 75.9141C83.8754 76.7625 83.9632 77.4801 84.1388 78.0668C84.3178 78.6501 84.5714 79.0926 84.8995 79.3942C85.2276 79.6925 85.622 79.8416 86.0827 79.8416ZM91.595 81V73.3636H93.0218V74.6065H93.1163C93.2754 74.1856 93.5356 73.8575 93.8968 73.6222C94.2581 73.3835 94.6906 73.2642 95.1944 73.2642C95.7048 73.2642 96.1324 73.3835 96.4771 73.6222C96.8251 73.8608 97.082 74.1889 97.2477 74.6065H97.3272C97.5095 74.1989 97.7995 73.8741 98.1973 73.6321C98.595 73.3868 99.069 73.2642 99.6191 73.2642C100.312 73.2642 100.877 73.4813 101.314 73.9155C101.755 74.3497 101.976 75.0043 101.976 75.8793V81H100.489V76.0185C100.489 75.5014 100.348 75.1269 100.067 74.8949C99.7849 74.6629 99.4484 74.5469 99.0574 74.5469C98.5734 74.5469 98.1973 74.696 97.9288 74.9943C97.6603 75.2893 97.5261 75.6688 97.5261 76.1328V81H96.0446V75.924C96.0446 75.5097 95.9153 75.1766 95.6568 74.9247C95.3983 74.6728 95.0618 74.5469 94.6475 74.5469C94.3658 74.5469 94.1056 74.6214 93.867 74.7706C93.6317 74.9164 93.4411 75.1203 93.2953 75.3821C93.1528 75.6439 93.0815 75.9472 93.0815 76.2919V81H91.595Z" fill="#FFDF70"/>
</g>
<defs>
<clipPath id="clip0_25745_436028">
<rect x="21" y="131" width="85" height="26" rx="3.97506" fill="white"/>
</clipPath>
<clipPath id="clip1_25745_436028">
<rect x="21" y="29" width="90" height="26" rx="3.97506" fill="white"/>
</clipPath>
<clipPath id="clip2_25745_436028">
<rect x="21" y="97" width="103" height="26" rx="3.97506" fill="white"/>
</clipPath>
<clipPath id="clip3_25745_436028">
<rect x="21" y="201" width="119" height="26" rx="3.97506" fill="white"/>
</clipPath>
<clipPath id="clip4_25745_436028">
<rect x="21" y="166" width="90" height="26" rx="3.97506" fill="white"/>
</clipPath>
<clipPath id="clip5_25745_436028">
<rect x="21" y="63" width="90" height="26" rx="3.97506" fill="white"/>
</clipPath>
</defs>
</svg>
