<svg width="55" height="230" viewBox="0 0 55 230" fill="none" xmlns="http://www.w3.org/2000/svg">
<g opacity="0.5">
<circle cx="28" cy="32" r="7.5" stroke="#B4BEC8" stroke-linejoin="round" stroke-dasharray="2 2"/>
<path d="M28 164C25.8783 164 23.8434 164.843 22.3431 166.343C20.8429 167.843 20 169.878 20 172C20 174.122 20.8429 176.157 22.3431 177.657C23.8434 179.157 25.8783 180 28 180" stroke="#FAFAFA" stroke-linejoin="round" stroke-dasharray="1.5 1.5"/>
<path d="M28 164C30.1217 164 32.1566 164.843 33.6569 166.343C35.1571 167.843 36 169.878 36 172C36 174.122 35.1571 176.157 33.6569 177.657C32.1566 179.157 30.1217 180 28 180" stroke="#FAFAFA" stroke-linejoin="round"/>
<path d="M31.128 169.428L27.2816 173.92C27.2486 173.951 27.2094 173.975 27.1661 173.991C27.1229 174.007 27.0766 174.016 27.0298 174.016C26.9829 174.016 26.9366 174.007 26.8934 173.991C26.8501 173.975 26.8109 173.951 26.7779 173.92L24.8779 172.181C24.8449 172.151 24.8057 172.127 24.7624 172.11C24.7192 172.094 24.6729 172.085 24.626 172.085C24.5792 172.085 24.5329 172.094 24.4897 172.11C24.4464 172.127 24.4072 172.151 24.3742 172.181C24.341 172.211 24.3147 172.247 24.2967 172.287C24.2788 172.326 24.2695 172.369 24.2695 172.411C24.2695 172.454 24.2788 172.497 24.2967 172.536C24.3147 172.576 24.341 172.612 24.3742 172.642L26.2748 174.38C26.4753 174.563 26.747 174.665 27.0303 174.665C27.3136 174.665 27.5853 174.563 27.7858 174.38L31.6317 169.888C31.6649 169.858 31.6911 169.822 31.709 169.782C31.727 169.743 31.7362 169.701 31.7362 169.658C31.7362 169.615 31.727 169.573 31.709 169.533C31.6911 169.494 31.6649 169.458 31.6317 169.428C31.5987 169.397 31.5595 169.373 31.5162 169.357C31.473 169.34 31.4267 169.332 31.3799 169.332C31.3331 169.332 31.2867 169.34 31.2435 169.357C31.2003 169.373 31.161 169.397 31.128 169.428Z" fill="#FAFAFA"/>
<path d="M23.4731 132.327C24.1321 130.389 25.91 129 28 129C30.651 129 32.8 131.234 32.8 133.991C34.5673 133.991 36 135.48 36 137.318C36 138.549 35.3565 139.625 34.4 140.2M23.4566 132.365C21.5045 132.641 20 134.381 20 136.486C20 137.847 20.6283 139.055 21.5997 139.813M31.2 140.2L28 137L24.8 140.2M28 137V145" stroke="#B4BEC8" stroke-width="1.04" stroke-linecap="round" stroke-linejoin="round"/>
<circle cx="26" cy="65" r="7.5" stroke="#46AD85" stroke-linejoin="round"/>
<path d="M29.1241 62.4277L25.2777 66.9202C25.2447 66.9505 25.2054 66.9746 25.1622 66.991C25.119 67.0074 25.0727 67.0159 25.0258 67.0159C24.979 67.0159 24.9327 67.0074 24.8895 66.991C24.8462 66.9746 24.807 66.9505 24.774 66.9202L22.874 65.1811C22.841 65.1508 22.8017 65.1267 22.7585 65.1103C22.7153 65.0939 22.6689 65.0854 22.6221 65.0854C22.5753 65.0854 22.529 65.0939 22.4858 65.1103C22.4425 65.1267 22.4033 65.1508 22.3703 65.1811C22.3371 65.2113 22.3108 65.2472 22.2928 65.2868C22.2749 65.3263 22.2656 65.3687 22.2656 65.4115C22.2656 65.4543 22.2749 65.4967 22.2928 65.5362C22.3108 65.5757 22.3371 65.6116 22.3703 65.6418L24.2709 67.3796C24.4714 67.5626 24.7431 67.6654 25.0264 67.6654C25.3097 67.6654 25.5814 67.5626 25.7819 67.3796L29.6278 62.8881C29.661 62.8579 29.6872 62.822 29.7051 62.7825C29.7231 62.743 29.7323 62.7007 29.7323 62.6579C29.7323 62.6151 29.7231 62.5728 29.7051 62.5333C29.6872 62.4938 29.661 62.4579 29.6278 62.4277C29.5948 62.3974 29.5556 62.3733 29.5123 62.3569C29.4691 62.3405 29.4228 62.332 29.376 62.332C29.3291 62.332 29.2828 62.3405 29.2396 62.3569C29.1964 62.3733 29.1571 62.3974 29.1241 62.4277Z" fill="#46AD85"/>
<g clip-path="url(#clip0_17582_151014)">
<circle cx="28" cy="102" r="7.57034" fill="#475161" stroke="#FAFAFA" stroke-width="0.859314" stroke-linejoin="round"/>
<path d="M31.1241 99.4277L27.2777 103.92C27.2447 103.951 27.2054 103.975 27.1622 103.991C27.119 104.007 27.0727 104.016 27.0258 104.016C26.979 104.016 26.9327 104.007 26.8895 103.991C26.8462 103.975 26.807 103.951 26.774 103.92L24.874 102.181C24.841 102.151 24.8017 102.127 24.7585 102.11C24.7153 102.094 24.6689 102.085 24.6221 102.085C24.5753 102.085 24.529 102.094 24.4858 102.11C24.4425 102.127 24.4033 102.151 24.3703 102.181C24.3371 102.211 24.3108 102.247 24.2928 102.287C24.2749 102.326 24.2656 102.369 24.2656 102.411C24.2656 102.454 24.2749 102.497 24.2928 102.536C24.3108 102.576 24.3371 102.612 24.3703 102.642L26.2709 104.38C26.4714 104.563 26.7431 104.665 27.0264 104.665C27.3097 104.665 27.5814 104.563 27.7819 104.38L31.6278 99.8881C31.661 99.8579 31.6872 99.822 31.7051 99.7825C31.7231 99.743 31.7323 99.7007 31.7323 99.6579C31.7323 99.6151 31.7231 99.5728 31.7051 99.5333C31.6872 99.4938 31.661 99.4579 31.6278 99.4277C31.5948 99.3974 31.5556 99.3733 31.5123 99.3569C31.4691 99.3405 31.4228 99.332 31.376 99.332C31.3291 99.332 31.2828 99.3405 31.2396 99.3569C31.1964 99.3733 31.1571 99.3974 31.1241 99.4277Z" fill="#FAFAFA"/>
</g>
<circle cx="28" cy="203" r="7.55212" stroke="#B4BEC8" stroke-width="0.895752" stroke-linejoin="round"/>
<path d="M30.8218 202.836C30.938 202.905 30.9363 203.074 30.8188 203.141L26.6357 205.499C26.5183 205.565 26.3734 205.48 26.3746 205.345L26.4227 200.543C26.4243 200.408 26.5708 200.326 26.6869 200.394L30.8218 202.836Z" stroke="#B4BEC8" stroke-width="0.876786"/>
</g>
<defs>
<clipPath id="clip0_17582_151014">
<rect width="24" height="24" fill="white" transform="translate(16 90)"/>
</clipPath>
</defs>
</svg>
