<svg width="84" height="212" viewBox="0 0 84 212" fill="none" xmlns="http://www.w3.org/2000/svg">
<path d="M48.7092 38.2887C48.6163 38.1972 48.5057 38.1246 48.3839 38.0751C48.262 38.0255 48.1313 38 47.9993 38C47.8673 38 47.7366 38.0255 47.6148 38.0751C47.4929 38.1246 47.3824 38.1972 47.2894 38.2887L42.7099 42.7581C42.617 42.8496 42.5064 42.9222 42.3845 42.9717C42.2627 43.0212 42.132 43.0468 42 43.0468C41.868 43.0468 41.7373 43.0212 41.6155 42.9717C41.4936 42.9222 41.383 42.8496 41.2901 42.7581L36.7106 38.2887C36.6176 38.1972 36.5071 38.1246 36.3852 38.0751C36.2634 38.0255 36.1327 38 36.0007 38C35.8687 38 35.738 38.0255 35.6161 38.0751C35.4943 38.1246 35.3837 38.1972 35.2908 38.2887C35.1045 38.4715 35 38.7188 35 38.9766C35 39.2344 35.1045 39.4818 35.2908 39.6646L39.8802 44.1438C40.4427 44.6921 41.2051 45 42 45C42.7949 45 43.5573 44.6921 44.1198 44.1438L48.7092 39.6646C48.8955 39.4818 49 39.2344 49 38.9766C49 38.7188 48.8955 38.4715 48.7092 38.2887Z" fill="#FAFAFA"/>
<rect x="20" y="148" width="44" height="44" rx="8" fill="#3B4555"/>
<path d="M45.959 161C46.7509 161 47.3984 161.665 47.3984 162.478V175.771L44.5195 172.816H34.4404C33.6486 172.816 33.0001 172.152 33 171.34V162.478C33 161.665 33.6485 161 34.4404 161H45.959ZM37.3193 166.171C36.9217 166.171 36.5996 166.502 36.5996 166.91C36.5999 167.318 36.9219 167.648 37.3193 167.648C37.7167 167.648 38.0388 167.318 38.0391 166.91C38.0391 166.502 37.7169 166.171 37.3193 166.171ZM40.1982 166.171C39.8008 166.171 39.4785 166.502 39.4785 166.91C39.4788 167.318 39.8009 167.648 40.1982 167.648C40.5957 167.648 40.9177 167.318 40.918 166.91C40.918 166.502 40.5958 166.171 40.1982 166.171ZM43.0801 166.171C42.6825 166.171 42.3604 166.502 42.3604 166.91C42.3606 167.318 42.6826 167.648 43.0801 167.648C43.4774 167.648 43.7996 167.318 43.7998 166.91C43.7998 166.502 43.4776 166.171 43.0801 166.171Z" fill="#818991"/>
<path d="M49.5605 163.953C50.3523 163.953 51 164.618 51 165.431V178.724L48.1201 175.77H38.041C37.2493 175.769 36.6017 175.105 36.6016 174.293V165.431C36.6016 164.618 37.2492 163.953 38.041 163.953H49.5605ZM40.9199 169.124C40.5225 169.124 40.2002 169.456 40.2002 169.863C40.2004 170.271 40.5226 170.601 40.9199 170.602C41.3174 170.602 41.6404 170.271 41.6406 169.863C41.6406 169.455 41.3175 169.124 40.9199 169.124ZM43.7979 169.124C43.4002 169.124 43.0781 169.455 43.0781 169.863C43.0784 170.271 43.4004 170.602 43.7979 170.602C44.1952 170.601 44.5173 170.271 44.5176 169.863C44.5176 169.455 44.1954 169.124 43.7979 169.124ZM46.6807 169.124C46.2832 169.124 45.9609 169.456 45.9609 169.863C45.9612 170.271 46.2834 170.601 46.6807 170.602C47.0781 170.602 47.4011 170.271 47.4014 169.863C47.4014 169.455 47.0783 169.124 46.6807 169.124Z" fill="#FAFAFA"/>
<path d="M48.7092 109.711C48.6163 109.803 48.5057 109.875 48.3839 109.925C48.262 109.974 48.1313 110 47.9993 110C47.8673 110 47.7366 109.974 47.6148 109.925C47.4929 109.875 47.3824 109.803 47.2894 109.711L42.7099 105.242C42.617 105.15 42.5064 105.078 42.3845 105.028C42.2627 104.979 42.132 104.953 42 104.953C41.868 104.953 41.7373 104.979 41.6155 105.028C41.4936 105.078 41.383 105.15 41.2901 105.242L36.7106 109.711C36.6176 109.803 36.5071 109.875 36.3852 109.925C36.2634 109.974 36.1327 110 36.0007 110C35.8687 110 35.738 109.974 35.6161 109.925C35.4943 109.875 35.3837 109.803 35.2908 109.711C35.1045 109.529 35 109.281 35 109.023C35 108.766 35.1045 108.518 35.2908 108.335L39.8802 103.856C40.4427 103.308 41.2051 103 42 103C42.7949 103 43.5573 103.308 44.1198 103.856L48.7092 108.335C48.8955 108.518 49 108.766 49 109.023C49 109.281 48.8955 109.529 48.7092 109.711Z" fill="#FAFAFA"/>
</svg>
